%TF.GenerationSoftware,Altium Limited,Altium Designer,21.8.1 (53)*%
G04 Layer_Color=8388736*
%FSLAX45Y45*%
%MOMM*%
%TF.SameCoordinates,BA403207-4E74-424F-88DB-B819054AD5B4*%
%TF.FilePolarity,Negative*%
%TF.FileFunction,Soldermask,Top*%
%TF.Part,Single*%
G01*
G75*
%TA.AperFunction,SMDPad,CuDef*%
%ADD35R,0.80000X1.40000*%
%TA.AperFunction,ComponentPad*%
%ADD54C,1.60000*%
%ADD55R,1.60000X1.60000*%
%ADD59C,1.50000*%
%TA.AperFunction,ViaPad*%
%ADD84C,6.10000*%
%TA.AperFunction,ComponentPad*%
%ADD85C,1.70000*%
%ADD86R,1.70000X1.70000*%
%ADD87C,2.10000*%
%ADD88R,1.70000X1.70000*%
%ADD89C,1.62400*%
%ADD90O,3.60000X2.70000*%
%ADD91C,2.30000*%
%ADD92C,3.10000*%
%ADD93C,1.90000*%
%ADD94R,1.40800X1.40800*%
%ADD95C,1.40800*%
%ADD96O,2.10000X4.10000*%
%ADD97O,4.10000X2.10000*%
%TA.AperFunction,SMDPad,CuDef*%
%ADD102R,3.60000X1.70000*%
%ADD103R,0.90000X0.90000*%
%ADD104R,0.82000X1.88000*%
%ADD105R,1.00000X0.70000*%
%ADD106R,0.70000X0.70000*%
G04:AMPARAMS|DCode=107|XSize=1.57mm|YSize=0.38mm|CornerRadius=0.085mm|HoleSize=0mm|Usage=FLASHONLY|Rotation=90.000|XOffset=0mm|YOffset=0mm|HoleType=Round|Shape=RoundedRectangle|*
%AMROUNDEDRECTD107*
21,1,1.57000,0.21000,0,0,90.0*
21,1,1.40000,0.38000,0,0,90.0*
1,1,0.17000,0.10500,0.70000*
1,1,0.17000,0.10500,-0.70000*
1,1,0.17000,-0.10500,-0.70000*
1,1,0.17000,-0.10500,0.70000*
%
%ADD107ROUNDEDRECTD107*%
G04:AMPARAMS|DCode=108|XSize=1.57mm|YSize=0.38mm|CornerRadius=0.085mm|HoleSize=0mm|Usage=FLASHONLY|Rotation=0.000|XOffset=0mm|YOffset=0mm|HoleType=Round|Shape=RoundedRectangle|*
%AMROUNDEDRECTD108*
21,1,1.57000,0.21000,0,0,0.0*
21,1,1.40000,0.38000,0,0,0.0*
1,1,0.17000,0.70000,-0.10500*
1,1,0.17000,-0.70000,-0.10500*
1,1,0.17000,-0.70000,0.10500*
1,1,0.17000,0.70000,0.10500*
%
%ADD108ROUNDEDRECTD108*%
%ADD109R,1.00000X2.10000*%
%ADD110R,2.10000X1.00000*%
%ADD111R,5.10000X5.10000*%
%ADD112R,1.40000X0.80000*%
%ADD113R,0.70000X0.70000*%
%ADD114R,0.90000X0.90000*%
%ADD115R,1.00000X0.60000*%
%ADD116R,2.60000X2.40000*%
%ADD117R,5.50000X3.00000*%
%ADD118R,1.30000X1.30000*%
%ADD119R,1.30000X0.90000*%
%ADD120R,0.70000X1.00000*%
%TA.AperFunction,ConnectorPad*%
%ADD121R,0.70000X1.00000*%
%TA.AperFunction,SMDPad,CuDef*%
%ADD122R,2.60000X1.90000*%
%ADD123R,0.60000X1.00000*%
%ADD124R,0.90000X1.50000*%
%ADD125R,1.10000X0.80000*%
%ADD126R,1.50000X1.30000*%
%ADD127R,1.40000X1.00000*%
%ADD128R,1.20000X2.00000*%
%ADD129R,1.00000X1.40000*%
G36*
X5675130Y-7073818D02*
X5321130D01*
Y-6959818D01*
X5675130D01*
Y-7073818D01*
D02*
G37*
G36*
Y-7243818D02*
X5321130D01*
Y-7129818D01*
X5675130D01*
Y-7243818D01*
D02*
G37*
G36*
Y-7413818D02*
X5321130D01*
Y-7299818D01*
X5675130D01*
Y-7413818D01*
D02*
G37*
G36*
Y-7583818D02*
X5321130D01*
Y-7469818D01*
X5675130D01*
Y-7583818D01*
D02*
G37*
G36*
Y-7753818D02*
X5321130D01*
Y-7639818D01*
X5675130D01*
Y-7753818D01*
D02*
G37*
G36*
X6995130Y-7898818D02*
X6121131D01*
Y-6814818D01*
X6995130D01*
Y-7898818D01*
D02*
G37*
G36*
X5667189Y-4322923D02*
X5313189D01*
Y-4208922D01*
X5667189D01*
Y-4322923D01*
D02*
G37*
G36*
Y-4492922D02*
X5313189D01*
Y-4378922D01*
X5667189D01*
Y-4492922D01*
D02*
G37*
G36*
Y-4662922D02*
X5313189D01*
Y-4548923D01*
X5667189D01*
Y-4662922D01*
D02*
G37*
G36*
Y-4832923D02*
X5313189D01*
Y-4718922D01*
X5667189D01*
Y-4832923D01*
D02*
G37*
G36*
Y-5002922D02*
X5313189D01*
Y-4888922D01*
X5667189D01*
Y-5002922D01*
D02*
G37*
G36*
X6987189Y-5147922D02*
X6113189D01*
Y-4063923D01*
X6987189D01*
Y-5147922D01*
D02*
G37*
D35*
X2583155Y-6097502D02*
D03*
X2393155D02*
D03*
X2588155Y-5237502D02*
D03*
X2398155D02*
D03*
D54*
X684000Y-5339000D02*
D03*
Y-6101000D02*
D03*
Y-5847000D02*
D03*
Y-5593000D02*
D03*
X420000Y-5974000D02*
D03*
X430000Y-5720000D02*
D03*
Y-5466000D02*
D03*
X8452540Y-7428042D02*
D03*
Y-7678042D02*
D03*
Y-7878042D02*
D03*
Y-8128042D02*
D03*
D55*
X430000Y-5212000D02*
D03*
D59*
X8623824Y-3275977D02*
D03*
X9123824Y-3775977D02*
D03*
Y-2775977D02*
D03*
X9373824D02*
D03*
Y-3775977D02*
D03*
D84*
X9300000Y-9300000D02*
D03*
Y0D02*
D03*
X0D02*
D03*
Y-9300000D02*
D03*
D85*
X4080000Y-6122000D02*
D03*
X4334000D02*
D03*
X3197580Y-8000386D02*
D03*
Y-7746386D02*
D03*
Y-7492386D02*
D03*
Y-7238386D02*
D03*
Y-6984386D02*
D03*
X2235500Y-9297500D02*
D03*
X8331500D02*
D03*
X8077500D02*
D03*
X7823500D02*
D03*
X7569500D02*
D03*
X7315500D02*
D03*
X7061500D02*
D03*
X6807500D02*
D03*
X6553500D02*
D03*
X6299500D02*
D03*
X6045500D02*
D03*
X5791500D02*
D03*
X5537500D02*
D03*
X5283500D02*
D03*
X5029500D02*
D03*
X4775500D02*
D03*
X4521500D02*
D03*
X4267500D02*
D03*
X4013500D02*
D03*
X3759500D02*
D03*
X3505500D02*
D03*
X3251500D02*
D03*
X2997500D02*
D03*
X2743500D02*
D03*
X2489500D02*
D03*
X1981500D02*
D03*
X1727500D02*
D03*
X1473500D02*
D03*
X1219500D02*
D03*
X2236500Y5000D02*
D03*
X8332500D02*
D03*
X8078500D02*
D03*
X7824500D02*
D03*
X7570500D02*
D03*
X7316500D02*
D03*
X7062500D02*
D03*
X6808500D02*
D03*
X6554500D02*
D03*
X6300500D02*
D03*
X6046500D02*
D03*
X5792500D02*
D03*
X5538500D02*
D03*
X5284500D02*
D03*
X5030500D02*
D03*
X4776500D02*
D03*
X4522500D02*
D03*
X4268500D02*
D03*
X4014500D02*
D03*
X3760500D02*
D03*
X3506500D02*
D03*
X3252500D02*
D03*
X2998500D02*
D03*
X2744500D02*
D03*
X2490500D02*
D03*
X1982500D02*
D03*
X1728500D02*
D03*
X1474500D02*
D03*
X1220500D02*
D03*
X1432772Y-4371255D02*
D03*
Y-4117255D02*
D03*
Y-3863255D02*
D03*
Y-3609255D02*
D03*
Y-3355255D02*
D03*
D86*
X4588000Y-6122000D02*
D03*
X965500Y-9297500D02*
D03*
X966500Y5000D02*
D03*
D87*
X1859160Y-8814302D02*
D03*
X2119160Y-8811802D02*
D03*
X1996660Y-6124302D02*
D03*
X9450000Y-4800000D02*
D03*
Y-4300000D02*
D03*
D88*
X3197580Y-8254386D02*
D03*
X1432772Y-4625255D02*
D03*
D89*
X-200000Y-6232000D02*
D03*
Y-5089000D02*
D03*
D90*
X6577500Y-875000D02*
D03*
X5817500Y-621000D02*
D03*
X5192500Y-875000D02*
D03*
X4432500Y-621000D02*
D03*
X3822500Y-870000D02*
D03*
X3062500Y-616000D02*
D03*
D91*
X6577500Y-2145000D02*
D03*
X5817500D02*
D03*
X5192500D02*
D03*
X4432500D02*
D03*
X3822500Y-2140000D02*
D03*
X3062500D02*
D03*
D92*
X8723540Y-7121042D02*
D03*
Y-8435042D02*
D03*
D93*
X364000Y-4260000D02*
D03*
X110000D02*
D03*
Y-4006000D02*
D03*
Y-3752000D02*
D03*
X364000D02*
D03*
Y-4006000D02*
D03*
X354000Y-7300000D02*
D03*
Y-7046000D02*
D03*
X100000D02*
D03*
Y-7300000D02*
D03*
Y-7554000D02*
D03*
X354000D02*
D03*
D94*
X7834020Y-2343474D02*
D03*
D95*
X8088020D02*
D03*
X8342020D02*
D03*
X8596020D02*
D03*
X8850020D02*
D03*
X9104020D02*
D03*
X9358020D02*
D03*
X9612020D02*
D03*
X7834020Y-540074D02*
D03*
X8088020D02*
D03*
X8342020D02*
D03*
X8596020D02*
D03*
X8850020D02*
D03*
X9104020D02*
D03*
X9358020D02*
D03*
X9612020D02*
D03*
D96*
X9123824Y-3275977D02*
D03*
D97*
X8623824Y-3775977D02*
D03*
Y-3525977D02*
D03*
Y-3025977D02*
D03*
Y-2775977D02*
D03*
D102*
X5380189Y-5615922D02*
D03*
X5888189D02*
D03*
X5890133Y-6356502D02*
D03*
X5382133D02*
D03*
X5380189Y-3605922D02*
D03*
X5888189D02*
D03*
X5382133Y-8356502D02*
D03*
X5890133D02*
D03*
D103*
X2781716Y-8512099D02*
D03*
X2631716D02*
D03*
X7087364Y-6128094D02*
D03*
X7237364D02*
D03*
X5540189Y-4075922D02*
D03*
X5390189D02*
D03*
X5395133Y-6839002D02*
D03*
X5545133D02*
D03*
X1649211Y-6027013D02*
D03*
X1499211D02*
D03*
X1081843Y-8353884D02*
D03*
X931843D02*
D03*
X1291843D02*
D03*
X1441843D02*
D03*
X1291843Y-7013884D02*
D03*
X1441843D02*
D03*
X911843D02*
D03*
X1061843D02*
D03*
X317500Y-3075000D02*
D03*
X467500D02*
D03*
D104*
X7352901Y-5909292D02*
D03*
X7225901D02*
D03*
X7098901D02*
D03*
X6971901D02*
D03*
Y-5441292D02*
D03*
X7098901D02*
D03*
X7225901D02*
D03*
X7352901D02*
D03*
D105*
X7571939Y-5610583D02*
D03*
Y-5460583D02*
D03*
X7571536Y-5903947D02*
D03*
Y-5753947D02*
D03*
X1000000Y-7630000D02*
D03*
Y-7480000D02*
D03*
D106*
X2560886Y-7002574D02*
D03*
Y-6922574D02*
D03*
X1108000Y-3305000D02*
D03*
Y-3225000D02*
D03*
X7528516Y-7634371D02*
D03*
Y-7554371D02*
D03*
X961290Y-9529885D02*
D03*
Y-9609885D02*
D03*
X7909882Y-8032963D02*
D03*
Y-7952963D02*
D03*
D107*
X1780001Y-8344000D02*
D03*
X1830000D02*
D03*
X1880001D02*
D03*
X1930000D02*
D03*
X1980001D02*
D03*
X2030001D02*
D03*
X2080000D02*
D03*
X2130001D02*
D03*
X2180000D02*
D03*
X2230001D02*
D03*
X2280001D02*
D03*
X2330000D02*
D03*
X2380001D02*
D03*
X2430000D02*
D03*
X2480001D02*
D03*
X2530001D02*
D03*
Y-7210000D02*
D03*
X2480001D02*
D03*
X2430000D02*
D03*
X2380001D02*
D03*
X2330000D02*
D03*
X2280001D02*
D03*
X2230001D02*
D03*
X2180000D02*
D03*
X2130001D02*
D03*
X2080000D02*
D03*
X2030001D02*
D03*
X1980001D02*
D03*
X1930000D02*
D03*
X1880001D02*
D03*
X1830000D02*
D03*
X1780001D02*
D03*
D108*
X1588001Y-7402000D02*
D03*
Y-7452000D02*
D03*
Y-7502000D02*
D03*
Y-7552000D02*
D03*
Y-7602000D02*
D03*
Y-7652000D02*
D03*
Y-7702000D02*
D03*
Y-7752000D02*
D03*
Y-7802000D02*
D03*
Y-7852000D02*
D03*
Y-7902000D02*
D03*
Y-7952000D02*
D03*
Y-8002000D02*
D03*
Y-8052000D02*
D03*
Y-8102000D02*
D03*
Y-8152000D02*
D03*
X2722000D02*
D03*
Y-8102000D02*
D03*
Y-8052000D02*
D03*
Y-8002000D02*
D03*
Y-7952000D02*
D03*
Y-7902000D02*
D03*
Y-7852000D02*
D03*
Y-7802000D02*
D03*
Y-7752000D02*
D03*
Y-7702000D02*
D03*
Y-7652000D02*
D03*
Y-7602000D02*
D03*
Y-7552000D02*
D03*
Y-7502000D02*
D03*
Y-7452000D02*
D03*
Y-7402000D02*
D03*
D109*
X334000Y-1147332D02*
D03*
X461000D02*
D03*
X588000D02*
D03*
X715000D02*
D03*
X842000D02*
D03*
X969000D02*
D03*
X1096000D02*
D03*
X1223000D02*
D03*
X1350000D02*
D03*
X1477000D02*
D03*
X1604000D02*
D03*
X1731000D02*
D03*
X1858000D02*
D03*
X1985000D02*
D03*
Y-2847332D02*
D03*
X1858000D02*
D03*
X1731000D02*
D03*
X1604000D02*
D03*
X1477000D02*
D03*
X1350000D02*
D03*
X1223000D02*
D03*
X1096000D02*
D03*
X969000D02*
D03*
X842000D02*
D03*
X715000D02*
D03*
X588000D02*
D03*
X461000D02*
D03*
X334000D02*
D03*
D110*
X2085000Y-1425832D02*
D03*
Y-1552832D02*
D03*
Y-1679832D02*
D03*
Y-1806832D02*
D03*
Y-1933832D02*
D03*
Y-2060832D02*
D03*
Y-2187832D02*
D03*
Y-2314832D02*
D03*
Y-2441832D02*
D03*
Y-2568832D02*
D03*
D111*
X1084100Y-2097633D02*
D03*
D112*
X1100000Y-5758000D02*
D03*
Y-5568000D02*
D03*
X6299500Y-9085325D02*
D03*
Y-8895325D02*
D03*
X6553500Y-9085325D02*
D03*
Y-8895325D02*
D03*
X1728488Y-514094D02*
D03*
Y-324095D02*
D03*
X1984073Y-514094D02*
D03*
Y-324095D02*
D03*
X5900000Y-2840000D02*
D03*
Y-3030000D02*
D03*
X3077500Y-2837500D02*
D03*
Y-3027500D02*
D03*
X4472447Y-3027501D02*
D03*
Y-2837501D02*
D03*
D113*
X7528516Y-7554371D02*
D03*
X7608516D02*
D03*
X7989882Y-7952963D02*
D03*
X7909882D02*
D03*
D114*
X6787786Y-5583733D02*
D03*
Y-5733733D02*
D03*
X7832450Y-2637164D02*
D03*
Y-2787164D02*
D03*
X1192500Y-7980000D02*
D03*
Y-7830000D02*
D03*
Y-7630000D02*
D03*
Y-7480000D02*
D03*
X514705Y-665000D02*
D03*
Y-815000D02*
D03*
X500000Y-8620000D02*
D03*
Y-8470000D02*
D03*
D115*
X4960133Y-7546502D02*
D03*
Y-7696502D02*
D03*
X5140133D02*
D03*
Y-7546502D02*
D03*
X5140189Y-4945922D02*
D03*
Y-4795922D02*
D03*
X4970189Y-4945922D02*
D03*
Y-4795922D02*
D03*
X8087629Y-2773733D02*
D03*
Y-2623733D02*
D03*
X317500Y-815000D02*
D03*
Y-665000D02*
D03*
X320000Y-8470000D02*
D03*
Y-8620000D02*
D03*
D116*
X3950189Y-4025922D02*
D03*
X4380189D02*
D03*
X3957633Y-6774002D02*
D03*
X4387633D02*
D03*
D117*
X4180133Y-7416502D02*
D03*
Y-8386502D02*
D03*
X4180190Y-5655922D02*
D03*
Y-4685922D02*
D03*
D118*
X2588511Y-5855002D02*
D03*
X2378511D02*
D03*
X2588511Y-5473480D02*
D03*
X2378511D02*
D03*
X3475210Y-281088D02*
D03*
X3265210D02*
D03*
X4843339Y-282439D02*
D03*
X4633339D02*
D03*
X6227542Y-278741D02*
D03*
X6017542D02*
D03*
X9550000Y-6520930D02*
D03*
X9340000D02*
D03*
Y-6105443D02*
D03*
X9550000D02*
D03*
X9340000Y-5696042D02*
D03*
X9550000D02*
D03*
X9340000Y-5490000D02*
D03*
X9550000D02*
D03*
Y-5280000D02*
D03*
X9340000D02*
D03*
Y-5900000D02*
D03*
X9550000D02*
D03*
X9340000Y-6313844D02*
D03*
X9550000D02*
D03*
D119*
X2050368Y-5853636D02*
D03*
Y-5726636D02*
D03*
Y-5599636D02*
D03*
Y-5472636D02*
D03*
X1500368Y-5853636D02*
D03*
Y-5726636D02*
D03*
Y-5599636D02*
D03*
Y-5472636D02*
D03*
D120*
X2917272Y-281996D02*
D03*
X3067272D02*
D03*
X4285726Y-284134D02*
D03*
X4435726D02*
D03*
X9103680Y-5280000D02*
D03*
X8953680D02*
D03*
D121*
X5670000Y-280000D02*
D03*
X5820000D02*
D03*
D122*
X6014542Y-2512500D02*
D03*
X6414542D02*
D03*
X3642500Y-2512500D02*
D03*
X3242500D02*
D03*
X4622702Y-2512500D02*
D03*
X5022702D02*
D03*
D123*
X9103461Y-5696364D02*
D03*
X8953461D02*
D03*
X9103680Y-6106794D02*
D03*
X8953680D02*
D03*
X767500Y-3752500D02*
D03*
X617500D02*
D03*
X515000Y-6775000D02*
D03*
X365000D02*
D03*
X8953680Y-5901036D02*
D03*
X9103680D02*
D03*
Y-6520697D02*
D03*
X8953680D02*
D03*
Y-5490000D02*
D03*
X9103680D02*
D03*
X9104390Y-6313388D02*
D03*
X8954390D02*
D03*
D124*
X6100000Y-3040000D02*
D03*
X6300000D02*
D03*
X6200000Y-2800000D02*
D03*
X3436250Y-2795000D02*
D03*
X3536250Y-3035000D02*
D03*
X3336250D02*
D03*
X4801961Y-2795000D02*
D03*
X4901961Y-3035000D02*
D03*
X4701961D02*
D03*
D125*
X-300000Y-8430000D02*
D03*
D03*
Y-8655000D02*
D03*
X160000D02*
D03*
Y-8430000D02*
D03*
X137500Y-665000D02*
D03*
Y-890000D02*
D03*
X-322500D02*
D03*
Y-665000D02*
D03*
D03*
D126*
X1271843Y-8573884D02*
D03*
X1051843D02*
D03*
Y-8733884D02*
D03*
X1271843D02*
D03*
D127*
X988951Y-7997316D02*
D03*
Y-7807316D02*
D03*
D128*
X1301843Y-6783884D02*
D03*
X1051843D02*
D03*
D129*
X467500Y-3275000D02*
D03*
X277500D02*
D03*
%TF.MD5,1c1911aa2ab925bedf57d45ccddc8d1d*%
M02*
