%TF.GenerationSoftware,Altium Limited,Altium Designer,21.8.1 (53)*%
G04 Layer_Physical_Order=1*
G04 Layer_Color=255*
%FSLAX45Y45*%
%MOMM*%
%TF.SameCoordinates,BA403207-4E74-424F-88DB-B819054AD5B4*%
%TF.FilePolarity,Positive*%
%TF.FileFunction,Copper,L1,Top,Signal*%
%TF.Part,Single*%
G01*
G75*
%TA.AperFunction,SMDPad,CuDef*%
%ADD10R,3.50000X1.60000*%
%ADD11R,0.80000X0.80000*%
%ADD12R,0.72000X1.78000*%
%ADD13R,0.90000X0.60000*%
%ADD14R,0.60000X0.60000*%
G04:AMPARAMS|DCode=15|XSize=1.47mm|YSize=0.28mm|CornerRadius=0.035mm|HoleSize=0mm|Usage=FLASHONLY|Rotation=90.000|XOffset=0mm|YOffset=0mm|HoleType=Round|Shape=RoundedRectangle|*
%AMROUNDEDRECTD15*
21,1,1.47000,0.21000,0,0,90.0*
21,1,1.40000,0.28000,0,0,90.0*
1,1,0.07000,0.10500,0.70000*
1,1,0.07000,0.10500,-0.70000*
1,1,0.07000,-0.10500,-0.70000*
1,1,0.07000,-0.10500,0.70000*
%
%ADD15ROUNDEDRECTD15*%
G04:AMPARAMS|DCode=16|XSize=1.47mm|YSize=0.28mm|CornerRadius=0.035mm|HoleSize=0mm|Usage=FLASHONLY|Rotation=0.000|XOffset=0mm|YOffset=0mm|HoleType=Round|Shape=RoundedRectangle|*
%AMROUNDEDRECTD16*
21,1,1.47000,0.21000,0,0,0.0*
21,1,1.40000,0.28000,0,0,0.0*
1,1,0.07000,0.70000,-0.10500*
1,1,0.07000,-0.70000,-0.10500*
1,1,0.07000,-0.70000,0.10500*
1,1,0.07000,0.70000,0.10500*
%
%ADD16ROUNDEDRECTD16*%
%ADD17R,0.90000X2.00000*%
%ADD18R,2.00000X0.90000*%
%ADD19R,5.00000X5.00000*%
%ADD20R,1.30000X0.70000*%
%ADD21R,0.60000X0.60000*%
%ADD22R,0.80000X0.80000*%
%ADD23R,0.90000X0.50000*%
%ADD24R,2.50000X2.30000*%
%ADD25R,5.40000X2.90000*%
%ADD26R,8.60000X10.70000*%
%ADD27R,3.40000X1.00000*%
%ADD28R,0.70000X1.30000*%
%ADD29R,1.20000X1.20000*%
%ADD30R,1.20000X0.80000*%
%ADD31R,0.60000X0.90000*%
%TA.AperFunction,ConnectorPad*%
%ADD32R,0.60000X0.90000*%
%TA.AperFunction,SMDPad,CuDef*%
%ADD33R,2.50000X1.80000*%
%ADD34R,0.50000X0.90000*%
%ADD35R,0.80000X1.40000*%
%ADD36R,1.00000X0.70000*%
%ADD37R,1.40000X1.20000*%
%ADD38R,1.30000X0.90000*%
%ADD39R,1.10000X1.90000*%
%ADD40R,0.90000X1.30000*%
%TA.AperFunction,Conductor*%
%ADD41C,0.20000*%
%ADD42C,0.25400*%
%ADD43C,0.50000*%
%ADD44C,0.30000*%
%ADD45C,0.29300*%
%ADD46C,0.60000*%
%ADD47C,0.28000*%
%ADD48C,0.29337*%
%ADD49C,0.40000*%
%ADD50C,0.19716*%
%ADD51C,0.80000*%
%ADD52C,0.24000*%
%TA.AperFunction,ViaPad*%
%ADD53C,6.00000*%
%TA.AperFunction,ComponentPad*%
%ADD54C,1.60000*%
%ADD55R,1.60000X1.60000*%
%ADD56C,2.00000*%
%ADD57R,1.60000X1.60000*%
%ADD58C,1.52400*%
%ADD59C,1.50000*%
%ADD60R,1.50000X1.50000*%
%ADD61O,3.50000X2.60000*%
%ADD62C,2.20000*%
%ADD63C,3.00000*%
%ADD64C,1.80000*%
%ADD65R,1.30800X1.30800*%
%ADD66C,1.30800*%
%ADD67O,2.00000X4.00000*%
%ADD68O,4.00000X2.00000*%
%ADD69C,1.40000*%
%TA.AperFunction,ViaPad*%
%ADD70C,0.45000*%
%ADD71C,0.60000*%
%ADD72C,1.00000*%
G36*
X5575132Y-6289002D02*
Y-6669003D01*
X5455132Y-6789003D01*
Y-6939002D01*
X5465132Y-6949002D01*
X5665131D01*
X5675132Y-6959003D01*
Y-7079002D01*
X5665132Y-7089003D01*
X5325132D01*
X5315132Y-7079003D01*
Y-6979003D01*
Y-6769002D01*
X5205132Y-6659002D01*
Y-6276653D01*
X5212783Y-6269002D01*
X5555132D01*
X5575132Y-6289002D01*
D02*
G37*
G36*
X5115134Y-6929002D02*
Y-7039002D01*
X5205134Y-7129002D01*
X5665134D01*
X5675134Y-7139002D01*
Y-7239002D01*
X5665134Y-7249002D01*
X5105134D01*
X4825134Y-6969002D01*
X4495134D01*
X4465134Y-6999002D01*
Y-7599002D01*
X4455134Y-7609002D01*
X3905134D01*
X3895134Y-7599002D01*
Y-7289002D01*
X3919310Y-7264826D01*
X4159310D01*
X4255134Y-7169002D01*
Y-6659002D01*
X4265134Y-6649002D01*
X4835134D01*
X5115134Y-6929002D01*
D02*
G37*
G36*
X1290000Y-7610000D02*
X1315612D01*
X1393112Y-7687500D01*
X1661757D01*
X1667500Y-7693243D01*
Y-7710000D01*
X1660392Y-7717108D01*
X1368681D01*
X1311572Y-7660000D01*
X1290000D01*
X1270000Y-7680000D01*
X945648D01*
X940000Y-7674352D01*
Y-7588273D01*
X946135Y-7582138D01*
X1262138D01*
X1290000Y-7610000D01*
D02*
G37*
G36*
X1665000Y-7765000D02*
X1662460Y-7767540D01*
X1342460D01*
X1235000Y-7875000D01*
X930000D01*
X924089Y-7869089D01*
Y-7747500D01*
X934089Y-7737500D01*
X1665000D01*
Y-7765000D01*
D02*
G37*
G36*
X7003447Y-6400946D02*
Y-7906502D01*
X6983447Y-7926502D01*
X6320133D01*
X6170133Y-8076502D01*
Y-8096502D01*
X6169289Y-8435659D01*
X6082397Y-8522550D01*
X5754493D01*
X5703445Y-8471502D01*
Y-8211503D01*
X5743445Y-8171503D01*
Y-7951503D01*
X5613445Y-7821503D01*
X5123445D01*
X5083445Y-7781503D01*
Y-7651503D01*
X5113445Y-7621502D01*
X6033445D01*
X6083445Y-7571503D01*
Y-6816502D01*
X6080133Y-6811503D01*
X6050133Y-6781503D01*
X5855133D01*
X5700133Y-6626502D01*
Y-6256502D01*
X5624354Y-6180723D01*
X5209865D01*
X5170133Y-6216502D01*
X4800133Y-6586502D01*
X4150133D01*
X4090133Y-6646502D01*
Y-6966502D01*
X4070133Y-6986502D01*
Y-6986502D01*
X4069543Y-6989002D01*
X3782633D01*
X3710133Y-6916502D01*
Y-6616502D01*
X3920133Y-6406502D01*
X4730133D01*
X4970133Y-6166502D01*
X5140133Y-5996502D01*
X6599005D01*
X7003447Y-6400946D01*
D02*
G37*
G36*
X5010134Y-7664002D02*
Y-8154002D01*
X5080134Y-8224002D01*
X5120134Y-8264002D01*
X5550134D01*
X5560134Y-8274002D01*
Y-8546502D01*
X5516131Y-8590505D01*
X5346844D01*
X5310133Y-8546502D01*
Y-8466502D01*
X5290133Y-8446502D01*
X5287633Y-8444002D01*
X4560134D01*
X4450134Y-8554002D01*
X3890134D01*
X3880134Y-8546502D01*
Y-8534002D01*
Y-8244002D01*
X3900134Y-8224002D01*
X4850134D01*
X4910134Y-8164002D01*
Y-7664002D01*
X4920134Y-7654002D01*
X5000134D01*
X5010134Y-7664002D01*
D02*
G37*
G36*
X6160000Y-1681000D02*
Y-2600000D01*
X6140000Y-2620000D01*
X5890000D01*
X5870000Y-2600000D01*
Y-2420000D01*
X5690000Y-2240000D01*
Y-2080000D01*
X5550000Y-1940000D01*
X4880000D01*
X4760000Y-2060000D01*
Y-2600000D01*
X4750000Y-2610000D01*
X4490000D01*
X4480000Y-2600000D01*
Y-2410000D01*
X4300000Y-2230000D01*
Y-2080000D01*
X4160000Y-1940000D01*
X3470000D01*
X3385000Y-2025000D01*
Y-2605000D01*
X3367500Y-2622500D01*
X3120651D01*
X3119017Y-2624133D01*
X3097500Y-2602616D01*
Y-2387500D01*
X2930000Y-2220000D01*
Y-1649000D01*
X2999000Y-1580000D01*
X6059000D01*
X6160000Y-1681000D01*
D02*
G37*
G36*
X3290278Y-532778D02*
Y-1165278D01*
X3380000Y-1255000D01*
X6082286D01*
X6085848Y-1258562D01*
X7728040D01*
X7918716Y-1449238D01*
Y-2526780D01*
X7891601Y-2553895D01*
Y-2679045D01*
X7875958Y-2694689D01*
X7790438D01*
X7776880Y-2681131D01*
Y-2549724D01*
X7728103Y-2500946D01*
Y-1999103D01*
X7474801Y-1745801D01*
X7358000Y-1629000D01*
X6271500D01*
X6135000Y-1492500D01*
X3042500D01*
X2857500Y-1307500D01*
Y-530000D01*
X2925000Y-462500D01*
X3220000D01*
X3290278Y-532778D01*
D02*
G37*
G36*
X5570188Y-3525922D02*
Y-3905923D01*
X5450188Y-4025923D01*
Y-4175922D01*
X5460188Y-4185922D01*
X5660188D01*
X5670188Y-4195923D01*
Y-4315922D01*
X5660188Y-4325923D01*
X5320188D01*
X5310188Y-4315923D01*
Y-4215922D01*
Y-4005922D01*
X5200188Y-3895922D01*
Y-3525922D01*
X5220188Y-3505922D01*
X5550188D01*
X5570188Y-3525922D01*
D02*
G37*
G36*
X5110188Y-4175922D02*
Y-4285923D01*
X5200188Y-4375922D01*
X5660188D01*
X5670188Y-4385922D01*
Y-4485922D01*
X5660188Y-4495922D01*
X5100188D01*
X4820188Y-4215922D01*
X4490188D01*
X4460188Y-4245922D01*
Y-4845922D01*
X4450188Y-4855922D01*
X3900188D01*
X3890188Y-4845922D01*
Y-4535922D01*
X3914364Y-4511746D01*
X4154365D01*
X4250188Y-4415923D01*
Y-3905922D01*
X4260188Y-3895922D01*
X4830188D01*
X5110188Y-4175922D01*
D02*
G37*
G36*
X7009503Y-3658279D02*
Y-5169942D01*
X6976824Y-5202622D01*
X6326189Y-5202621D01*
X6176189Y-5352621D01*
Y-5372621D01*
X6175345Y-5711777D01*
X6088453Y-5798669D01*
X5760549D01*
X5709501Y-5747621D01*
Y-5487621D01*
X5749501Y-5447621D01*
Y-5227621D01*
X5619501Y-5097621D01*
X5129501D01*
X5089501Y-5057621D01*
Y-4927621D01*
X5119501Y-4897621D01*
X6039501D01*
X6089501Y-4847621D01*
Y-4067621D01*
X6099501Y-4057621D01*
X5861189D01*
X5706189Y-3902621D01*
Y-3532621D01*
X5630410Y-3456842D01*
X5211968D01*
X4817888Y-3850922D01*
X4167888D01*
X4096189Y-3922621D01*
Y-4242621D01*
X4076189Y-4262621D01*
Y-4262621D01*
X4075599Y-4265121D01*
X3788689D01*
X3716189Y-4192621D01*
Y-3892621D01*
X3957887Y-3650923D01*
X4695388D01*
X5073690Y-3272621D01*
X6623844D01*
X7009503Y-3658279D01*
D02*
G37*
G36*
X5020188Y-4925922D02*
Y-5415922D01*
X5090188Y-5485922D01*
X5520188D01*
X5570188Y-5535922D01*
Y-5695922D01*
Y-5775922D01*
X5545187Y-5800923D01*
X5160188D01*
X5065188Y-5705922D01*
X4570188D01*
X4460188Y-5815922D01*
X3900188D01*
Y-5805922D01*
X3890188Y-5795922D01*
Y-5505922D01*
X3910188Y-5485922D01*
X4860188D01*
X4920188Y-5425923D01*
Y-4925922D01*
X4930188Y-4915922D01*
X5010188D01*
X5020188Y-4925922D01*
D02*
G37*
D10*
X5380189Y-5615922D02*
D03*
X5888189D02*
D03*
X5890133Y-6356502D02*
D03*
X5382133D02*
D03*
X5380189Y-3605922D02*
D03*
X5888189D02*
D03*
X5382133Y-8356502D02*
D03*
X5890133D02*
D03*
D11*
X2781716Y-8512099D02*
D03*
X2631716D02*
D03*
X7087364Y-6128094D02*
D03*
X7237364D02*
D03*
X5540189Y-4075922D02*
D03*
X5390189D02*
D03*
X5395133Y-6839002D02*
D03*
X5545133D02*
D03*
X1649211Y-6027013D02*
D03*
X1499211D02*
D03*
X1081843Y-8353884D02*
D03*
X931843D02*
D03*
X1291843D02*
D03*
X1441843D02*
D03*
X1291843Y-7013884D02*
D03*
X1441843D02*
D03*
X911843D02*
D03*
X1061843D02*
D03*
X317500Y-3075000D02*
D03*
X467500D02*
D03*
D12*
X7352901Y-5909292D02*
D03*
X7225901D02*
D03*
X7098901D02*
D03*
X6971901D02*
D03*
Y-5441292D02*
D03*
X7098901D02*
D03*
X7225901D02*
D03*
X7352901D02*
D03*
D13*
X7571939Y-5610583D02*
D03*
Y-5460583D02*
D03*
X7571536Y-5903947D02*
D03*
Y-5753947D02*
D03*
X1000000Y-7630000D02*
D03*
Y-7480000D02*
D03*
D14*
X2560886Y-7002574D02*
D03*
Y-6922574D02*
D03*
X1108000Y-3305000D02*
D03*
Y-3225000D02*
D03*
X7528516Y-7634371D02*
D03*
Y-7554371D02*
D03*
X961290Y-9529885D02*
D03*
Y-9609885D02*
D03*
X7909882Y-8032963D02*
D03*
Y-7952963D02*
D03*
D15*
X1780001Y-8344000D02*
D03*
X1830000D02*
D03*
X1880001D02*
D03*
X1930000D02*
D03*
X1980001D02*
D03*
X2030001D02*
D03*
X2080000D02*
D03*
X2130001D02*
D03*
X2180000D02*
D03*
X2230001D02*
D03*
X2280001D02*
D03*
X2330000D02*
D03*
X2380001D02*
D03*
X2430000D02*
D03*
X2480001D02*
D03*
X2530001D02*
D03*
Y-7210000D02*
D03*
X2480001D02*
D03*
X2430000D02*
D03*
X2380001D02*
D03*
X2330000D02*
D03*
X2280001D02*
D03*
X2230001D02*
D03*
X2180000D02*
D03*
X2130001D02*
D03*
X2080000D02*
D03*
X2030001D02*
D03*
X1980001D02*
D03*
X1930000D02*
D03*
X1880001D02*
D03*
X1830000D02*
D03*
X1780001D02*
D03*
D16*
X1588001Y-7402000D02*
D03*
Y-7452000D02*
D03*
Y-7502000D02*
D03*
Y-7552000D02*
D03*
Y-7602000D02*
D03*
Y-7652000D02*
D03*
Y-7702000D02*
D03*
Y-7752000D02*
D03*
Y-7802000D02*
D03*
Y-7852000D02*
D03*
Y-7902000D02*
D03*
Y-7952000D02*
D03*
Y-8002000D02*
D03*
Y-8052000D02*
D03*
Y-8102000D02*
D03*
Y-8152000D02*
D03*
X2722000D02*
D03*
Y-8102000D02*
D03*
Y-8052000D02*
D03*
Y-8002000D02*
D03*
Y-7952000D02*
D03*
Y-7902000D02*
D03*
Y-7852000D02*
D03*
Y-7802000D02*
D03*
Y-7752000D02*
D03*
Y-7702000D02*
D03*
Y-7652000D02*
D03*
Y-7602000D02*
D03*
Y-7552000D02*
D03*
Y-7502000D02*
D03*
Y-7452000D02*
D03*
Y-7402000D02*
D03*
D17*
X334000Y-1147332D02*
D03*
X461000D02*
D03*
X588000D02*
D03*
X715000D02*
D03*
X842000D02*
D03*
X969000D02*
D03*
X1096000D02*
D03*
X1223000D02*
D03*
X1350000D02*
D03*
X1477000D02*
D03*
X1604000D02*
D03*
X1731000D02*
D03*
X1858000D02*
D03*
X1985000D02*
D03*
Y-2847332D02*
D03*
X1858000D02*
D03*
X1731000D02*
D03*
X1604000D02*
D03*
X1477000D02*
D03*
X1350000D02*
D03*
X1223000D02*
D03*
X1096000D02*
D03*
X969000D02*
D03*
X842000D02*
D03*
X715000D02*
D03*
X588000D02*
D03*
X461000D02*
D03*
X334000D02*
D03*
D18*
X2085000Y-1425832D02*
D03*
Y-1552832D02*
D03*
Y-1679832D02*
D03*
Y-1806832D02*
D03*
Y-1933832D02*
D03*
Y-2060832D02*
D03*
Y-2187832D02*
D03*
Y-2314832D02*
D03*
Y-2441832D02*
D03*
Y-2568832D02*
D03*
D19*
X1084100Y-2097633D02*
D03*
D20*
X1100000Y-5758000D02*
D03*
Y-5568000D02*
D03*
X6299500Y-9085325D02*
D03*
Y-8895325D02*
D03*
X6553500Y-9085325D02*
D03*
Y-8895325D02*
D03*
X1728488Y-514094D02*
D03*
Y-324095D02*
D03*
X1984073Y-514094D02*
D03*
Y-324095D02*
D03*
X5900000Y-2840000D02*
D03*
Y-3030000D02*
D03*
X3077500Y-2837500D02*
D03*
Y-3027500D02*
D03*
X4472447Y-3027501D02*
D03*
Y-2837501D02*
D03*
D21*
X7528516Y-7554371D02*
D03*
X7608516D02*
D03*
X7989882Y-7952963D02*
D03*
X7909882D02*
D03*
D22*
X6787786Y-5583733D02*
D03*
Y-5733733D02*
D03*
X7832450Y-2637164D02*
D03*
Y-2787164D02*
D03*
X1192500Y-7980000D02*
D03*
Y-7830000D02*
D03*
Y-7630000D02*
D03*
Y-7480000D02*
D03*
X514705Y-665000D02*
D03*
Y-815000D02*
D03*
X500000Y-8620000D02*
D03*
Y-8470000D02*
D03*
D23*
X4960133Y-7546502D02*
D03*
Y-7696502D02*
D03*
X5140133D02*
D03*
Y-7546502D02*
D03*
X5140189Y-4945922D02*
D03*
Y-4795922D02*
D03*
X4970189Y-4945922D02*
D03*
Y-4795922D02*
D03*
X8087629Y-2773733D02*
D03*
Y-2623733D02*
D03*
X317500Y-815000D02*
D03*
Y-665000D02*
D03*
X320000Y-8470000D02*
D03*
Y-8620000D02*
D03*
D24*
X3950189Y-4025922D02*
D03*
X4380189D02*
D03*
X3957633Y-6774002D02*
D03*
X4387633D02*
D03*
D25*
X4180133Y-7416502D02*
D03*
Y-8386502D02*
D03*
X4180190Y-5655922D02*
D03*
Y-4685922D02*
D03*
D26*
X6550189Y-4605922D02*
D03*
X6558130Y-7356818D02*
D03*
D27*
X5490189Y-4945923D02*
D03*
Y-4775922D02*
D03*
Y-4605922D02*
D03*
Y-4435923D02*
D03*
Y-4265922D02*
D03*
X5498130Y-7016818D02*
D03*
Y-7186818D02*
D03*
Y-7356818D02*
D03*
Y-7526818D02*
D03*
Y-7696818D02*
D03*
D28*
X2583155Y-6097502D02*
D03*
X2393155D02*
D03*
X2588155Y-5237502D02*
D03*
X2398155D02*
D03*
D29*
X2588511Y-5855002D02*
D03*
X2378511D02*
D03*
X2588511Y-5473480D02*
D03*
X2378511D02*
D03*
X3475210Y-281088D02*
D03*
X3265210D02*
D03*
X4843339Y-282439D02*
D03*
X4633339D02*
D03*
X6227542Y-278741D02*
D03*
X6017542D02*
D03*
X9550000Y-6520930D02*
D03*
X9340000D02*
D03*
Y-6105443D02*
D03*
X9550000D02*
D03*
X9340000Y-5696042D02*
D03*
X9550000D02*
D03*
X9340000Y-5490000D02*
D03*
X9550000D02*
D03*
Y-5280000D02*
D03*
X9340000D02*
D03*
Y-5900000D02*
D03*
X9550000D02*
D03*
X9340000Y-6313844D02*
D03*
X9550000D02*
D03*
D30*
X2050368Y-5853636D02*
D03*
Y-5726636D02*
D03*
Y-5599636D02*
D03*
Y-5472636D02*
D03*
X1500368Y-5853636D02*
D03*
Y-5726636D02*
D03*
Y-5599636D02*
D03*
Y-5472636D02*
D03*
D31*
X2917272Y-281996D02*
D03*
X3067272D02*
D03*
X4285726Y-284134D02*
D03*
X4435726D02*
D03*
X9103680Y-5280000D02*
D03*
X8953680D02*
D03*
D32*
X5670000Y-280000D02*
D03*
X5820000D02*
D03*
D33*
X6014542Y-2512500D02*
D03*
X6414542D02*
D03*
X3642500Y-2512500D02*
D03*
X3242500D02*
D03*
X4622702Y-2512500D02*
D03*
X5022702D02*
D03*
D34*
X9103461Y-5696364D02*
D03*
X8953461D02*
D03*
X9103680Y-6106794D02*
D03*
X8953680D02*
D03*
X767500Y-3752500D02*
D03*
X617500D02*
D03*
X515000Y-6775000D02*
D03*
X365000D02*
D03*
X8953680Y-5901036D02*
D03*
X9103680D02*
D03*
Y-6520697D02*
D03*
X8953680D02*
D03*
Y-5490000D02*
D03*
X9103680D02*
D03*
X9104390Y-6313388D02*
D03*
X8954390D02*
D03*
D35*
X6100000Y-3040000D02*
D03*
X6300000D02*
D03*
X6200000Y-2800000D02*
D03*
X3436250Y-2795000D02*
D03*
X3536250Y-3035000D02*
D03*
X3336250D02*
D03*
X4801961Y-2795000D02*
D03*
X4901961Y-3035000D02*
D03*
X4701961D02*
D03*
D36*
X-300000Y-8430000D02*
D03*
D03*
Y-8655000D02*
D03*
X160000D02*
D03*
Y-8430000D02*
D03*
X137500Y-665000D02*
D03*
Y-890000D02*
D03*
X-322500D02*
D03*
Y-665000D02*
D03*
D03*
D37*
X1271843Y-8573884D02*
D03*
X1051843D02*
D03*
Y-8733884D02*
D03*
X1271843D02*
D03*
D38*
X988951Y-7997316D02*
D03*
Y-7807316D02*
D03*
D39*
X1301843Y-6783884D02*
D03*
X1051843D02*
D03*
D40*
X467500Y-3275000D02*
D03*
X277500D02*
D03*
D41*
X1108000Y-3225000D02*
X1350000Y-2983000D01*
Y-2847332D01*
X2535249Y-7730378D02*
X2563627Y-7702000D01*
X2722000D01*
X2080000Y-7291695D02*
Y-7210000D01*
X2041336Y-7330359D02*
X2080000Y-7291695D01*
X2015239Y-7335143D02*
X2020022Y-7330359D01*
X2041336D01*
X1844533Y-8094756D02*
X2487289Y-7452000D01*
X2722000D01*
X2604608Y-7502000D02*
X2722000D01*
X2558962Y-7547647D02*
X2604608Y-7502000D01*
X2471191Y-7547647D02*
X2558962D01*
X2621271Y-7552000D02*
X2722000D01*
X2470183Y-7625217D02*
X2548054D01*
X2621271Y-7552000D01*
X2465400Y-7630000D02*
X2470183Y-7625217D01*
X7214996Y-8688996D02*
X7823500Y-9297500D01*
X3251070Y-8688996D02*
X7214996D01*
X3058234Y-8496160D02*
X3251070Y-8688996D01*
X6392720Y-8825046D02*
X6437546Y-8869873D01*
X2776483Y-8825046D02*
X6392720D01*
X2483230Y-8531793D02*
X2776483Y-8825046D01*
X6437546Y-8999371D02*
Y-8869873D01*
X2131600Y-7335319D02*
X2136376D01*
X2116588Y-7343566D02*
X2123353D01*
X2131600Y-7335319D01*
X2136376D02*
X2178700Y-7292995D01*
X1843970Y-7725708D02*
Y-7532480D01*
Y-7725708D02*
X1847150Y-7728887D01*
X1844533Y-8155788D02*
Y-8094756D01*
X1727500Y-9461382D02*
Y-8239408D01*
X2840453Y-7863309D02*
X2904055D01*
X2829144Y-7852000D02*
X2840453Y-7863309D01*
X2724001Y-7904000D02*
X2838761D01*
X2722001Y-7902000D02*
X2724001Y-7904000D01*
X2838761D02*
X3058234Y-8123473D01*
X2722000Y-7852000D02*
X2829144D01*
X2722000Y-7802000D02*
X3025113D01*
X3197580Y-7974467D01*
X3058234Y-8496160D02*
Y-8123473D01*
X2814510Y-8200581D02*
X2819293Y-8205365D01*
X2814510Y-8200581D02*
Y-8185010D01*
X2785500Y-8156000D02*
X2814510Y-8185010D01*
X2726000Y-8156000D02*
X2785500D01*
X2722000Y-8152000D02*
X2726000Y-8156000D01*
X3011719Y-8511171D02*
Y-8143862D01*
X3235035Y-8734486D02*
X7006487D01*
X3011719Y-8511171D02*
X3235035Y-8734486D01*
X2961452Y-8530121D02*
X3214910Y-8783580D01*
X2961452Y-8530121D02*
Y-8152469D01*
X3214910Y-8783580D02*
X6801580D01*
X2281900Y-8584919D02*
X2725013Y-9028032D01*
X5268032D01*
X2281900Y-8584919D02*
Y-8345900D01*
X2230001Y-8591740D02*
Y-8344000D01*
X2689997Y-9108305D02*
X4840305D01*
X2180000Y-8598308D02*
Y-8344000D01*
X2230001Y-8591740D02*
X2706292Y-9068032D01*
X5054032D01*
X2180000Y-8598308D02*
X2689997Y-9108305D01*
X2130001Y-8606281D02*
X2672025Y-9148305D01*
X2130001Y-8606281D02*
Y-8344000D01*
X2672025Y-9148305D02*
X4626305D01*
X2330000Y-8565599D02*
X2751243Y-8986842D01*
X5480842D01*
X2330000Y-8565599D02*
Y-8344000D01*
X2380001Y-8555429D02*
Y-8344000D01*
Y-8555429D02*
X2765242Y-8940671D01*
X5688671D01*
X2430000Y-8543809D02*
Y-8344000D01*
X2783408Y-8897216D02*
X6026524D01*
X2430000Y-8543809D02*
X2783408Y-8897216D01*
X2483230Y-8531793D02*
Y-8347229D01*
X2079801Y-8534299D02*
Y-8344200D01*
X2080000Y-8344000D01*
X2076990Y-8537110D02*
X2079801Y-8534299D01*
X1880001Y-8344000D02*
Y-8180161D01*
X1916676Y-8143486D01*
X1772628Y-8227692D02*
X1844533Y-8155788D01*
X1739216Y-8227692D02*
X1772628D01*
X1589301Y-8153300D02*
X1590601Y-8152000D01*
X1720780D01*
X1737156Y-8168375D02*
X1743921D01*
X1720780Y-8152000D02*
X1737156Y-8168375D01*
X1697971Y-8107200D02*
X1763593D01*
X1767025Y-8103769D01*
X1692771Y-8102000D02*
X1697971Y-8107200D01*
X2480001Y-8344000D02*
X2483230Y-8347229D01*
X6026524Y-8897216D02*
X6214632Y-9085325D01*
X5688671Y-8940671D02*
X6045500Y-9297500D01*
X5480842Y-8986842D02*
X5791500Y-9297500D01*
X5268032Y-9028032D02*
X5537500Y-9297500D01*
X4626305Y-9148305D02*
X4775500Y-9297500D01*
X2560886Y-7067511D02*
Y-7002574D01*
X2486001Y-7126124D02*
X2505625Y-7106500D01*
X2480001Y-7210000D02*
X2484001Y-7206000D01*
Y-7136785D02*
X2486001Y-7134785D01*
X2521896Y-7106500D02*
X2560886Y-7067511D01*
X2505625Y-7106500D02*
X2521896D01*
X2484001Y-7206000D02*
Y-7136785D01*
X2486001Y-7134785D02*
Y-7126124D01*
X2558317Y-7150442D02*
X2647700Y-7061059D01*
X2530001Y-7154442D02*
X2534001Y-7150442D01*
X2530001Y-7210000D02*
Y-7154442D01*
X2534001Y-7150442D02*
X2558317D01*
X2430000Y-7210000D02*
Y-7105489D01*
X2475199Y-7060290D01*
X3197580Y-8000386D02*
Y-7974467D01*
X715000Y-1147332D02*
X715740Y-1146592D01*
X713440Y-1148893D02*
X715000Y-1147332D01*
X713440Y-1276698D02*
Y-1148893D01*
X1777696Y-7402000D02*
X1906272Y-7530576D01*
Y-7676321D02*
Y-7530576D01*
X1980557Y-5476131D02*
X2046872D01*
X2050368Y-5472636D01*
X1780001Y-8472532D02*
X1793067Y-8485599D01*
Y-8488494D02*
Y-8485599D01*
X7911568Y-8877568D02*
Y-8034650D01*
Y-8877568D02*
X8331500Y-9297500D01*
X7528516Y-8748516D02*
Y-7634371D01*
Y-8748516D02*
X8077500Y-9297500D01*
X7006487Y-8734486D02*
X7569500Y-9297500D01*
X6801580Y-8783580D02*
X7315500Y-9297500D01*
X5054032Y-9068032D02*
X5283500Y-9297500D01*
X4840305Y-9108305D02*
X5029500Y-9297500D01*
X2280001Y-8344000D02*
X2281900Y-8345900D01*
X2001401Y-7069801D02*
X2030001Y-7098400D01*
X2001401Y-7069801D02*
Y-7067978D01*
X2030001Y-7210000D02*
Y-7098400D01*
X1912633Y-7333590D02*
X1938105D01*
X1763491Y-7452000D02*
X1843970Y-7532480D01*
X1909840Y-7336384D02*
X1912633Y-7333590D01*
X1938105D02*
X1978701Y-7292994D01*
X2120602Y-7069724D02*
X2128701Y-7077823D01*
Y-7208700D02*
Y-7077823D01*
X2120602Y-7069724D02*
Y-7065774D01*
X2230001Y-7210000D02*
Y-7060000D01*
X2178700Y-7292995D02*
Y-7211300D01*
X2128701Y-7208700D02*
X2130001Y-7210000D01*
X2869857Y-8002000D02*
X3011719Y-8143862D01*
X2860983Y-8052000D02*
X2961452Y-8152469D01*
X7909882Y-8032963D02*
X7911568Y-8034650D01*
X2279371Y-7081270D02*
X2286758Y-7073884D01*
Y-7018463D01*
X2279371Y-7209371D02*
Y-7081270D01*
X2330000Y-7210000D02*
Y-7097635D01*
X2360335Y-7067300D01*
X2279371Y-7209371D02*
X2280001Y-7210000D01*
X2050368Y-5726636D02*
X2053662Y-5729931D01*
X2137438D01*
X2051050Y-5854319D02*
X2052256Y-5855524D01*
X2050368Y-5853636D02*
X2051050Y-5854319D01*
X2178700Y-7211300D02*
X2180000Y-7210000D01*
X2052256Y-5924472D02*
Y-5855524D01*
X1762700Y-7070000D02*
X1765493Y-7072794D01*
X1782793D01*
X1890160Y-7070072D02*
X1901672D01*
X1887367Y-7067279D02*
X1890160Y-7070072D01*
X1901672D02*
X1930000Y-7098400D01*
Y-7210000D02*
Y-7098400D01*
X2050368Y-5726636D02*
Y-5599636D01*
X1873838Y-8487708D02*
X1878499D01*
X1880546Y-8489755D01*
X2810318Y-7400700D02*
X2824999Y-7386020D01*
X2723300Y-7400700D02*
X2810318D01*
X2723300Y-7600700D02*
X2812866D01*
X2859533Y-7554034D01*
X2837552Y-7652000D02*
X2860998Y-7628554D01*
X2864949D01*
X2722000Y-7652000D02*
X2837552D01*
X1830000Y-8443870D02*
X1873838Y-8487708D01*
X1830000Y-8443870D02*
Y-8344000D01*
X1780001Y-8472532D02*
Y-8344000D01*
X1966864Y-8444041D02*
X1980001Y-8430905D01*
X1966864Y-8493588D02*
Y-8444041D01*
X1980001Y-8430905D02*
Y-8344000D01*
X2027300Y-8458134D02*
X2028701Y-8456734D01*
Y-8345300D01*
X2030001Y-8344000D01*
X1930000Y-8222499D02*
X1945000Y-8207500D01*
X1930000Y-8344000D02*
Y-8222499D01*
X2722000Y-7752000D02*
X3191966D01*
X2722000Y-8002000D02*
X2869857D01*
X2722000Y-8052000D02*
X2860983D01*
X2829127Y-8102075D02*
X2864752Y-8137700D01*
X2722076Y-8102075D02*
X2829127D01*
X2722000Y-8102000D02*
X2722076Y-8102075D01*
X1727500Y-8239408D02*
X1739216Y-8227692D01*
X1780339Y-7779351D02*
Y-7560339D01*
X1722001Y-7502000D02*
X1780339Y-7560339D01*
X1588001Y-7402000D02*
X1777696D01*
X1588001Y-7502000D02*
X1722001D01*
X1588001Y-7452000D02*
X1763491D01*
X1390000Y-8210000D02*
X1481700Y-8118300D01*
X6214632Y-9085325D02*
X6299500D01*
X6437546Y-8999371D02*
X6523501Y-9085325D01*
X6553500D01*
X6299500Y-9085325D02*
X6299500Y-9085325D01*
X6299500Y-9297500D02*
Y-9085325D01*
X2722000Y-7602000D02*
X2723300Y-7600700D01*
X2722000Y-7402000D02*
X2723300Y-7400700D01*
X2355400Y-7331426D02*
X2380001Y-7306825D01*
Y-7210000D01*
X2360335Y-7067300D02*
Y-7063349D01*
X1579905Y-9608976D02*
X1727500Y-9461382D01*
X1272563Y-9608976D02*
X1579905D01*
X1271654Y-9609885D02*
X1272563Y-9608976D01*
X961290Y-9609885D02*
X1271654D01*
X1763549Y-7972500D02*
X1767500D01*
X9366391Y-5681046D02*
X9376391Y-5671046D01*
X1481700Y-8118300D02*
Y-7976607D01*
X1505007Y-7953300D01*
X1586701D01*
X1588001Y-7952000D01*
X1717300Y-8052000D02*
X1720000Y-8054700D01*
X1588001Y-8052000D02*
X1717300D01*
X1588001Y-8102000D02*
X1692771D01*
X1588001Y-8002000D02*
X1734049D01*
X1763549Y-7972500D01*
X1978701Y-7292994D02*
Y-7211300D01*
X1980001Y-7210000D01*
X1878701Y-7292994D02*
Y-7211300D01*
X1830294Y-7329706D02*
X1841988D01*
X1878701Y-7211300D02*
X1880001Y-7210000D01*
X1841988Y-7329706D02*
X1878701Y-7292994D01*
X1827500Y-7332500D02*
X1830294Y-7329706D01*
X1760200Y-7330000D02*
Y-7326049D01*
X1778701Y-7307549D01*
Y-7211300D01*
X1780001Y-7210000D01*
X1828700Y-7208700D02*
X1830000Y-7210000D01*
X1828700Y-7208700D02*
Y-7118701D01*
X1782793Y-7072794D02*
X1828700Y-7118701D01*
X2595000Y-7950000D02*
X2596000Y-7951000D01*
X2721000D01*
X2722000Y-7952000D01*
D42*
X1108000Y-4059919D02*
Y-3305000D01*
X170036Y-4997883D02*
X1108000Y-4059919D01*
X1688336Y-970998D02*
X1731000Y-1013662D01*
X1658874Y-970998D02*
X1688336D01*
X1655124Y-967248D02*
X1658874Y-970998D01*
X2410096Y-6922574D02*
X2560886D01*
X2307722Y-6820200D02*
X2410096Y-6922574D01*
X839929Y-1145261D02*
Y-1005141D01*
Y-1145261D02*
X842000Y-1147332D01*
X588000Y-2990872D02*
X677582Y-3080454D01*
X1018445D01*
X-89854Y-7110146D02*
X100000Y-7300000D01*
X-89854Y-7110146D02*
Y-6808643D01*
X170036Y-6548753D01*
Y-4997883D01*
X730419Y-6694248D02*
X952046Y-6472621D01*
X730419Y-8853287D02*
Y-6694248D01*
X952046Y-6472621D02*
X2761772D01*
X3337500Y-5896893D01*
X8396203Y-7219519D02*
Y-6942815D01*
X7989796Y-7625926D02*
X8396203Y-7219519D01*
X7989796Y-7952877D02*
Y-7625926D01*
X7608516Y-7554371D02*
X7927838D01*
X8295074Y-7187136D01*
X7989796Y-7952877D02*
X7989882Y-7952963D01*
X7909709Y-7873169D02*
X7909795Y-7873256D01*
Y-7952877D02*
X7909882Y-7952963D01*
X7909795Y-7952877D02*
Y-7873256D01*
X7527286Y-7555601D02*
X7528516Y-7554371D01*
X7453353Y-7556831D02*
X7454584Y-7555601D01*
X7527286D01*
X3337500Y-5896893D02*
Y-3036250D01*
X3191966Y-7752000D02*
X3197580Y-7746386D01*
X6553500Y-9085325D02*
X6553500Y-9085325D01*
X6553500Y-9297500D02*
Y-9085325D01*
X3336250Y-3035000D02*
Y-2933371D01*
Y-3035000D02*
X3337500Y-3036250D01*
X3328750Y-3027500D02*
X3336250Y-3035000D01*
Y-2933371D02*
X3344421Y-2925201D01*
Y-2921250D01*
X5490189Y-4945922D02*
X5490189Y-4945923D01*
X5497815Y-7696502D02*
X5498130Y-7696818D01*
X4960133Y-7546502D02*
X4960449Y-7546187D01*
X3077500Y-3027500D02*
X3328750D01*
X1728488Y-324095D02*
X1728500Y-324083D01*
Y5000D01*
X1982500Y-322522D02*
Y5000D01*
Y-322522D02*
X1984073Y-324095D01*
X2057834Y-3301329D02*
X3156708D01*
X2148095Y-3211591D02*
X3129863D01*
X3132490Y-3214217D01*
X1858000Y-3101495D02*
X2057834Y-3301329D01*
X1985000Y-3048496D02*
X2148095Y-3211591D01*
X1985000Y-3048496D02*
Y-2847332D01*
X1858000Y-3101495D02*
Y-2847332D01*
X730419Y-8853287D02*
X965500Y-9088368D01*
X961290Y-9529885D02*
Y-9301710D01*
X965500Y-9297500D01*
Y-9088368D01*
X1600000Y-1143332D02*
Y-971669D01*
X1539824Y-911493D02*
X1600000Y-971669D01*
X1731000Y-1147332D02*
Y-1013662D01*
X1600000Y-1143332D02*
X1604000Y-1147332D01*
X588000Y-2990872D02*
Y-2847332D01*
X8088020Y-2623342D02*
Y-2343474D01*
X8529576Y-6809442D02*
X9374862D01*
X8396203Y-6942815D02*
X8529576Y-6809442D01*
X8295074Y-7187136D02*
Y-6913868D01*
X8494050Y-6714892D01*
X9352542D01*
X4345921Y-410522D02*
X4683022D01*
X5147500Y-875000D02*
X5192500D01*
X4683022Y-410522D02*
X5147500Y-875000D01*
X4302633Y-367234D02*
X4345921Y-410522D01*
X4302633Y-367234D02*
Y-301042D01*
X4285726Y-284134D02*
X4302633Y-301042D01*
X4631644Y-284134D02*
X4633339Y-282439D01*
X4435726Y-284134D02*
X4631644D01*
X3307305Y-399806D02*
X3777500Y-870000D01*
X2944189Y-399806D02*
X3307305D01*
X2917272Y-372889D02*
X2944189Y-399806D01*
X3777500Y-870000D02*
X3822500D01*
X2917272Y-372889D02*
Y-281996D01*
X3068180Y-281088D02*
X3265210D01*
X3067272Y-281996D02*
X3068180Y-281088D01*
X9374862Y-6809442D02*
X9550000Y-6634304D01*
X9352542Y-6714892D02*
X9443216Y-6624218D01*
X9550000Y-6634304D02*
Y-6520930D01*
X9443216Y-6624218D02*
Y-6420628D01*
X9550000Y-6313844D01*
X9336391Y-5711046D02*
X9341391Y-5716046D01*
X6100000Y-3040000D02*
Y-2920000D01*
X5900000Y-3030000D02*
X6090000D01*
X6100000Y-3040000D01*
X4700000Y-3033038D02*
Y-2920000D01*
Y-3033038D02*
X4701961Y-3035000D01*
X4694462Y-3027501D02*
X4700000Y-3033038D01*
X4472447Y-3027501D02*
X4694462D01*
X1588001Y-8152000D02*
X1589301Y-8153300D01*
D43*
X8888677Y-6520833D02*
X8953680D01*
X8858072Y-6520970D02*
X8858209Y-6520833D01*
X8888677D01*
X8858072Y-6314192D02*
X8892346D01*
X8858072Y-6106794D02*
X8953680D01*
X8858072Y-5900636D02*
X8953680D01*
X8893150Y-6313388D02*
X8954390D01*
X8892346Y-6314192D02*
X8893150Y-6313388D01*
X1499211Y-6027013D02*
X1499789Y-6026435D01*
X1498698Y-6027526D02*
X1499211Y-6027013D01*
X8886412Y-5697479D02*
X8887527Y-5696364D01*
X8858072Y-5697479D02*
X8886412D01*
X8887527Y-5696364D02*
X8953461D01*
X8953680Y-6520833D02*
Y-6520697D01*
X8888541Y-6520970D02*
X8888677Y-6520833D01*
X1410077Y-6027526D02*
X1498698D01*
X1409565Y-6028039D02*
X1410077Y-6027526D01*
X7098901Y-5441292D02*
X7099688Y-5442078D01*
Y-5567848D02*
Y-5442078D01*
X6971935Y-5570403D02*
Y-5441325D01*
X6971901Y-5441292D02*
X6971935Y-5441325D01*
X910542Y-7012583D02*
X911843Y-7013884D01*
X909240Y-6927907D02*
X910542Y-6929208D01*
Y-7012583D02*
Y-6929208D01*
X987159Y-7809200D02*
X987701Y-7808658D01*
X871310Y-7809200D02*
X987159D01*
X869425Y-7811084D02*
X871310Y-7809200D01*
X467500Y-3275000D02*
X467714Y-3275214D01*
Y-3391041D02*
Y-3275214D01*
Y-3391041D02*
X467927Y-3391255D01*
X5540670Y-4075442D02*
X5633750D01*
X5540189Y-4075922D02*
X5540670Y-4075442D01*
X5633750D02*
X5634231Y-4074962D01*
X8953680Y-5901036D02*
Y-5900636D01*
X1192561Y-7479939D02*
Y-7403799D01*
X1192621Y-7403739D01*
X1192500Y-7480000D02*
X1192561Y-7479939D01*
X7571939Y-5610583D02*
X7665279D01*
X7738006Y-5537856D01*
X7571737Y-5610784D02*
X7571939Y-5610583D01*
X7571536Y-5753947D02*
X7571737Y-5753745D01*
Y-5610784D01*
X7375216Y-5715183D02*
X7426484Y-5663915D01*
X7290185Y-5715183D02*
X7375216D01*
X7225901Y-5779466D02*
X7290185Y-5715183D01*
X7225901Y-5909292D02*
Y-5779466D01*
X2086335Y-2567498D02*
X2269747D01*
X2271082Y-2566163D01*
X2085000Y-2568832D02*
X2086335Y-2567498D01*
X1649211Y-6027013D02*
Y-5535837D01*
X1592554Y-5479180D02*
X1649211Y-5535837D01*
X2310161Y-5238593D02*
X2397064D01*
X2309070Y-5239684D02*
X2310161Y-5238593D01*
X3933328Y-6798308D02*
X3957633Y-6774002D01*
X3930828Y-6800808D02*
X3957633Y-6774002D01*
Y-6599003D01*
X3930828Y-6978308D02*
Y-6800808D01*
X3750828Y-6798308D02*
X3933328D01*
X7177649Y-6289407D02*
X7237364Y-6229692D01*
X7053874Y-6289407D02*
X7177649D01*
X7237364Y-6229692D02*
Y-6128094D01*
X6669547Y-5905079D02*
X7053874Y-6289407D01*
X6788514Y-5829101D02*
Y-5735824D01*
X6787786Y-5735096D02*
X6788514Y-5735824D01*
X5663449Y-5905079D02*
X6669547D01*
X5536077Y-5777707D02*
X5663449Y-5905079D01*
X7098901Y-5441292D02*
X7100539Y-5439654D01*
Y-5306381D01*
X6971084Y-5440474D02*
X6971901Y-5441292D01*
X6971084Y-5440474D02*
Y-5303826D01*
X6971901Y-5441292D02*
X7098901D01*
X6788514Y-5829101D02*
X6789242Y-5829829D01*
X6989214Y-6035939D02*
Y-6033233D01*
X6971545Y-5909648D02*
X6982902Y-5921005D01*
Y-6026920D02*
Y-5921005D01*
Y-6026920D02*
X6989214Y-6033233D01*
X7237364Y-6128094D02*
X7354030Y-6011427D01*
Y-5910420D01*
X7352901Y-5909292D02*
X7354030Y-5910420D01*
X7344607Y-5917586D02*
X7352901Y-5909292D01*
X6982902Y-6023632D02*
X7087364Y-6128094D01*
X2302295Y-6096787D02*
X2302652Y-6097145D01*
X2392798D01*
X2393155Y-6097502D01*
X2051050Y-5854319D02*
X2377828D01*
X2378511Y-5855002D01*
X2050368Y-5472636D02*
X2050789Y-5473058D01*
X2378089D02*
X2378511Y-5473480D01*
X2050789Y-5473058D02*
X2378089D01*
X1502292Y-5474561D02*
X1590641D01*
X1592554Y-5476474D01*
X1500368Y-5472636D02*
X1502292Y-5474561D01*
X1592554Y-5479180D02*
Y-5476474D01*
X1499789Y-6026435D02*
Y-5854215D01*
X1500368Y-5853636D01*
X5890188Y-3603924D02*
Y-3485288D01*
X8858606Y-5280000D02*
X8953680D01*
X8858072Y-5280535D02*
X8858606Y-5280000D01*
X9103680D02*
X9340000D01*
X1430208Y-8449792D02*
X1440921Y-8439078D01*
X1430208Y-8450302D02*
Y-8449792D01*
X1440921Y-8439078D02*
Y-8354805D01*
X1276046Y-8738087D02*
X1393087D01*
X1395000Y-8740000D01*
X5523131Y-7331817D02*
X5714412D01*
X5722427Y-7323802D01*
X6558130Y-7335805D02*
X6570133Y-7323802D01*
X5722427D02*
X5725133D01*
X6558130Y-7356818D02*
Y-7335805D01*
X5498130Y-7356818D02*
X5523131Y-7331817D01*
X5490189Y-4605922D02*
X5720188D01*
X5250188Y-4795922D02*
X5270188Y-4775922D01*
X5490189D01*
X6210189Y-4945923D02*
X6550189Y-4605922D01*
X4970189Y-4795922D02*
X5140189D01*
X5545133Y-6839002D02*
X5622633D01*
X5289818Y-7526818D02*
X5498130D01*
X4960133Y-7546502D02*
X5140133D01*
X5890133Y-6486502D02*
Y-6356502D01*
X5890133Y-6216502D02*
X5890133Y-6216503D01*
X5890133Y-6486502D02*
X5890133Y-6486502D01*
Y-6356502D02*
X6120133D01*
X5890133D02*
Y-6216503D01*
X5270133Y-7546502D02*
X5289818Y-7526818D01*
X5140133Y-7546502D02*
X5270133D01*
X3950188Y-4195923D02*
Y-4025924D01*
X3950189Y-4025922D01*
X3770188D02*
X3950189D01*
X3950188Y-4025921D02*
X3950189Y-4025922D01*
X3950188Y-4025921D02*
Y-3855922D01*
X5888189Y-3605922D02*
X5890188Y-3607921D01*
X5888189Y-3605922D02*
X5890188Y-3603924D01*
Y-3745922D02*
Y-3607921D01*
X5888189Y-3605922D02*
X6120188D01*
X5140189Y-4795922D02*
X5250188D01*
X9549581Y-6105443D02*
X9550893Y-6106755D01*
X7833235Y-2636379D02*
Y-2344258D01*
X7834020Y-2343474D01*
X7832450Y-2637164D02*
X7833235Y-2636379D01*
X9103680Y-5490000D02*
X9340000D01*
X9103461Y-5696042D02*
X9340000D01*
X9103461Y-5696364D02*
Y-5696042D01*
X9103680Y-5900000D02*
X9340000D01*
X9103680Y-5901036D02*
Y-5900000D01*
X9339581Y-6105443D02*
X9340000D01*
X9103680D02*
X9339581D01*
X9103680Y-6106794D02*
Y-6105443D01*
X9337981Y-6313844D02*
X9342981Y-6318844D01*
X9337981Y-6313844D02*
X9340000D01*
X9103680D02*
X9337981D01*
X9103680Y-6320321D02*
Y-6313844D01*
X9339267Y-6520930D02*
X9346767Y-6528430D01*
X9339267Y-6520930D02*
X9340000D01*
X9103680D02*
X9339267D01*
X9103680D02*
Y-6520697D01*
X9560123Y-5697313D02*
X9647233D01*
X9550000Y-5900000D02*
X9550325Y-5900324D01*
X9649420D01*
X9649744Y-5900649D01*
X9648432Y-6106755D02*
X9649744Y-6108067D01*
X9550893Y-6106755D02*
X9648432D01*
X9336352Y-6108673D02*
X9339581Y-6105443D01*
X9550000Y-5490000D02*
X9645000D01*
X9550000Y-5280000D02*
X9645000D01*
X6300000Y-3030000D02*
Y-2920000D01*
X4906962Y-3040000D02*
X5000000D01*
X3536250Y-3035000D02*
X3635000D01*
X930921Y-8439078D02*
Y-8354805D01*
X931843Y-8353884D01*
X930000Y-8440000D02*
X930921Y-8439078D01*
X900062Y-7480284D02*
X998745D01*
X2397064Y-5238593D02*
X2398155Y-5237502D01*
X2588333Y-5473302D02*
Y-5237680D01*
X2585833Y-6094824D02*
Y-5857680D01*
X2583155Y-6097502D02*
X2585833Y-6094824D01*
X2588155Y-5237502D02*
X2588333Y-5237680D01*
Y-5473302D02*
X2588511Y-5473480D01*
X2585833Y-5857680D02*
X2588511Y-5855002D01*
X7742451Y-2787164D02*
X7832450D01*
X181913Y-3271913D02*
X274413D01*
X277500Y-3275000D01*
X180000Y-3270000D02*
X181913Y-3271913D01*
X277500Y-3275000D02*
Y-3237501D01*
X1440000Y-6930000D02*
X1440921Y-6930922D01*
Y-7012963D02*
Y-6930922D01*
Y-7012963D02*
X1441843Y-7013884D01*
X467500Y-3275000D02*
Y-3075000D01*
Y-2980000D01*
X462500Y-2975000D02*
X467500Y-2980000D01*
X462500Y-2975000D02*
Y-2848832D01*
X461000Y-2847332D02*
X462500Y-2848832D01*
X317345Y-3075155D02*
X317500Y-3075000D01*
Y-3000000D02*
X332500Y-2985000D01*
X317500Y-3075000D02*
Y-3000000D01*
X334000Y-2847332D02*
X334100Y-2847232D01*
X332500Y-2985000D02*
Y-2848833D01*
X334000Y-2847332D01*
X767500Y-3752500D02*
Y-3642500D01*
X-322500Y-665000D02*
X-321250Y-666250D01*
X-226250D02*
X-225000Y-667500D01*
X-321250Y-666250D02*
X-226250D01*
X277499Y-3237500D02*
Y-3200556D01*
Y-3237500D02*
X277500Y-3237501D01*
X277499Y-3200556D02*
X317345Y-3160710D01*
Y-3075155D01*
X1271843Y-8733884D02*
X1276046Y-8738087D01*
X1047959Y-8570000D02*
X1051843Y-8573884D01*
X930000Y-8570000D02*
X1047959D01*
X320000Y-8700000D02*
Y-8620000D01*
X500000Y-8700000D02*
Y-8620000D01*
X-300000Y-8430000D02*
X-200000D01*
X334050Y-1287583D02*
X334100Y-1287633D01*
X334000Y-1147332D02*
X334050Y-1147382D01*
Y-1287583D02*
Y-1147382D01*
X334100Y-2847232D02*
Y-2707633D01*
D44*
X6199379Y-8895619D02*
X6264107D01*
X6264402Y-8895914D01*
X6199084D02*
X6199379Y-8895619D01*
X2632155Y-8511660D02*
Y-8442401D01*
X2632593Y-8441962D01*
X2631716Y-8512099D02*
X2632155Y-8511660D01*
X2530001Y-8473400D02*
X2568699Y-8512099D01*
X2631716D01*
X2781286Y-8511669D02*
Y-8441183D01*
Y-8511669D02*
X2781716Y-8512099D01*
X2780856Y-8440753D02*
X2781286Y-8441183D01*
X7571116Y-5904366D02*
X7571536Y-5903947D01*
X7489819Y-5904366D02*
X7571116D01*
X7489399Y-5904786D02*
X7489819Y-5904366D01*
X1626881Y-514169D02*
X1728413D01*
X1728488Y-514094D01*
X1626807Y-514244D02*
X1626881Y-514169D01*
X2083522Y-515098D02*
X2084525Y-516101D01*
X1984073Y-514094D02*
X1985076Y-515098D01*
X2083522D01*
X8953174Y-5490506D02*
X8953680Y-5490000D01*
X8859494Y-5490506D02*
X8953174D01*
X6553500Y-8895325D02*
X6553832Y-8895657D01*
X6652730D01*
X3077500Y-2837500D02*
X3078555Y-2836445D01*
X3174728D01*
X3175783Y-2835389D01*
X4369415Y-2838247D02*
X4369789Y-2837874D01*
X4472074D01*
X8087629Y-2623733D02*
X8088020Y-2623342D01*
X6532500Y-875000D02*
X6577500D01*
X6079332Y-421833D02*
X6532500Y-875000D01*
X5740981Y-421833D02*
X6079332D01*
X5685000Y-365852D02*
Y-295000D01*
X5670000Y-280000D02*
X5685000Y-295000D01*
Y-365852D02*
X5740981Y-421833D01*
X6016283Y-280000D02*
X6017542Y-278741D01*
X5820000Y-280000D02*
X6016283D01*
X5792500Y5000D02*
X5939812Y-142312D01*
X6180845D02*
X6227542Y-189009D01*
X5939812Y-142312D02*
X6180845D01*
X6227542Y-278741D02*
Y-189009D01*
X5005778Y-19721D02*
X5030500Y5000D01*
X4843339Y-282439D02*
X5005778Y-120000D01*
Y-19721D01*
X3445538Y-210366D02*
X3455131D01*
X3472705Y-227940D01*
X3407862Y-175397D02*
X3410568D01*
X3445538Y-210366D01*
X3472705Y-278583D02*
Y-227940D01*
Y-278583D02*
X3475210Y-281088D01*
X5777500Y-2837500D02*
X5780000Y-2840000D01*
X5900000D01*
X4901961Y-3035000D02*
X4906962Y-3040000D01*
X4472074Y-2837874D02*
X4472447Y-2837501D01*
D45*
X515572Y-665867D02*
X601332D01*
X514705Y-665000D02*
X515572Y-665867D01*
X601332D02*
X602199Y-666734D01*
X515000Y-6775000D02*
X516584Y-6776584D01*
X575844D01*
X317500Y-665000D02*
X514705D01*
X137500D02*
X317500D01*
X1073755Y-1345347D02*
X1907721D01*
X1985000Y-1268067D02*
Y-1147332D01*
X1907721Y-1345347D02*
X1985000Y-1268067D01*
X364000Y-3752000D02*
X617000D01*
X617500Y-3752500D01*
X8090129Y-2838733D02*
Y-2776233D01*
X8087629Y-2773733D02*
X8090129Y-2776233D01*
X1373193Y-7912534D02*
X1433727Y-7852000D01*
X1373193Y-7996807D02*
Y-7912534D01*
X1214116Y-8155884D02*
X1373193Y-7996807D01*
X1179843Y-8155884D02*
X1214116D01*
X137500Y-665000D02*
X137500Y-665000D01*
X354000Y-7046000D02*
X365000Y-7035000D01*
Y-6775000D01*
X1433727Y-7852000D02*
X1588001D01*
X1145462Y-8694107D02*
X1161864Y-8677705D01*
Y-8459459D01*
X1091620Y-8694107D02*
X1145462D01*
X1107843Y-8405438D02*
Y-8379884D01*
Y-8405438D02*
X1161864Y-8459459D01*
X1081843Y-8353884D02*
Y-8253884D01*
X1179843Y-8155884D01*
D46*
X7352201Y-5572158D02*
Y-5441992D01*
X7352901Y-5441292D01*
X7225901D02*
X7227895Y-5443285D01*
Y-5572158D02*
Y-5443285D01*
X7352901Y-5441292D02*
X7354083Y-5440110D01*
Y-5298020D01*
X7229776Y-5437417D02*
Y-5298020D01*
X7225901Y-5441292D02*
X7229776Y-5437417D01*
X7225901Y-5441292D02*
X7352901D01*
D47*
X1192338Y-7985162D02*
X1195000Y-7982500D01*
X1192338Y-8065340D02*
Y-7985162D01*
X1192175Y-8065503D02*
X1192338Y-8065340D01*
X1452263Y-7652000D02*
X1588001D01*
X1438765Y-7643102D02*
X1443365D01*
X1462168Y-7586602D02*
X1477566Y-7602000D01*
X1588001D01*
X1443365Y-7643102D02*
X1452263Y-7652000D01*
X1426602Y-7586602D02*
X1462168D01*
X1350000Y-7510000D02*
X1426602Y-7586602D01*
X1410000Y-7472041D02*
X1458500Y-7520541D01*
X1469377D01*
X1500836Y-7552000D02*
X1588001D01*
X1410000Y-7472041D02*
Y-7182041D01*
X1469377Y-7520541D02*
X1500836Y-7552000D01*
X2530001Y-8473400D02*
Y-8344000D01*
X1271843Y-8573884D02*
X1281843Y-8563884D01*
X1291843Y-8168157D02*
X1435000Y-8025000D01*
Y-7940000D01*
X1473000Y-7902000D01*
X1291843Y-8353884D02*
Y-8168157D01*
X1350000Y-7510000D02*
Y-7212041D01*
X1361843Y-7133884D02*
X1410000Y-7182041D01*
X1291843Y-7153884D02*
X1350000Y-7212041D01*
X513455Y-816250D02*
X514705Y-815000D01*
X513455Y-888750D02*
Y-816250D01*
X512205Y-889999D02*
X513455Y-888750D01*
X985000Y-8092500D02*
Y-8001267D01*
X988951Y-7997316D01*
X1473000Y-7902000D02*
X1588001D01*
X1271843Y-8573884D02*
Y-8485486D01*
X1291843Y-8465486D01*
Y-8353884D01*
X1051843Y-8733884D02*
X1091620Y-8694107D01*
X1081843Y-8353884D02*
X1107843Y-8379884D01*
X1291843Y-7013884D02*
X1361843Y-7083884D01*
Y-7133884D02*
Y-7083884D01*
X1051843Y-6783884D02*
X1061843Y-6793884D01*
Y-7013884D02*
Y-6793884D01*
Y-7013884D02*
X1201843Y-7153884D01*
X1291843D01*
X1291843Y-7013884D02*
Y-6793884D01*
X1301843Y-6783884D01*
D48*
X500000Y-8394167D02*
X505844Y-8388323D01*
X500000Y-8470000D02*
Y-8394167D01*
X505844Y-8388323D02*
Y-8384084D01*
X8773224Y-3430396D02*
Y-3430396D01*
X8908270Y-3295349D02*
Y-2540364D01*
X8677643Y-3525977D02*
X8773224Y-3430396D01*
Y-3430396D02*
X8908270Y-3295349D01*
X8623824Y-3525977D02*
X8677643D01*
X8623824Y-3775977D02*
Y-3525977D01*
X8850020Y-2482114D02*
X8908270Y-2540364D01*
X8850020Y-2482114D02*
Y-2343474D01*
X8623824Y-3025977D02*
Y-2775977D01*
X8596020Y-2748173D02*
Y-2343474D01*
Y-2748173D02*
X8623824Y-2775977D01*
X-87500Y-8292500D02*
Y-7452500D01*
X65000Y-7300000D02*
X100000D01*
X-87500Y-7452500D02*
X65000Y-7300000D01*
X-87500Y-8292500D02*
X50000Y-8430000D01*
X160000D01*
X220000D01*
X253221Y-8463220D01*
X313220D01*
X320000Y-8470000D01*
X500000D01*
D49*
X7453993Y-5636405D02*
Y-5563528D01*
X7556939Y-5460583D02*
X7571939D01*
X7453993Y-5563528D02*
X7556939Y-5460583D01*
X7426484Y-5663915D02*
X7453993Y-5636405D01*
X7094723Y-5905113D02*
Y-5783723D01*
X6975938Y-5664938D02*
X7094723Y-5783723D01*
X6869702Y-5664938D02*
X6975938D01*
X7094723Y-5905113D02*
X7098901Y-5909292D01*
X6787786Y-5583733D02*
X6847786Y-5643733D01*
X6848497D01*
X6869702Y-5664938D01*
X317500Y-884574D02*
Y-815000D01*
X1190000Y-7982500D02*
X1192500Y-7980000D01*
X1297500Y-7937500D02*
Y-7890000D01*
X1348758Y-7838742D01*
X1252500Y-7982500D02*
X1297500Y-7937500D01*
X1192500Y-7980000D02*
X1195000Y-7982500D01*
X1252500D01*
X988951Y-7997316D02*
X991635Y-8000000D01*
X1130000Y-7982500D02*
X1190000D01*
X1112500Y-8000000D02*
X1130000Y-7982500D01*
X991635Y-8000000D02*
X1112500D01*
D50*
X570399Y-5649115D02*
Y-5609586D01*
X586985Y-5593000D02*
X684000D01*
X570399Y-5609586D02*
X586985Y-5593000D01*
X618858Y-5697574D02*
X829895D01*
X570399Y-5649115D02*
X618858Y-5697574D01*
X430000Y-5720000D02*
X585117D01*
X602407Y-5737290D01*
X846346D01*
X1105000Y-5733000D02*
X1130000Y-5758000D01*
X994858Y-5682858D02*
X1070000Y-5758000D01*
X900777Y-5682858D02*
X994858D01*
X1070000Y-5758000D02*
X1100000D01*
X884327Y-5643142D02*
X994858D01*
X1070000Y-5568000D02*
X1100000D01*
X994858Y-5643142D02*
X1070000Y-5568000D01*
X846346Y-5737290D02*
X900777Y-5682858D01*
X829895Y-5697574D02*
X884327Y-5643142D01*
X1130000Y-5758000D02*
X1205006Y-5682994D01*
X1100000Y-5758000D02*
X1130000D01*
X1205006Y-5682994D02*
X1378525D01*
X1205278Y-5643279D02*
X1362074D01*
X1100000Y-5568000D02*
X1130000D01*
X1205278Y-5643279D01*
X1450225Y-5696494D02*
X1480368Y-5726636D01*
X1500368D01*
X1450225Y-5696494D02*
Y-5694544D01*
X1438676Y-5682994D02*
X1450225Y-5694544D01*
X1362074Y-5643278D02*
X1438676D01*
X1450225Y-5631729D01*
Y-5629778D02*
X1480368Y-5599636D01*
X1450225Y-5631729D02*
Y-5629778D01*
X1378525Y-5682994D02*
X1378525Y-5682994D01*
X1438676D01*
X1362074Y-5643279D02*
X1362074Y-5643278D01*
X1480368Y-5599636D02*
X1500368D01*
D51*
X4801961Y-2765000D02*
X4937702Y-2629259D01*
Y-2562500D01*
X4987702Y-2512500D02*
X5022702D01*
X4801961Y-2795000D02*
Y-2765000D01*
X4937702Y-2562500D02*
X4987702Y-2512500D01*
X5022702D02*
Y-2314798D01*
X5192500Y-2145000D01*
X3436250Y-2765000D02*
X3466250D01*
X3568272Y-2662978D01*
Y-2562500D02*
X3618272Y-2512500D01*
X3568272Y-2662978D02*
Y-2562500D01*
X3436250Y-2795000D02*
Y-2765000D01*
X3618272Y-2512500D02*
X3642500D01*
X6200000Y-2770000D02*
X6329542Y-2640458D01*
Y-2562500D02*
X6379542Y-2512500D01*
X6200000Y-2800000D02*
Y-2770000D01*
X6329542Y-2640458D02*
Y-2562500D01*
X6379542Y-2512500D02*
X6414542D01*
Y-2307958D01*
X6577500Y-2145000D01*
X3642500Y-2512500D02*
Y-2320000D01*
X3822500Y-2140000D01*
D52*
X1385500Y-7802000D02*
X1588001D01*
X1348758Y-7838742D02*
X1385500Y-7802000D01*
D53*
X9300000Y-9300000D02*
D03*
Y0D02*
D03*
X0D02*
D03*
Y-9300000D02*
D03*
D54*
X4080000Y-6122000D02*
D03*
X4334000D02*
D03*
X3197580Y-8000386D02*
D03*
Y-7746386D02*
D03*
Y-7492386D02*
D03*
Y-7238386D02*
D03*
Y-6984386D02*
D03*
X2235500Y-9297500D02*
D03*
X8331500D02*
D03*
X8077500D02*
D03*
X7823500D02*
D03*
X7569500D02*
D03*
X7315500D02*
D03*
X7061500D02*
D03*
X6807500D02*
D03*
X6553500D02*
D03*
X6299500D02*
D03*
X6045500D02*
D03*
X5791500D02*
D03*
X5537500D02*
D03*
X5283500D02*
D03*
X5029500D02*
D03*
X4775500D02*
D03*
X4521500D02*
D03*
X4267500D02*
D03*
X4013500D02*
D03*
X3759500D02*
D03*
X3505500D02*
D03*
X3251500D02*
D03*
X2997500D02*
D03*
X2743500D02*
D03*
X2489500D02*
D03*
X1981500D02*
D03*
X1727500D02*
D03*
X1473500D02*
D03*
X1219500D02*
D03*
X2236500Y5000D02*
D03*
X8332500D02*
D03*
X8078500D02*
D03*
X7824500D02*
D03*
X7570500D02*
D03*
X7316500D02*
D03*
X7062500D02*
D03*
X6808500D02*
D03*
X6554500D02*
D03*
X6300500D02*
D03*
X6046500D02*
D03*
X5792500D02*
D03*
X5538500D02*
D03*
X5284500D02*
D03*
X5030500D02*
D03*
X4776500D02*
D03*
X4522500D02*
D03*
X4268500D02*
D03*
X4014500D02*
D03*
X3760500D02*
D03*
X3506500D02*
D03*
X3252500D02*
D03*
X2998500D02*
D03*
X2744500D02*
D03*
X2490500D02*
D03*
X1982500D02*
D03*
X1728500D02*
D03*
X1474500D02*
D03*
X1220500D02*
D03*
X1432772Y-4371255D02*
D03*
Y-4117255D02*
D03*
Y-3863255D02*
D03*
Y-3609255D02*
D03*
Y-3355255D02*
D03*
D55*
X4588000Y-6122000D02*
D03*
X965500Y-9297500D02*
D03*
X966500Y5000D02*
D03*
D56*
X1859160Y-8814302D02*
D03*
X2119160Y-8811802D02*
D03*
X1996660Y-6124302D02*
D03*
X9450000Y-4800000D02*
D03*
Y-4300000D02*
D03*
D57*
X3197580Y-8254386D02*
D03*
X1432772Y-4625255D02*
D03*
D58*
X-200000Y-6232000D02*
D03*
Y-5089000D02*
D03*
D59*
X684000Y-5339000D02*
D03*
Y-6101000D02*
D03*
Y-5847000D02*
D03*
Y-5593000D02*
D03*
X420000Y-5974000D02*
D03*
X430000Y-5720000D02*
D03*
Y-5466000D02*
D03*
X8452540Y-7428042D02*
D03*
Y-7678042D02*
D03*
Y-7878042D02*
D03*
Y-8128042D02*
D03*
D60*
X430000Y-5212000D02*
D03*
D61*
X6577500Y-875000D02*
D03*
X5817500Y-621000D02*
D03*
X5192500Y-875000D02*
D03*
X4432500Y-621000D02*
D03*
X3822500Y-870000D02*
D03*
X3062500Y-616000D02*
D03*
D62*
X6577500Y-2145000D02*
D03*
X5817500D02*
D03*
X5192500D02*
D03*
X4432500D02*
D03*
X3822500Y-2140000D02*
D03*
X3062500D02*
D03*
D63*
X8723540Y-7121042D02*
D03*
Y-8435042D02*
D03*
D64*
X364000Y-4260000D02*
D03*
X110000D02*
D03*
Y-4006000D02*
D03*
Y-3752000D02*
D03*
X364000D02*
D03*
Y-4006000D02*
D03*
X354000Y-7300000D02*
D03*
Y-7046000D02*
D03*
X100000D02*
D03*
Y-7300000D02*
D03*
Y-7554000D02*
D03*
X354000D02*
D03*
D65*
X7834020Y-2343474D02*
D03*
D66*
X8088020D02*
D03*
X8342020D02*
D03*
X8596020D02*
D03*
X8850020D02*
D03*
X9104020D02*
D03*
X9358020D02*
D03*
X9612020D02*
D03*
X7834020Y-540074D02*
D03*
X8088020D02*
D03*
X8342020D02*
D03*
X8596020D02*
D03*
X8850020D02*
D03*
X9104020D02*
D03*
X9358020D02*
D03*
X9612020D02*
D03*
D67*
X9123824Y-3275977D02*
D03*
D68*
X8623824Y-3775977D02*
D03*
Y-3525977D02*
D03*
Y-3025977D02*
D03*
Y-2775977D02*
D03*
D69*
Y-3275977D02*
D03*
X9123824Y-3775977D02*
D03*
Y-2775977D02*
D03*
X9373824D02*
D03*
Y-3775977D02*
D03*
D70*
X6199084Y-8895914D02*
D03*
X602199Y-666734D02*
D03*
X2535249Y-7730378D02*
D03*
X2137438Y-5729931D02*
D03*
X1655124Y-967248D02*
D03*
X505844Y-8384084D02*
D03*
X575844Y-6776584D02*
D03*
X2116588Y-7343566D02*
D03*
X2647700Y-7061059D02*
D03*
X1760200Y-7330000D02*
D03*
X1887367Y-7067279D02*
D03*
X2355400Y-7331426D02*
D03*
X2360335Y-7063349D02*
D03*
X2475199Y-7060290D02*
D03*
X1909840Y-7336384D02*
D03*
X2015239Y-7335143D02*
D03*
X2286758Y-7018463D02*
D03*
X1762700Y-7070000D02*
D03*
X1827500Y-7332500D02*
D03*
X2001401Y-7067978D02*
D03*
X2120602Y-7065774D02*
D03*
X2230001Y-7060000D02*
D03*
X1438765Y-7643102D02*
D03*
X1847150Y-7728887D02*
D03*
X2471191Y-7547647D02*
D03*
X2904055Y-7863309D02*
D03*
X2819293Y-8205365D02*
D03*
X2076990Y-8537110D02*
D03*
X1916676Y-8143486D02*
D03*
X1743921Y-8168375D02*
D03*
X1767025Y-8103769D02*
D03*
X7489399Y-5904786D02*
D03*
X2307722Y-6820200D02*
D03*
X1073755Y-1345347D02*
D03*
X713440Y-1276698D02*
D03*
X839929Y-1005141D02*
D03*
X1018445Y-3080454D02*
D03*
X1906272Y-7676321D02*
D03*
X1980557Y-5476131D02*
D03*
X1626807Y-514244D02*
D03*
X2084525Y-516101D02*
D03*
X1793067Y-8488494D02*
D03*
X7909709Y-7873169D02*
D03*
X2052256Y-5924472D02*
D03*
X3165849Y-3416740D02*
D03*
X1880546Y-8489755D02*
D03*
X8090129Y-2838733D02*
D03*
X3223010Y-3489518D02*
D03*
X2824999Y-7386020D02*
D03*
X2859533Y-7554034D02*
D03*
X2864949Y-7628554D02*
D03*
X1966864Y-8493588D02*
D03*
X2027300Y-8458134D02*
D03*
X1945000Y-8207500D02*
D03*
X2864752Y-8137700D02*
D03*
X1780339Y-7779351D02*
D03*
X1390000Y-8210000D02*
D03*
X6652730Y-8895657D02*
D03*
X7453353Y-7556831D02*
D03*
X3175783Y-2835389D02*
D03*
X4369415Y-2838247D02*
D03*
X2465400Y-7630000D02*
D03*
X3344421Y-2921250D02*
D03*
X3156708Y-3301329D02*
D03*
X3132490Y-3214217D02*
D03*
X1767500Y-7972500D02*
D03*
X1539824Y-911493D02*
D03*
X3407862Y-175397D02*
D03*
X6100000Y-2920000D02*
D03*
X5777500Y-2837500D02*
D03*
X4700000Y-2920000D02*
D03*
X1720000Y-8054700D02*
D03*
X2595000Y-7950000D02*
D03*
D71*
X1409565Y-6028039D02*
D03*
X7352201Y-5572158D02*
D03*
X7227895D02*
D03*
X6971935D02*
D03*
X7099688D02*
D03*
X909240Y-6927907D02*
D03*
X1192175Y-8065503D02*
D03*
X869425Y-7811084D02*
D03*
X467927Y-3391255D02*
D03*
X5634231Y-4074962D02*
D03*
X8858072Y-5697479D02*
D03*
Y-5900636D02*
D03*
Y-6104877D02*
D03*
Y-6314192D02*
D03*
Y-6520970D02*
D03*
X1192621Y-7403739D02*
D03*
X2632593Y-8441962D02*
D03*
X2780856Y-8440753D02*
D03*
X7738006Y-5537856D02*
D03*
X2271082Y-2566163D02*
D03*
X2309070Y-5239684D02*
D03*
X3957633Y-6599003D02*
D03*
X3930828Y-6978308D02*
D03*
X3750828Y-6798308D02*
D03*
X7100539Y-5298020D02*
D03*
X6971084D02*
D03*
X6789242Y-5829829D02*
D03*
X6989214Y-6035939D02*
D03*
X7354083Y-5298020D02*
D03*
X7229776D02*
D03*
X8858072Y-5490506D02*
D03*
X2302295Y-6096787D02*
D03*
X1592554Y-5476474D02*
D03*
X5890188Y-3485288D02*
D03*
X8858072Y-5280535D02*
D03*
X6890188Y-4165922D02*
D03*
X1430208Y-8450302D02*
D03*
X5436462Y-8532609D02*
D03*
X5350133Y-8509202D02*
D03*
X5524469D02*
D03*
X1395000Y-8740000D02*
D03*
X5880133Y-8489202D02*
D03*
X6270133Y-7323802D02*
D03*
X5725133D02*
D03*
X6570133D02*
D03*
X6870133D02*
D03*
X6050133Y-8356502D02*
D03*
X9647233Y-5697313D02*
D03*
X9649744Y-5900649D02*
D03*
Y-6108067D02*
D03*
X9645000Y-5490000D02*
D03*
X9645000Y-5280000D02*
D03*
X6300000Y-2920000D02*
D03*
X5000000Y-3040000D02*
D03*
X6570188Y-4605922D02*
D03*
Y-4165922D02*
D03*
X6890188Y-5065922D02*
D03*
Y-4605922D02*
D03*
X5390187Y-3730922D02*
D03*
X5540187D02*
D03*
X5720188Y-4605922D02*
D03*
X5890188Y-3745922D02*
D03*
X5895187Y-5760922D02*
D03*
Y-5460923D02*
D03*
X6065187Y-5620922D02*
D03*
X6120188Y-3605922D02*
D03*
X6220188Y-5065922D02*
D03*
Y-4165922D02*
D03*
Y-4605922D02*
D03*
X6570188Y-5065922D02*
D03*
X5294189Y-5735922D02*
D03*
X3770188Y-4025922D02*
D03*
X3950188Y-3855922D02*
D03*
Y-4195923D02*
D03*
X5295187Y-5520922D02*
D03*
X5125187Y-5610922D02*
D03*
X5135187Y-5030923D02*
D03*
X5240187Y-3730922D02*
D03*
X3635000Y-3035000D02*
D03*
X930000Y-8440000D02*
D03*
X900062Y-7480284D02*
D03*
X5622633Y-6839002D02*
D03*
X6870133Y-6946502D02*
D03*
X6570133D02*
D03*
X6270133D02*
D03*
X5140133Y-7789202D02*
D03*
X5880133Y-8256502D02*
D03*
X5545133Y-6496502D02*
D03*
X5395133D02*
D03*
X5245133D02*
D03*
X6870133Y-7796502D02*
D03*
X6270133D02*
D03*
X7742451Y-2787164D02*
D03*
X180000Y-3270000D02*
D03*
X1440000Y-6930000D02*
D03*
X6120133Y-6356502D02*
D03*
X5890133Y-6216502D02*
D03*
Y-6486502D02*
D03*
X6570133Y-7796502D02*
D03*
X317926Y-885000D02*
D03*
X767500Y-3642500D02*
D03*
X-225000Y-667500D02*
D03*
X512205Y-889999D02*
D03*
X985000Y-8092500D02*
D03*
X930000Y-8570000D02*
D03*
X500000Y-8700000D02*
D03*
X320000D02*
D03*
X-200000Y-8430000D02*
D03*
X904100Y-2277633D02*
D03*
Y-1917633D02*
D03*
X334100Y-1287633D02*
D03*
X904100Y-2097633D02*
D03*
X334100Y-2707633D02*
D03*
X1264100Y-2277633D02*
D03*
Y-2097633D02*
D03*
Y-1917633D02*
D03*
X1084100D02*
D03*
Y-2277633D02*
D03*
Y-2097633D02*
D03*
D72*
X7280384Y-7808457D02*
D03*
X7936742Y-4852877D02*
D03*
X7677192Y-4665332D02*
D03*
X7678507Y-5025739D02*
D03*
%TF.MD5,c04b2890519af56cc4803951e49ab56f*%
M02*
