%TF.GenerationSoftware,Altium Limited,Altium Designer,21.8.1 (53)*%
G04 Layer_Physical_Order=2*
G04 Layer_Color=36540*
%FSLAX45Y45*%
%MOMM*%
%TF.SameCoordinates,BA403207-4E74-424F-88DB-B819054AD5B4*%
%TF.FilePolarity,Positive*%
%TF.FileFunction,Copper,L2,Inr,Signal*%
%TF.Part,Single*%
G01*
G75*
%TA.AperFunction,ViaPad*%
%ADD53C,6.00000*%
%TA.AperFunction,ComponentPad*%
%ADD54C,1.60000*%
%ADD55R,1.60000X1.60000*%
%ADD56C,2.00000*%
%ADD57R,1.60000X1.60000*%
%ADD58C,1.52400*%
%ADD59C,1.50000*%
%ADD60R,1.50000X1.50000*%
%ADD61O,3.50000X2.60000*%
%ADD62C,2.20000*%
%ADD63C,3.00000*%
%ADD64C,1.80000*%
%ADD65R,1.30800X1.30800*%
%ADD66C,1.30800*%
%ADD67O,2.00000X4.00000*%
%ADD68O,4.00000X2.00000*%
%ADD69C,1.40000*%
%TA.AperFunction,ViaPad*%
%ADD70C,0.45000*%
%ADD71C,0.60000*%
%ADD72C,1.00000*%
G36*
X9750000Y-9790000D02*
X-450000D01*
Y-2933060D01*
X-445256Y-2929167D01*
X267174D01*
X274978Y-2927615D01*
X281594Y-2923194D01*
X286014Y-2916579D01*
X287566Y-2908775D01*
Y-1072423D01*
X286014Y-1064619D01*
X281594Y-1058004D01*
X274978Y-1053583D01*
X267174Y-1052031D01*
X-445256D01*
X-450000Y-1048138D01*
Y410000D01*
X9750000D01*
Y-9790000D01*
D02*
G37*
%LPC*%
G36*
X8345665Y105000D02*
X8319335D01*
X8293902Y98185D01*
X8271099Y85020D01*
X8252480Y66401D01*
X8239315Y43599D01*
X8232500Y18166D01*
Y-8165D01*
X8239315Y-33598D01*
X8252480Y-56401D01*
X8271099Y-75019D01*
X8293902Y-88185D01*
X8319335Y-95000D01*
X8345665D01*
X8371098Y-88185D01*
X8393901Y-75019D01*
X8412520Y-56401D01*
X8425685Y-33598D01*
X8432500Y-8165D01*
Y18166D01*
X8425685Y43599D01*
X8412520Y66401D01*
X8393901Y85020D01*
X8371098Y98185D01*
X8345665Y105000D01*
D02*
G37*
G36*
X8091665D02*
X8065335D01*
X8039902Y98185D01*
X8017099Y85020D01*
X7998480Y66401D01*
X7985315Y43599D01*
X7978500Y18166D01*
Y-8165D01*
X7985315Y-33598D01*
X7998480Y-56401D01*
X8017099Y-75019D01*
X8039902Y-88185D01*
X8065335Y-95000D01*
X8091665D01*
X8117098Y-88185D01*
X8139901Y-75019D01*
X8158520Y-56401D01*
X8171685Y-33598D01*
X8178500Y-8165D01*
Y18166D01*
X8171685Y43599D01*
X8158520Y66401D01*
X8139901Y85020D01*
X8117098Y98185D01*
X8091665Y105000D01*
D02*
G37*
G36*
X7837665D02*
X7811335D01*
X7785902Y98185D01*
X7763099Y85020D01*
X7744480Y66401D01*
X7731315Y43599D01*
X7724500Y18166D01*
Y-8165D01*
X7731315Y-33598D01*
X7744480Y-56401D01*
X7763099Y-75019D01*
X7785902Y-88185D01*
X7811335Y-95000D01*
X7837665D01*
X7863098Y-88185D01*
X7885901Y-75019D01*
X7904520Y-56401D01*
X7917685Y-33598D01*
X7924500Y-8165D01*
Y18166D01*
X7917685Y43599D01*
X7904520Y66401D01*
X7885901Y85020D01*
X7863098Y98185D01*
X7837665Y105000D01*
D02*
G37*
G36*
X7583665D02*
X7557335D01*
X7531902Y98185D01*
X7509099Y85020D01*
X7490480Y66401D01*
X7477315Y43599D01*
X7470500Y18166D01*
Y-8165D01*
X7477315Y-33598D01*
X7490480Y-56401D01*
X7509099Y-75019D01*
X7531902Y-88185D01*
X7557335Y-95000D01*
X7583665D01*
X7609098Y-88185D01*
X7631901Y-75019D01*
X7650520Y-56401D01*
X7663685Y-33598D01*
X7670500Y-8165D01*
Y18166D01*
X7663685Y43599D01*
X7650520Y66401D01*
X7631901Y85020D01*
X7609098Y98185D01*
X7583665Y105000D01*
D02*
G37*
G36*
X7329665D02*
X7303335D01*
X7277902Y98185D01*
X7255099Y85020D01*
X7236480Y66401D01*
X7223315Y43599D01*
X7216500Y18166D01*
Y-8165D01*
X7223315Y-33598D01*
X7236480Y-56401D01*
X7255099Y-75019D01*
X7277902Y-88185D01*
X7303335Y-95000D01*
X7329665D01*
X7355098Y-88185D01*
X7377901Y-75019D01*
X7396520Y-56401D01*
X7409685Y-33598D01*
X7416500Y-8165D01*
Y18166D01*
X7409685Y43599D01*
X7396520Y66401D01*
X7377901Y85020D01*
X7355098Y98185D01*
X7329665Y105000D01*
D02*
G37*
G36*
X7075665D02*
X7049335D01*
X7023902Y98185D01*
X7001099Y85020D01*
X6982480Y66401D01*
X6969315Y43599D01*
X6962500Y18166D01*
Y-8165D01*
X6969315Y-33598D01*
X6982480Y-56401D01*
X7001099Y-75019D01*
X7023902Y-88185D01*
X7049335Y-95000D01*
X7075665D01*
X7101098Y-88185D01*
X7123901Y-75019D01*
X7142520Y-56401D01*
X7155685Y-33598D01*
X7162500Y-8165D01*
Y18166D01*
X7155685Y43599D01*
X7142520Y66401D01*
X7123901Y85020D01*
X7101098Y98185D01*
X7075665Y105000D01*
D02*
G37*
G36*
X6821665D02*
X6795335D01*
X6769902Y98185D01*
X6747099Y85020D01*
X6728480Y66401D01*
X6715315Y43599D01*
X6708500Y18166D01*
Y-8165D01*
X6715315Y-33598D01*
X6728480Y-56401D01*
X6747099Y-75019D01*
X6769902Y-88185D01*
X6795335Y-95000D01*
X6821665D01*
X6847098Y-88185D01*
X6869901Y-75019D01*
X6888520Y-56401D01*
X6901685Y-33598D01*
X6908500Y-8165D01*
Y18166D01*
X6901685Y43599D01*
X6888520Y66401D01*
X6869901Y85020D01*
X6847098Y98185D01*
X6821665Y105000D01*
D02*
G37*
G36*
X6567665D02*
X6541335D01*
X6515902Y98185D01*
X6493099Y85020D01*
X6474480Y66401D01*
X6461315Y43599D01*
X6454500Y18166D01*
Y-8165D01*
X6461315Y-33598D01*
X6474480Y-56401D01*
X6493099Y-75019D01*
X6515902Y-88185D01*
X6541335Y-95000D01*
X6567665D01*
X6593098Y-88185D01*
X6615901Y-75019D01*
X6634520Y-56401D01*
X6647685Y-33598D01*
X6654500Y-8165D01*
Y18166D01*
X6647685Y43599D01*
X6634520Y66401D01*
X6615901Y85020D01*
X6593098Y98185D01*
X6567665Y105000D01*
D02*
G37*
G36*
X6313665D02*
X6287335D01*
X6261902Y98185D01*
X6239099Y85020D01*
X6220480Y66401D01*
X6207315Y43599D01*
X6200500Y18166D01*
Y-8165D01*
X6207315Y-33598D01*
X6220480Y-56401D01*
X6239099Y-75019D01*
X6261902Y-88185D01*
X6287335Y-95000D01*
X6313665D01*
X6339098Y-88185D01*
X6361901Y-75019D01*
X6380520Y-56401D01*
X6393685Y-33598D01*
X6400500Y-8165D01*
Y18166D01*
X6393685Y43599D01*
X6380520Y66401D01*
X6361901Y85020D01*
X6339098Y98185D01*
X6313665Y105000D01*
D02*
G37*
G36*
X6059665D02*
X6033335D01*
X6007902Y98185D01*
X5985099Y85020D01*
X5966480Y66401D01*
X5953315Y43599D01*
X5946500Y18166D01*
Y-8165D01*
X5953315Y-33598D01*
X5966480Y-56401D01*
X5985099Y-75019D01*
X6007902Y-88185D01*
X6033335Y-95000D01*
X6059665D01*
X6085098Y-88185D01*
X6107901Y-75019D01*
X6126520Y-56401D01*
X6139685Y-33598D01*
X6146500Y-8165D01*
Y18166D01*
X6139685Y43599D01*
X6126520Y66401D01*
X6107901Y85020D01*
X6085098Y98185D01*
X6059665Y105000D01*
D02*
G37*
G36*
X4789665D02*
X4763335D01*
X4737902Y98185D01*
X4715099Y85020D01*
X4696480Y66401D01*
X4683315Y43599D01*
X4676500Y18166D01*
Y-8165D01*
X4683315Y-33598D01*
X4696480Y-56401D01*
X4715099Y-75019D01*
X4737902Y-88185D01*
X4763335Y-95000D01*
X4789665D01*
X4815098Y-88185D01*
X4837901Y-75019D01*
X4856520Y-56401D01*
X4869685Y-33598D01*
X4876500Y-8165D01*
Y18166D01*
X4869685Y43599D01*
X4856520Y66401D01*
X4837901Y85020D01*
X4815098Y98185D01*
X4789665Y105000D01*
D02*
G37*
G36*
X4535665D02*
X4509335D01*
X4483902Y98185D01*
X4461099Y85020D01*
X4442480Y66401D01*
X4429315Y43599D01*
X4422500Y18166D01*
Y-8165D01*
X4429315Y-33598D01*
X4442480Y-56401D01*
X4461099Y-75019D01*
X4483902Y-88185D01*
X4509335Y-95000D01*
X4535665D01*
X4561098Y-88185D01*
X4583901Y-75019D01*
X4602520Y-56401D01*
X4615685Y-33598D01*
X4622500Y-8165D01*
Y18166D01*
X4615685Y43599D01*
X4602520Y66401D01*
X4583901Y85020D01*
X4561098Y98185D01*
X4535665Y105000D01*
D02*
G37*
G36*
X4281665D02*
X4255335D01*
X4229902Y98185D01*
X4207099Y85020D01*
X4188480Y66401D01*
X4175315Y43599D01*
X4168500Y18166D01*
Y-8165D01*
X4175315Y-33598D01*
X4188480Y-56401D01*
X4207099Y-75019D01*
X4229902Y-88185D01*
X4255335Y-95000D01*
X4281665D01*
X4307098Y-88185D01*
X4329901Y-75019D01*
X4348520Y-56401D01*
X4361685Y-33598D01*
X4368500Y-8165D01*
Y18166D01*
X4361685Y43599D01*
X4348520Y66401D01*
X4329901Y85020D01*
X4307098Y98185D01*
X4281665Y105000D01*
D02*
G37*
G36*
X4027665D02*
X4001335D01*
X3975902Y98185D01*
X3953099Y85020D01*
X3934480Y66401D01*
X3921315Y43599D01*
X3914500Y18166D01*
Y-8165D01*
X3921315Y-33598D01*
X3934480Y-56401D01*
X3953099Y-75019D01*
X3975902Y-88185D01*
X4001335Y-95000D01*
X4027665D01*
X4053098Y-88185D01*
X4075901Y-75019D01*
X4094520Y-56401D01*
X4107685Y-33598D01*
X4114500Y-8165D01*
Y18166D01*
X4107685Y43599D01*
X4094520Y66401D01*
X4075901Y85020D01*
X4053098Y98185D01*
X4027665Y105000D01*
D02*
G37*
G36*
X3773665D02*
X3747335D01*
X3721902Y98185D01*
X3699099Y85020D01*
X3680480Y66401D01*
X3667315Y43599D01*
X3660500Y18166D01*
Y-8165D01*
X3667315Y-33598D01*
X3680480Y-56401D01*
X3699099Y-75019D01*
X3721902Y-88185D01*
X3747335Y-95000D01*
X3773665D01*
X3799098Y-88185D01*
X3821901Y-75019D01*
X3840520Y-56401D01*
X3853685Y-33598D01*
X3860500Y-8165D01*
Y18166D01*
X3853685Y43599D01*
X3840520Y66401D01*
X3821901Y85020D01*
X3799098Y98185D01*
X3773665Y105000D01*
D02*
G37*
G36*
X3519665D02*
X3493335D01*
X3467902Y98185D01*
X3445099Y85020D01*
X3426480Y66401D01*
X3413315Y43599D01*
X3406500Y18166D01*
Y-8165D01*
X3413315Y-33598D01*
X3426480Y-56401D01*
X3445099Y-75019D01*
X3467902Y-88185D01*
X3493335Y-95000D01*
X3519665D01*
X3545098Y-88185D01*
X3567901Y-75019D01*
X3586520Y-56401D01*
X3599685Y-33598D01*
X3606500Y-8165D01*
Y18166D01*
X3599685Y43599D01*
X3586520Y66401D01*
X3567901Y85020D01*
X3545098Y98185D01*
X3519665Y105000D01*
D02*
G37*
G36*
X3265665D02*
X3239335D01*
X3213902Y98185D01*
X3191099Y85020D01*
X3172480Y66401D01*
X3159315Y43599D01*
X3152500Y18166D01*
Y-8165D01*
X3159315Y-33598D01*
X3172480Y-56401D01*
X3191099Y-75019D01*
X3213902Y-88185D01*
X3239335Y-95000D01*
X3265665D01*
X3291098Y-88185D01*
X3313901Y-75019D01*
X3332520Y-56401D01*
X3345685Y-33598D01*
X3352500Y-8165D01*
Y18166D01*
X3345685Y43599D01*
X3332520Y66401D01*
X3313901Y85020D01*
X3291098Y98185D01*
X3265665Y105000D01*
D02*
G37*
G36*
X3011665D02*
X2985335D01*
X2959902Y98185D01*
X2937099Y85020D01*
X2918480Y66401D01*
X2905315Y43599D01*
X2898500Y18166D01*
Y-8165D01*
X2905315Y-33598D01*
X2918480Y-56401D01*
X2937099Y-75019D01*
X2959902Y-88185D01*
X2985335Y-95000D01*
X3011665D01*
X3037098Y-88185D01*
X3059901Y-75019D01*
X3078520Y-56401D01*
X3091685Y-33598D01*
X3098500Y-8165D01*
Y18166D01*
X3091685Y43599D01*
X3078520Y66401D01*
X3059901Y85020D01*
X3037098Y98185D01*
X3011665Y105000D01*
D02*
G37*
G36*
X2757665D02*
X2731335D01*
X2705902Y98185D01*
X2683099Y85020D01*
X2664480Y66401D01*
X2651315Y43599D01*
X2644500Y18166D01*
Y-8165D01*
X2651315Y-33598D01*
X2664480Y-56401D01*
X2683099Y-75019D01*
X2705902Y-88185D01*
X2731335Y-95000D01*
X2757665D01*
X2783098Y-88185D01*
X2805901Y-75019D01*
X2824520Y-56401D01*
X2837685Y-33598D01*
X2844500Y-8165D01*
Y18166D01*
X2837685Y43599D01*
X2824520Y66401D01*
X2805901Y85020D01*
X2783098Y98185D01*
X2757665Y105000D01*
D02*
G37*
G36*
X2503665D02*
X2477335D01*
X2451902Y98185D01*
X2429099Y85020D01*
X2410480Y66401D01*
X2397315Y43599D01*
X2390500Y18166D01*
Y-8165D01*
X2397315Y-33598D01*
X2410480Y-56401D01*
X2429099Y-75019D01*
X2451902Y-88185D01*
X2477335Y-95000D01*
X2503665D01*
X2529098Y-88185D01*
X2551901Y-75019D01*
X2570520Y-56401D01*
X2583685Y-33598D01*
X2590500Y-8165D01*
Y18166D01*
X2583685Y43599D01*
X2570520Y66401D01*
X2551901Y85020D01*
X2529098Y98185D01*
X2503665Y105000D01*
D02*
G37*
G36*
X2249665D02*
X2223335D01*
X2197902Y98185D01*
X2175099Y85020D01*
X2156480Y66401D01*
X2143315Y43599D01*
X2136500Y18166D01*
Y-8165D01*
X2143315Y-33598D01*
X2156480Y-56401D01*
X2175099Y-75019D01*
X2197902Y-88185D01*
X2223335Y-95000D01*
X2249665D01*
X2275098Y-88185D01*
X2297901Y-75019D01*
X2316520Y-56401D01*
X2329685Y-33598D01*
X2336500Y-8165D01*
Y18166D01*
X2329685Y43599D01*
X2316520Y66401D01*
X2297901Y85020D01*
X2275098Y98185D01*
X2249665Y105000D01*
D02*
G37*
G36*
X1995665D02*
X1969335D01*
X1943902Y98185D01*
X1921099Y85020D01*
X1902480Y66401D01*
X1889315Y43599D01*
X1882500Y18166D01*
Y-8165D01*
X1889315Y-33598D01*
X1902480Y-56401D01*
X1921099Y-75019D01*
X1943902Y-88185D01*
X1969335Y-95000D01*
X1995665D01*
X2021098Y-88185D01*
X2043901Y-75019D01*
X2062520Y-56401D01*
X2075685Y-33598D01*
X2082500Y-8165D01*
Y18166D01*
X2075685Y43599D01*
X2062520Y66401D01*
X2043901Y85020D01*
X2021098Y98185D01*
X1995665Y105000D01*
D02*
G37*
G36*
X1741665D02*
X1715335D01*
X1689902Y98185D01*
X1667099Y85020D01*
X1648480Y66401D01*
X1635315Y43599D01*
X1628500Y18166D01*
Y-8165D01*
X1635315Y-33598D01*
X1648480Y-56401D01*
X1667099Y-75019D01*
X1689902Y-88185D01*
X1715335Y-95000D01*
X1741665D01*
X1767098Y-88185D01*
X1789901Y-75019D01*
X1808520Y-56401D01*
X1821685Y-33598D01*
X1828500Y-8165D01*
Y18166D01*
X1821685Y43599D01*
X1808520Y66401D01*
X1789901Y85020D01*
X1767098Y98185D01*
X1741665Y105000D01*
D02*
G37*
G36*
X1487665D02*
X1461335D01*
X1435902Y98185D01*
X1413099Y85020D01*
X1394480Y66401D01*
X1381315Y43599D01*
X1374500Y18166D01*
Y-8165D01*
X1381315Y-33598D01*
X1394480Y-56401D01*
X1413099Y-75019D01*
X1435902Y-88185D01*
X1461335Y-95000D01*
X1487665D01*
X1513098Y-88185D01*
X1535901Y-75019D01*
X1554520Y-56401D01*
X1567685Y-33598D01*
X1574500Y-8165D01*
Y18166D01*
X1567685Y43599D01*
X1554520Y66401D01*
X1535901Y85020D01*
X1513098Y98185D01*
X1487665Y105000D01*
D02*
G37*
G36*
X1233665D02*
X1207335D01*
X1181902Y98185D01*
X1159099Y85020D01*
X1140480Y66401D01*
X1127315Y43599D01*
X1120500Y18166D01*
Y-8165D01*
X1127315Y-33598D01*
X1140480Y-56401D01*
X1159099Y-75019D01*
X1181902Y-88185D01*
X1207335Y-95000D01*
X1233665D01*
X1259098Y-88185D01*
X1281901Y-75019D01*
X1300520Y-56401D01*
X1313685Y-33598D01*
X1320500Y-8165D01*
Y18166D01*
X1313685Y43599D01*
X1300520Y66401D01*
X1281901Y85020D01*
X1259098Y98185D01*
X1233665Y105000D01*
D02*
G37*
G36*
X1066500D02*
X866500D01*
Y-95000D01*
X1066500D01*
Y105000D01*
D02*
G37*
G36*
X1635260Y-471744D02*
X1618353D01*
X1602733Y-478214D01*
X1590777Y-490170D01*
X1584307Y-505790D01*
Y-522697D01*
X1590777Y-538318D01*
X1602733Y-550273D01*
X1618353Y-556744D01*
X1635260D01*
X1650881Y-550273D01*
X1662836Y-538318D01*
X1669307Y-522697D01*
Y-505790D01*
X1662836Y-490170D01*
X1650881Y-478214D01*
X1635260Y-471744D01*
D02*
G37*
G36*
X2092979Y-473601D02*
X2076071D01*
X2060451Y-480071D01*
X2048495Y-492027D01*
X2042025Y-507647D01*
Y-524555D01*
X2048495Y-540175D01*
X2060451Y-552131D01*
X2076071Y-558601D01*
X2092979D01*
X2108599Y-552131D01*
X2120555Y-540175D01*
X2127025Y-524555D01*
Y-507647D01*
X2120555Y-492027D01*
X2108599Y-480071D01*
X2092979Y-473601D01*
D02*
G37*
G36*
X9623263Y-454674D02*
X9600777D01*
X9579057Y-460494D01*
X9559583Y-471737D01*
X9543683Y-487637D01*
X9532440Y-507110D01*
X9526620Y-528831D01*
Y-551317D01*
X9532440Y-573037D01*
X9543683Y-592510D01*
X9559583Y-608411D01*
X9579057Y-619654D01*
X9600777Y-625473D01*
X9623263D01*
X9644983Y-619654D01*
X9664457Y-608411D01*
X9680357Y-592510D01*
X9691600Y-573037D01*
X9697420Y-551317D01*
Y-528831D01*
X9691600Y-507110D01*
X9680357Y-487637D01*
X9664457Y-471737D01*
X9644983Y-460494D01*
X9623263Y-454674D01*
D02*
G37*
G36*
X9115263D02*
X9092777D01*
X9071057Y-460494D01*
X9051583Y-471737D01*
X9035683Y-487637D01*
X9024440Y-507110D01*
X9018620Y-528831D01*
Y-551317D01*
X9024440Y-573037D01*
X9035683Y-592510D01*
X9051583Y-608411D01*
X9071057Y-619654D01*
X9092777Y-625473D01*
X9115263D01*
X9136983Y-619654D01*
X9156457Y-608411D01*
X9172357Y-592510D01*
X9183600Y-573037D01*
X9189420Y-551317D01*
Y-528831D01*
X9183600Y-507110D01*
X9172357Y-487637D01*
X9156457Y-471737D01*
X9136983Y-460494D01*
X9115263Y-454674D01*
D02*
G37*
G36*
X8861263D02*
X8838777D01*
X8817057Y-460494D01*
X8797583Y-471737D01*
X8781683Y-487637D01*
X8770440Y-507110D01*
X8764620Y-528831D01*
Y-551317D01*
X8770440Y-573037D01*
X8781683Y-592510D01*
X8797583Y-608411D01*
X8817057Y-619654D01*
X8838777Y-625473D01*
X8861263D01*
X8882983Y-619654D01*
X8902457Y-608411D01*
X8918357Y-592510D01*
X8929600Y-573037D01*
X8935420Y-551317D01*
Y-528831D01*
X8929600Y-507110D01*
X8918357Y-487637D01*
X8902457Y-471737D01*
X8882983Y-460494D01*
X8861263Y-454674D01*
D02*
G37*
G36*
X8607263D02*
X8584777D01*
X8563057Y-460494D01*
X8543583Y-471737D01*
X8527683Y-487637D01*
X8516440Y-507110D01*
X8510620Y-528831D01*
Y-551317D01*
X8516440Y-573037D01*
X8527683Y-592510D01*
X8543583Y-608411D01*
X8563057Y-619654D01*
X8584777Y-625473D01*
X8607263D01*
X8628983Y-619654D01*
X8648457Y-608411D01*
X8664357Y-592510D01*
X8675600Y-573037D01*
X8681420Y-551317D01*
Y-528831D01*
X8675600Y-507110D01*
X8664357Y-487637D01*
X8648457Y-471737D01*
X8628983Y-460494D01*
X8607263Y-454674D01*
D02*
G37*
G36*
X8353263D02*
X8330777D01*
X8309057Y-460494D01*
X8289583Y-471737D01*
X8273683Y-487637D01*
X8262440Y-507110D01*
X8256620Y-528831D01*
Y-551317D01*
X8262440Y-573037D01*
X8273683Y-592510D01*
X8289583Y-608411D01*
X8309057Y-619654D01*
X8330777Y-625473D01*
X8353263D01*
X8374983Y-619654D01*
X8394457Y-608411D01*
X8410357Y-592510D01*
X8421600Y-573037D01*
X8427420Y-551317D01*
Y-528831D01*
X8421600Y-507110D01*
X8410357Y-487637D01*
X8394457Y-471737D01*
X8374983Y-460494D01*
X8353263Y-454674D01*
D02*
G37*
G36*
X8099263D02*
X8076777D01*
X8055057Y-460494D01*
X8035583Y-471737D01*
X8019683Y-487637D01*
X8008440Y-507110D01*
X8002620Y-528831D01*
Y-551317D01*
X8008440Y-573037D01*
X8019683Y-592510D01*
X8035583Y-608411D01*
X8055057Y-619654D01*
X8076777Y-625473D01*
X8099263D01*
X8120983Y-619654D01*
X8140457Y-608411D01*
X8156357Y-592510D01*
X8167600Y-573037D01*
X8173420Y-551317D01*
Y-528831D01*
X8167600Y-507110D01*
X8156357Y-487637D01*
X8140457Y-471737D01*
X8120983Y-460494D01*
X8099263Y-454674D01*
D02*
G37*
G36*
X7845263D02*
X7822777D01*
X7801057Y-460494D01*
X7781583Y-471737D01*
X7765683Y-487637D01*
X7754440Y-507110D01*
X7748620Y-528831D01*
Y-551317D01*
X7754440Y-573037D01*
X7765683Y-592510D01*
X7781583Y-608411D01*
X7801057Y-619654D01*
X7822777Y-625473D01*
X7845263D01*
X7866983Y-619654D01*
X7886457Y-608411D01*
X7902357Y-592510D01*
X7913600Y-573037D01*
X7919420Y-551317D01*
Y-528831D01*
X7913600Y-507110D01*
X7902357Y-487637D01*
X7886457Y-471737D01*
X7866983Y-460494D01*
X7845263Y-454674D01*
D02*
G37*
G36*
X610652Y-624234D02*
X593745D01*
X578125Y-630705D01*
X566169Y-642660D01*
X559699Y-658281D01*
Y-675188D01*
X566169Y-690808D01*
X578125Y-702764D01*
X593745Y-709234D01*
X610652D01*
X626273Y-702764D01*
X638228Y-690808D01*
X644698Y-675188D01*
Y-658281D01*
X638228Y-642660D01*
X626273Y-630705D01*
X610652Y-624234D01*
D02*
G37*
G36*
X3107500Y-465274D02*
X3017500D01*
X2988095Y-468171D01*
X2959820Y-476748D01*
X2933761Y-490676D01*
X2910921Y-509421D01*
X2892176Y-532261D01*
X2878247Y-558320D01*
X2869670Y-586595D01*
X2866774Y-616000D01*
X2869670Y-645405D01*
X2878247Y-673680D01*
X2892176Y-699739D01*
X2910921Y-722579D01*
X2933761Y-741324D01*
X2959820Y-755252D01*
X2988095Y-763830D01*
X3017500Y-766726D01*
X3107500D01*
X3136905Y-763830D01*
X3165180Y-755252D01*
X3191238Y-741324D01*
X3214079Y-722579D01*
X3232824Y-699739D01*
X3246752Y-673680D01*
X3255329Y-645405D01*
X3258225Y-616000D01*
X3255329Y-586595D01*
X3246752Y-558320D01*
X3232824Y-532261D01*
X3214079Y-509421D01*
X3191238Y-490676D01*
X3165180Y-476748D01*
X3136905Y-468171D01*
X3107500Y-465274D01*
D02*
G37*
G36*
X5862500Y-470274D02*
X5772500D01*
X5743095Y-473171D01*
X5714820Y-481748D01*
X5688761Y-495676D01*
X5665921Y-514421D01*
X5647176Y-537261D01*
X5633247Y-563320D01*
X5624670Y-591595D01*
X5621774Y-621000D01*
X5624670Y-650405D01*
X5633247Y-678680D01*
X5647176Y-704739D01*
X5665921Y-727579D01*
X5688761Y-746324D01*
X5714820Y-760252D01*
X5743095Y-768830D01*
X5772500Y-771726D01*
X5862500D01*
X5891905Y-768830D01*
X5920180Y-760252D01*
X5946238Y-746324D01*
X5969079Y-727579D01*
X5987823Y-704739D01*
X6001752Y-678680D01*
X6010329Y-650405D01*
X6013225Y-621000D01*
X6010329Y-591595D01*
X6001752Y-563320D01*
X5987823Y-537261D01*
X5969079Y-514421D01*
X5946238Y-495676D01*
X5920180Y-481748D01*
X5891905Y-473171D01*
X5862500Y-470274D01*
D02*
G37*
G36*
X4477500D02*
X4387500D01*
X4358095Y-473171D01*
X4329820Y-481748D01*
X4303761Y-495676D01*
X4280921Y-514421D01*
X4262176Y-537261D01*
X4248248Y-563320D01*
X4239670Y-591595D01*
X4236774Y-621000D01*
X4239670Y-650405D01*
X4248248Y-678680D01*
X4262176Y-704739D01*
X4280921Y-727579D01*
X4303761Y-746324D01*
X4329820Y-760252D01*
X4358095Y-768830D01*
X4387500Y-771726D01*
X4477500D01*
X4506905Y-768830D01*
X4535180Y-760252D01*
X4561239Y-746324D01*
X4584079Y-727579D01*
X4602824Y-704739D01*
X4616752Y-678680D01*
X4625329Y-650405D01*
X4628225Y-621000D01*
X4625329Y-591595D01*
X4616752Y-563320D01*
X4602824Y-537261D01*
X4584079Y-514421D01*
X4561239Y-495676D01*
X4535180Y-481748D01*
X4506905Y-473171D01*
X4477500Y-470274D01*
D02*
G37*
G36*
X327871Y-835000D02*
X307980D01*
X289603Y-842612D01*
X275538Y-856677D01*
X267926Y-875054D01*
Y-894946D01*
X275538Y-913323D01*
X289603Y-927388D01*
X307980Y-935000D01*
X327871D01*
X346248Y-927388D01*
X360314Y-913323D01*
X367926Y-894946D01*
Y-875054D01*
X360314Y-856677D01*
X346248Y-842612D01*
X327871Y-835000D01*
D02*
G37*
G36*
X1548278Y-868993D02*
X1531370D01*
X1515750Y-875463D01*
X1503794Y-887419D01*
X1497324Y-903039D01*
Y-919946D01*
X1503794Y-935567D01*
X1515750Y-947522D01*
X1531370Y-953993D01*
X1548278D01*
X1563898Y-947522D01*
X1575854Y-935567D01*
X1582324Y-919946D01*
Y-903039D01*
X1575854Y-887419D01*
X1563898Y-875463D01*
X1548278Y-868993D01*
D02*
G37*
G36*
X1663577Y-924748D02*
X1646670D01*
X1631050Y-931218D01*
X1619094Y-943174D01*
X1612624Y-958794D01*
Y-975701D01*
X1619094Y-991322D01*
X1631050Y-1003277D01*
X1646670Y-1009748D01*
X1663577D01*
X1679198Y-1003277D01*
X1691153Y-991322D01*
X1697623Y-975701D01*
Y-958794D01*
X1691153Y-943174D01*
X1679198Y-931218D01*
X1663577Y-924748D01*
D02*
G37*
G36*
X3867500Y-719274D02*
X3777500D01*
X3748095Y-722171D01*
X3719820Y-730748D01*
X3693761Y-744676D01*
X3670921Y-763421D01*
X3652176Y-786261D01*
X3638247Y-812320D01*
X3629670Y-840595D01*
X3626774Y-870000D01*
X3629670Y-899405D01*
X3638247Y-927680D01*
X3652176Y-953739D01*
X3670921Y-976579D01*
X3693761Y-995324D01*
X3719820Y-1009252D01*
X3748095Y-1017830D01*
X3777500Y-1020726D01*
X3867500D01*
X3896905Y-1017830D01*
X3925180Y-1009252D01*
X3951238Y-995324D01*
X3974079Y-976579D01*
X3992824Y-953739D01*
X4006752Y-927680D01*
X4015329Y-899405D01*
X4018225Y-870000D01*
X4015329Y-840595D01*
X4006752Y-812320D01*
X3992824Y-786261D01*
X3974079Y-763421D01*
X3951238Y-744676D01*
X3925180Y-730748D01*
X3896905Y-722171D01*
X3867500Y-719274D01*
D02*
G37*
G36*
X6622500Y-724274D02*
X6532500D01*
X6503095Y-727171D01*
X6474820Y-735748D01*
X6448761Y-749676D01*
X6425921Y-768421D01*
X6407176Y-791261D01*
X6393247Y-817320D01*
X6384670Y-845595D01*
X6381774Y-875000D01*
X6384670Y-904405D01*
X6393247Y-932680D01*
X6407176Y-958739D01*
X6425921Y-981579D01*
X6448761Y-1000324D01*
X6474820Y-1014252D01*
X6503095Y-1022830D01*
X6532500Y-1025726D01*
X6622500D01*
X6651905Y-1022830D01*
X6680180Y-1014252D01*
X6706238Y-1000324D01*
X6729079Y-981579D01*
X6747823Y-958739D01*
X6761752Y-932680D01*
X6770329Y-904405D01*
X6773225Y-875000D01*
X6770329Y-845595D01*
X6761752Y-817320D01*
X6747823Y-791261D01*
X6729079Y-768421D01*
X6706238Y-749676D01*
X6680180Y-735748D01*
X6651905Y-727171D01*
X6622500Y-724274D01*
D02*
G37*
G36*
X5237500D02*
X5147500D01*
X5118095Y-727171D01*
X5089820Y-735748D01*
X5063761Y-749676D01*
X5040921Y-768421D01*
X5022176Y-791261D01*
X5008248Y-817320D01*
X4999670Y-845595D01*
X4996774Y-875000D01*
X4999670Y-904405D01*
X5008248Y-932680D01*
X5022176Y-958739D01*
X5040921Y-981579D01*
X5063761Y-1000324D01*
X5089820Y-1014252D01*
X5118095Y-1022830D01*
X5147500Y-1025726D01*
X5237500D01*
X5266905Y-1022830D01*
X5295180Y-1014252D01*
X5321239Y-1000324D01*
X5344079Y-981579D01*
X5362824Y-958739D01*
X5376752Y-932680D01*
X5385329Y-904405D01*
X5388225Y-875000D01*
X5385329Y-845595D01*
X5376752Y-817320D01*
X5362824Y-791261D01*
X5344079Y-768421D01*
X5321239Y-749676D01*
X5295180Y-735748D01*
X5266905Y-727171D01*
X5237500Y-724274D01*
D02*
G37*
G36*
X848383Y-962642D02*
X831475D01*
X815855Y-969112D01*
X803899Y-981067D01*
X797429Y-996688D01*
Y-1013595D01*
X803899Y-1029216D01*
X815855Y-1041171D01*
X831475Y-1047641D01*
X848383D01*
X864003Y-1041171D01*
X875959Y-1029216D01*
X882429Y-1013595D01*
Y-996688D01*
X875959Y-981067D01*
X864003Y-969112D01*
X848383Y-962642D01*
D02*
G37*
G36*
X721894Y-1234198D02*
X704986D01*
X689366Y-1240668D01*
X677410Y-1252624D01*
X670940Y-1268244D01*
Y-1285152D01*
X677410Y-1300772D01*
X689366Y-1312728D01*
X704986Y-1319198D01*
X721894D01*
X737514Y-1312728D01*
X749470Y-1300772D01*
X755940Y-1285152D01*
Y-1268244D01*
X749470Y-1252624D01*
X737514Y-1240668D01*
X721894Y-1234198D01*
D02*
G37*
G36*
X1082209Y-1302847D02*
X1065302D01*
X1049681Y-1309317D01*
X1037726Y-1321273D01*
X1031255Y-1336893D01*
Y-1353801D01*
X1037726Y-1369421D01*
X1049681Y-1381377D01*
X1065302Y-1387847D01*
X1082209D01*
X1097829Y-1381377D01*
X1109785Y-1369421D01*
X1116255Y-1353801D01*
Y-1336893D01*
X1109785Y-1321273D01*
X1097829Y-1309317D01*
X1082209Y-1302847D01*
D02*
G37*
G36*
X3839615Y-2010000D02*
X3805385D01*
X3772322Y-2018859D01*
X3742678Y-2035974D01*
X3718474Y-2060178D01*
X3701359Y-2089822D01*
X3692500Y-2122885D01*
Y-2157115D01*
X3701359Y-2190178D01*
X3718474Y-2219822D01*
X3742678Y-2244026D01*
X3772322Y-2261141D01*
X3805385Y-2270000D01*
X3839615D01*
X3872678Y-2261141D01*
X3902322Y-2244026D01*
X3926526Y-2219822D01*
X3943641Y-2190178D01*
X3952500Y-2157115D01*
Y-2122885D01*
X3943641Y-2089822D01*
X3926526Y-2060178D01*
X3902322Y-2035974D01*
X3872678Y-2018859D01*
X3839615Y-2010000D01*
D02*
G37*
G36*
X3079615D02*
X3045385D01*
X3012322Y-2018859D01*
X2982678Y-2035974D01*
X2958474Y-2060178D01*
X2941359Y-2089822D01*
X2932500Y-2122885D01*
Y-2157115D01*
X2941359Y-2190178D01*
X2958474Y-2219822D01*
X2982678Y-2244026D01*
X3012322Y-2261141D01*
X3045385Y-2270000D01*
X3079615D01*
X3112678Y-2261141D01*
X3142322Y-2244026D01*
X3166526Y-2219822D01*
X3183641Y-2190178D01*
X3192500Y-2157115D01*
Y-2122885D01*
X3183641Y-2089822D01*
X3166526Y-2060178D01*
X3142322Y-2035974D01*
X3112678Y-2018859D01*
X3079615Y-2010000D01*
D02*
G37*
G36*
X6594614Y-2015000D02*
X6560385D01*
X6527321Y-2023859D01*
X6497678Y-2040974D01*
X6473474Y-2065178D01*
X6456359Y-2094822D01*
X6447500Y-2127885D01*
Y-2162115D01*
X6456359Y-2195178D01*
X6473474Y-2224822D01*
X6497678Y-2249026D01*
X6527321Y-2266141D01*
X6560385Y-2275000D01*
X6594614D01*
X6627678Y-2266141D01*
X6657321Y-2249026D01*
X6681525Y-2224822D01*
X6698640Y-2195178D01*
X6707500Y-2162115D01*
Y-2127885D01*
X6698640Y-2094822D01*
X6681525Y-2065178D01*
X6657321Y-2040974D01*
X6627678Y-2023859D01*
X6594614Y-2015000D01*
D02*
G37*
G36*
X5834614D02*
X5800385D01*
X5767321Y-2023859D01*
X5737678Y-2040974D01*
X5713474Y-2065178D01*
X5696359Y-2094822D01*
X5687500Y-2127885D01*
Y-2162115D01*
X5696359Y-2195178D01*
X5713474Y-2224822D01*
X5737678Y-2249026D01*
X5767321Y-2266141D01*
X5800385Y-2275000D01*
X5834614D01*
X5867678Y-2266141D01*
X5897321Y-2249026D01*
X5921525Y-2224822D01*
X5938640Y-2195178D01*
X5947500Y-2162115D01*
Y-2127885D01*
X5938640Y-2094822D01*
X5921525Y-2065178D01*
X5897321Y-2040974D01*
X5867678Y-2023859D01*
X5834614Y-2015000D01*
D02*
G37*
G36*
X5209615D02*
X5175385D01*
X5142322Y-2023859D01*
X5112678Y-2040974D01*
X5088474Y-2065178D01*
X5071359Y-2094822D01*
X5062500Y-2127885D01*
Y-2162115D01*
X5071359Y-2195178D01*
X5088474Y-2224822D01*
X5112678Y-2249026D01*
X5142322Y-2266141D01*
X5175385Y-2275000D01*
X5209615D01*
X5242678Y-2266141D01*
X5272322Y-2249026D01*
X5296526Y-2224822D01*
X5313641Y-2195178D01*
X5322500Y-2162115D01*
Y-2127885D01*
X5313641Y-2094822D01*
X5296526Y-2065178D01*
X5272322Y-2040974D01*
X5242678Y-2023859D01*
X5209615Y-2015000D01*
D02*
G37*
G36*
X4449615D02*
X4415385D01*
X4382322Y-2023859D01*
X4352678Y-2040974D01*
X4328474Y-2065178D01*
X4311359Y-2094822D01*
X4302500Y-2127885D01*
Y-2162115D01*
X4311359Y-2195178D01*
X4328474Y-2224822D01*
X4352678Y-2249026D01*
X4382322Y-2266141D01*
X4415385Y-2275000D01*
X4449615D01*
X4482678Y-2266141D01*
X4512322Y-2249026D01*
X4536526Y-2224822D01*
X4553641Y-2195178D01*
X4562500Y-2162115D01*
Y-2127885D01*
X4553641Y-2094822D01*
X4536526Y-2065178D01*
X4512322Y-2040974D01*
X4482678Y-2023859D01*
X4449615Y-2015000D01*
D02*
G37*
G36*
X9623263Y-2258074D02*
X9600777D01*
X9579057Y-2263894D01*
X9559583Y-2275137D01*
X9543683Y-2291037D01*
X9532440Y-2310510D01*
X9526620Y-2332231D01*
Y-2354717D01*
X9532440Y-2376437D01*
X9543683Y-2395910D01*
X9559583Y-2411811D01*
X9579057Y-2423054D01*
X9600777Y-2428873D01*
X9623263D01*
X9644983Y-2423054D01*
X9664457Y-2411811D01*
X9680357Y-2395910D01*
X9691600Y-2376437D01*
X9697420Y-2354717D01*
Y-2332231D01*
X9691600Y-2310510D01*
X9680357Y-2291037D01*
X9664457Y-2275137D01*
X9644983Y-2263894D01*
X9623263Y-2258074D01*
D02*
G37*
G36*
X9115263D02*
X9092777D01*
X9071057Y-2263894D01*
X9051583Y-2275137D01*
X9035683Y-2291037D01*
X9024440Y-2310510D01*
X9018620Y-2332231D01*
Y-2354717D01*
X9024440Y-2376437D01*
X9035683Y-2395910D01*
X9051583Y-2411811D01*
X9071057Y-2423054D01*
X9092777Y-2428873D01*
X9115263D01*
X9136983Y-2423054D01*
X9156457Y-2411811D01*
X9172357Y-2395910D01*
X9183600Y-2376437D01*
X9189420Y-2354717D01*
Y-2332231D01*
X9183600Y-2310510D01*
X9172357Y-2291037D01*
X9156457Y-2275137D01*
X9136983Y-2263894D01*
X9115263Y-2258074D01*
D02*
G37*
G36*
X8861263D02*
X8838777D01*
X8817057Y-2263894D01*
X8797583Y-2275137D01*
X8781683Y-2291037D01*
X8770440Y-2310510D01*
X8764620Y-2332231D01*
Y-2354717D01*
X8770440Y-2376437D01*
X8781683Y-2395910D01*
X8797583Y-2411811D01*
X8817057Y-2423054D01*
X8838777Y-2428873D01*
X8861263D01*
X8882983Y-2423054D01*
X8902457Y-2411811D01*
X8918357Y-2395910D01*
X8929600Y-2376437D01*
X8935420Y-2354717D01*
Y-2332231D01*
X8929600Y-2310510D01*
X8918357Y-2291037D01*
X8902457Y-2275137D01*
X8882983Y-2263894D01*
X8861263Y-2258074D01*
D02*
G37*
G36*
X8607263D02*
X8584777D01*
X8563057Y-2263894D01*
X8543583Y-2275137D01*
X8527683Y-2291037D01*
X8516440Y-2310510D01*
X8510620Y-2332231D01*
Y-2354717D01*
X8516440Y-2376437D01*
X8527683Y-2395910D01*
X8543583Y-2411811D01*
X8563057Y-2423054D01*
X8584777Y-2428873D01*
X8607263D01*
X8628983Y-2423054D01*
X8648457Y-2411811D01*
X8664357Y-2395910D01*
X8675600Y-2376437D01*
X8681420Y-2354717D01*
Y-2332231D01*
X8675600Y-2310510D01*
X8664357Y-2291037D01*
X8648457Y-2275137D01*
X8628983Y-2263894D01*
X8607263Y-2258074D01*
D02*
G37*
G36*
X8353263D02*
X8330777D01*
X8309057Y-2263894D01*
X8289583Y-2275137D01*
X8273683Y-2291037D01*
X8262440Y-2310510D01*
X8256620Y-2332231D01*
Y-2354717D01*
X8262440Y-2376437D01*
X8273683Y-2395910D01*
X8289583Y-2411811D01*
X8309057Y-2423054D01*
X8330777Y-2428873D01*
X8353263D01*
X8374983Y-2423054D01*
X8394457Y-2411811D01*
X8410357Y-2395910D01*
X8421600Y-2376437D01*
X8427420Y-2354717D01*
Y-2332231D01*
X8421600Y-2310510D01*
X8410357Y-2291037D01*
X8394457Y-2275137D01*
X8374983Y-2263894D01*
X8353263Y-2258074D01*
D02*
G37*
G36*
X8099263D02*
X8076777D01*
X8055057Y-2263894D01*
X8035583Y-2275137D01*
X8019683Y-2291037D01*
X8008440Y-2310510D01*
X8002620Y-2332231D01*
Y-2354717D01*
X8008440Y-2376437D01*
X8019683Y-2395910D01*
X8035583Y-2411811D01*
X8055057Y-2423054D01*
X8076777Y-2428873D01*
X8099263D01*
X8120983Y-2423054D01*
X8140457Y-2411811D01*
X8156357Y-2395910D01*
X8167600Y-2376437D01*
X8173420Y-2354717D01*
Y-2332231D01*
X8167600Y-2310510D01*
X8156357Y-2291037D01*
X8140457Y-2275137D01*
X8120983Y-2263894D01*
X8099263Y-2258074D01*
D02*
G37*
G36*
X7919420D02*
X7748620D01*
Y-2428873D01*
X7919420D01*
Y-2258074D01*
D02*
G37*
G36*
X9385673Y-2685977D02*
X9361975D01*
X9339085Y-2692110D01*
X9318563Y-2703959D01*
X9301806Y-2720716D01*
X9289958Y-2741238D01*
X9283824Y-2764128D01*
Y-2787825D01*
X9289958Y-2810715D01*
X9301806Y-2831238D01*
X9318563Y-2847994D01*
X9339085Y-2859843D01*
X9361975Y-2865976D01*
X9385673D01*
X9408563Y-2859843D01*
X9429085Y-2847994D01*
X9445842Y-2831238D01*
X9457691Y-2810715D01*
X9463824Y-2787825D01*
Y-2764128D01*
X9457691Y-2741238D01*
X9445842Y-2720716D01*
X9429085Y-2703959D01*
X9408563Y-2692110D01*
X9385673Y-2685977D01*
D02*
G37*
G36*
X9135673D02*
X9111975D01*
X9089085Y-2692110D01*
X9068563Y-2703959D01*
X9051806Y-2720716D01*
X9039958Y-2741238D01*
X9033824Y-2764128D01*
Y-2787825D01*
X9039958Y-2810715D01*
X9051806Y-2831238D01*
X9068563Y-2847994D01*
X9089085Y-2859843D01*
X9111975Y-2865976D01*
X9135673D01*
X9158563Y-2859843D01*
X9179085Y-2847994D01*
X9195842Y-2831238D01*
X9207690Y-2810715D01*
X9213824Y-2787825D01*
Y-2764128D01*
X9207690Y-2741238D01*
X9195842Y-2720716D01*
X9179085Y-2703959D01*
X9158563Y-2692110D01*
X9135673Y-2685977D01*
D02*
G37*
G36*
X8098582Y-2796233D02*
X8081675D01*
X8066055Y-2802704D01*
X8054099Y-2814659D01*
X8047629Y-2830280D01*
Y-2847187D01*
X8054099Y-2862807D01*
X8066055Y-2874763D01*
X8081675Y-2881233D01*
X8098582D01*
X8114203Y-2874763D01*
X8126158Y-2862807D01*
X8132629Y-2847187D01*
Y-2830280D01*
X8126158Y-2814659D01*
X8114203Y-2802704D01*
X8098582Y-2796233D01*
D02*
G37*
G36*
X6108454Y-2877500D02*
X6091546D01*
X6075926Y-2883970D01*
X6063970Y-2895926D01*
X6057500Y-2911546D01*
Y-2928454D01*
X6063970Y-2944074D01*
X6075926Y-2956030D01*
X6091546Y-2962500D01*
X6108454D01*
X6124074Y-2956030D01*
X6136030Y-2944074D01*
X6142500Y-2928454D01*
Y-2911546D01*
X6136030Y-2895926D01*
X6124074Y-2883970D01*
X6108454Y-2877500D01*
D02*
G37*
G36*
X4708454D02*
X4691546D01*
X4675926Y-2883970D01*
X4663970Y-2895926D01*
X4657500Y-2911546D01*
Y-2928454D01*
X4663970Y-2944074D01*
X4675926Y-2956030D01*
X4691546Y-2962500D01*
X4708454D01*
X4724074Y-2956030D01*
X4736030Y-2944074D01*
X4742500Y-2928454D01*
Y-2911546D01*
X4736030Y-2895926D01*
X4724074Y-2883970D01*
X4708454Y-2877500D01*
D02*
G37*
G36*
X3352874Y-2878750D02*
X3335967D01*
X3320346Y-2885221D01*
X3308391Y-2897176D01*
X3301921Y-2912797D01*
Y-2929704D01*
X3308391Y-2945324D01*
X3320346Y-2957280D01*
X3335967Y-2963750D01*
X3352874D01*
X3368495Y-2957280D01*
X3380450Y-2945324D01*
X3386920Y-2929704D01*
Y-2912797D01*
X3380450Y-2897176D01*
X3368495Y-2885221D01*
X3352874Y-2878750D01*
D02*
G37*
G36*
X1026899Y-3037954D02*
X1009992D01*
X994371Y-3044424D01*
X982416Y-3056379D01*
X975945Y-3072000D01*
Y-3088907D01*
X982416Y-3104528D01*
X994371Y-3116483D01*
X1009992Y-3122953D01*
X1026899D01*
X1042519Y-3116483D01*
X1054475Y-3104528D01*
X1060945Y-3088907D01*
Y-3072000D01*
X1054475Y-3056379D01*
X1042519Y-3044424D01*
X1026899Y-3037954D01*
D02*
G37*
G36*
X8723824Y-2654941D02*
X8523824D01*
X8492498Y-2659065D01*
X8463306Y-2671157D01*
X8438239Y-2690392D01*
X8419004Y-2715459D01*
X8406913Y-2744650D01*
X8402789Y-2775977D01*
X8406913Y-2807303D01*
X8419004Y-2836494D01*
X8438239Y-2861562D01*
X8463306Y-2880797D01*
X8492498Y-2892888D01*
X8505288Y-2894572D01*
Y-2907382D01*
X8492498Y-2909065D01*
X8463306Y-2921157D01*
X8438239Y-2940392D01*
X8419004Y-2965459D01*
X8406913Y-2994650D01*
X8402789Y-3025977D01*
X8406913Y-3057303D01*
X8419004Y-3086494D01*
X8438239Y-3111562D01*
X8463306Y-3130797D01*
X8492498Y-3142888D01*
X8523824Y-3147012D01*
X8723824D01*
X8755150Y-3142888D01*
X8784342Y-3130797D01*
X8809409Y-3111562D01*
X8828644Y-3086494D01*
X8840735Y-3057303D01*
X8844859Y-3025977D01*
X8840735Y-2994650D01*
X8828644Y-2965459D01*
X8809409Y-2940392D01*
X8784342Y-2921157D01*
X8755150Y-2909065D01*
X8742360Y-2907382D01*
Y-2894572D01*
X8755150Y-2892888D01*
X8784342Y-2880797D01*
X8809409Y-2861562D01*
X8828644Y-2836494D01*
X8840735Y-2807303D01*
X8844859Y-2775977D01*
X8840735Y-2744650D01*
X8828644Y-2715459D01*
X8809409Y-2690392D01*
X8784342Y-2671157D01*
X8755150Y-2659065D01*
X8723824Y-2654941D01*
D02*
G37*
G36*
X3140943Y-3171717D02*
X3124036D01*
X3108416Y-3178187D01*
X3096460Y-3190143D01*
X3089990Y-3205763D01*
Y-3222671D01*
X3096460Y-3238291D01*
X3108416Y-3250247D01*
X3124036Y-3256717D01*
X3128516Y-3269417D01*
X3120678Y-3277255D01*
X3114208Y-3292875D01*
Y-3309783D01*
X3120678Y-3325403D01*
X3132634Y-3337359D01*
X3148254Y-3343829D01*
X3165161D01*
X3180782Y-3337359D01*
X3192737Y-3325403D01*
X3199207Y-3309783D01*
Y-3292875D01*
X3192737Y-3277255D01*
X3180782Y-3265299D01*
X3165162Y-3258829D01*
X3160682Y-3246129D01*
X3168519Y-3238291D01*
X3174990Y-3222671D01*
Y-3205763D01*
X3168519Y-3190143D01*
X3156564Y-3178187D01*
X3140943Y-3171717D01*
D02*
G37*
G36*
X8635673Y-3185977D02*
X8611975D01*
X8589085Y-3192110D01*
X8568563Y-3203959D01*
X8551806Y-3220716D01*
X8539958Y-3241238D01*
X8533824Y-3264128D01*
Y-3287825D01*
X8539958Y-3310715D01*
X8551806Y-3331238D01*
X8568563Y-3347994D01*
X8589085Y-3359843D01*
X8611975Y-3365977D01*
X8635673D01*
X8658563Y-3359843D01*
X8679085Y-3347994D01*
X8695842Y-3331238D01*
X8707690Y-3310715D01*
X8713824Y-3287825D01*
Y-3264128D01*
X8707690Y-3241238D01*
X8695842Y-3220716D01*
X8679085Y-3203959D01*
X8658563Y-3192110D01*
X8635673Y-3185977D01*
D02*
G37*
G36*
X477873Y-3341255D02*
X457982D01*
X439604Y-3348867D01*
X425539Y-3362932D01*
X417927Y-3381309D01*
Y-3401201D01*
X425539Y-3419578D01*
X439604Y-3433643D01*
X457982Y-3441255D01*
X477873D01*
X496250Y-3433643D01*
X510315Y-3419578D01*
X517927Y-3401201D01*
Y-3381309D01*
X510315Y-3362932D01*
X496250Y-3348867D01*
X477873Y-3341255D01*
D02*
G37*
G36*
X3174303Y-3374241D02*
X3157396D01*
X3141775Y-3380711D01*
X3129819Y-3392666D01*
X3123349Y-3408287D01*
Y-3425194D01*
X3129819Y-3440815D01*
X3141775Y-3452770D01*
X3157396Y-3459240D01*
X3174303D01*
X3177377Y-3457967D01*
X3179834Y-3459880D01*
X3185834Y-3468210D01*
X3180510Y-3481064D01*
Y-3497972D01*
X3186980Y-3513592D01*
X3198936Y-3525548D01*
X3214556Y-3532018D01*
X3231463D01*
X3247084Y-3525548D01*
X3259039Y-3513592D01*
X3265510Y-3497972D01*
Y-3481064D01*
X3259039Y-3465444D01*
X3247084Y-3453488D01*
X3231463Y-3447018D01*
X3214556D01*
X3211482Y-3448292D01*
X3209025Y-3446379D01*
X3203025Y-3438048D01*
X3208349Y-3425194D01*
Y-3408287D01*
X3201879Y-3392666D01*
X3189923Y-3380711D01*
X3174303Y-3374241D01*
D02*
G37*
G36*
X777445Y-3592500D02*
X757554D01*
X739177Y-3600112D01*
X725112Y-3614177D01*
X717500Y-3632554D01*
Y-3652446D01*
X725112Y-3670823D01*
X739177Y-3684888D01*
X757554Y-3692500D01*
X777445D01*
X795823Y-3684888D01*
X809888Y-3670823D01*
X817500Y-3652446D01*
Y-3632554D01*
X809888Y-3614177D01*
X795823Y-3600112D01*
X777445Y-3592500D01*
D02*
G37*
G36*
X1445937Y-3509255D02*
X1419607D01*
X1394174Y-3516070D01*
X1371371Y-3529236D01*
X1352752Y-3547854D01*
X1339587Y-3570657D01*
X1332772Y-3596090D01*
Y-3622420D01*
X1339587Y-3647854D01*
X1352752Y-3670656D01*
X1371371Y-3689275D01*
X1394174Y-3702440D01*
X1419607Y-3709255D01*
X1445937D01*
X1471370Y-3702440D01*
X1494173Y-3689275D01*
X1512792Y-3670656D01*
X1525957Y-3647854D01*
X1532772Y-3622420D01*
Y-3596090D01*
X1525957Y-3570657D01*
X1512792Y-3547854D01*
X1494173Y-3529236D01*
X1471370Y-3516070D01*
X1445937Y-3509255D01*
D02*
G37*
G36*
X5550133Y-3680923D02*
X5530242D01*
X5511865Y-3688534D01*
X5497799Y-3702600D01*
X5490187Y-3720977D01*
Y-3740868D01*
X5497799Y-3759245D01*
X5511865Y-3773310D01*
X5530242Y-3780922D01*
X5550133D01*
X5568510Y-3773310D01*
X5582575Y-3759245D01*
X5590187Y-3740868D01*
Y-3720977D01*
X5582575Y-3702600D01*
X5568510Y-3688534D01*
X5550133Y-3680923D01*
D02*
G37*
G36*
X5400133D02*
X5380242D01*
X5361865Y-3688534D01*
X5347799Y-3702600D01*
X5340187Y-3720977D01*
Y-3740868D01*
X5347799Y-3759245D01*
X5361865Y-3773310D01*
X5380242Y-3780922D01*
X5400133D01*
X5418510Y-3773310D01*
X5432575Y-3759245D01*
X5440187Y-3740868D01*
Y-3720977D01*
X5432575Y-3702600D01*
X5418510Y-3688534D01*
X5400133Y-3680923D01*
D02*
G37*
G36*
X5250133D02*
X5230242D01*
X5211865Y-3688534D01*
X5197799Y-3702600D01*
X5190187Y-3720977D01*
Y-3740868D01*
X5197799Y-3759245D01*
X5211865Y-3773310D01*
X5230242Y-3780922D01*
X5250133D01*
X5268510Y-3773310D01*
X5282575Y-3759245D01*
X5290187Y-3740868D01*
Y-3720977D01*
X5282575Y-3702600D01*
X5268510Y-3688534D01*
X5250133Y-3680923D01*
D02*
G37*
G36*
X378482Y-3642000D02*
X349518D01*
X321542Y-3649497D01*
X296459Y-3663978D01*
X275978Y-3684459D01*
X261497Y-3709542D01*
X254000Y-3737518D01*
Y-3766482D01*
X261497Y-3794459D01*
X275978Y-3819542D01*
X296459Y-3840022D01*
X321542Y-3854504D01*
X349518Y-3862000D01*
X378482D01*
X406458Y-3854504D01*
X431541Y-3840022D01*
X452022Y-3819542D01*
X466504Y-3794459D01*
X474000Y-3766482D01*
Y-3737518D01*
X466504Y-3709542D01*
X452022Y-3684459D01*
X431541Y-3663978D01*
X406458Y-3649497D01*
X378482Y-3642000D01*
D02*
G37*
G36*
X124482D02*
X95518D01*
X67542Y-3649497D01*
X42459Y-3663978D01*
X21978Y-3684459D01*
X7497Y-3709542D01*
X0Y-3737518D01*
Y-3766482D01*
X7497Y-3794459D01*
X21978Y-3819542D01*
X42459Y-3840022D01*
X67542Y-3854504D01*
X95518Y-3862000D01*
X124482D01*
X152458Y-3854504D01*
X177541Y-3840022D01*
X198022Y-3819542D01*
X212504Y-3794459D01*
X220000Y-3766482D01*
Y-3737518D01*
X212504Y-3709542D01*
X198022Y-3684459D01*
X177541Y-3663978D01*
X152458Y-3649497D01*
X124482Y-3642000D01*
D02*
G37*
G36*
X9385673Y-3685977D02*
X9361975D01*
X9339085Y-3692110D01*
X9318563Y-3703959D01*
X9301806Y-3720716D01*
X9289958Y-3741238D01*
X9283824Y-3764128D01*
Y-3787825D01*
X9289958Y-3810715D01*
X9301806Y-3831238D01*
X9318563Y-3847994D01*
X9339085Y-3859843D01*
X9361975Y-3865977D01*
X9385673D01*
X9408563Y-3859843D01*
X9429085Y-3847994D01*
X9445842Y-3831238D01*
X9457691Y-3810715D01*
X9463824Y-3787825D01*
Y-3764128D01*
X9457691Y-3741238D01*
X9445842Y-3720716D01*
X9429085Y-3703959D01*
X9408563Y-3692110D01*
X9385673Y-3685977D01*
D02*
G37*
G36*
X9135673D02*
X9111975D01*
X9089085Y-3692110D01*
X9068563Y-3703959D01*
X9051806Y-3720716D01*
X9039958Y-3741238D01*
X9033824Y-3764128D01*
Y-3787825D01*
X9039958Y-3810715D01*
X9051806Y-3831238D01*
X9068563Y-3847994D01*
X9089085Y-3859843D01*
X9111975Y-3865977D01*
X9135673D01*
X9158563Y-3859843D01*
X9179085Y-3847994D01*
X9195842Y-3831238D01*
X9207690Y-3810715D01*
X9213824Y-3787825D01*
Y-3764128D01*
X9207690Y-3741238D01*
X9195842Y-3720716D01*
X9179085Y-3703959D01*
X9158563Y-3692110D01*
X9135673Y-3685977D01*
D02*
G37*
G36*
X8723824Y-3404941D02*
X8523824D01*
X8492498Y-3409065D01*
X8463306Y-3421157D01*
X8438239Y-3440392D01*
X8419004Y-3465459D01*
X8406913Y-3494650D01*
X8402789Y-3525977D01*
X8406913Y-3557303D01*
X8419004Y-3586494D01*
X8438239Y-3611562D01*
X8463306Y-3630797D01*
X8492498Y-3642888D01*
X8505288Y-3644572D01*
Y-3657382D01*
X8492498Y-3659065D01*
X8463306Y-3671157D01*
X8438239Y-3690392D01*
X8419004Y-3715459D01*
X8406913Y-3744650D01*
X8402789Y-3775977D01*
X8406913Y-3807303D01*
X8419004Y-3836494D01*
X8438239Y-3861562D01*
X8463306Y-3880797D01*
X8492498Y-3892888D01*
X8523824Y-3897012D01*
X8723824D01*
X8755150Y-3892888D01*
X8784342Y-3880797D01*
X8809409Y-3861562D01*
X8828644Y-3836494D01*
X8840735Y-3807303D01*
X8844859Y-3775977D01*
X8840735Y-3744650D01*
X8828644Y-3715459D01*
X8809409Y-3690392D01*
X8784342Y-3671157D01*
X8755150Y-3659065D01*
X8742360Y-3657382D01*
Y-3644572D01*
X8755150Y-3642888D01*
X8784342Y-3630797D01*
X8809409Y-3611562D01*
X8828644Y-3586494D01*
X8840735Y-3557303D01*
X8844859Y-3525977D01*
X8840735Y-3494650D01*
X8828644Y-3465459D01*
X8809409Y-3440392D01*
X8784342Y-3421157D01*
X8755150Y-3409065D01*
X8723824Y-3404941D01*
D02*
G37*
G36*
X1445937Y-3763255D02*
X1419607D01*
X1394174Y-3770070D01*
X1371371Y-3783236D01*
X1352752Y-3801854D01*
X1339587Y-3824657D01*
X1332772Y-3850090D01*
Y-3876420D01*
X1339587Y-3901854D01*
X1352752Y-3924656D01*
X1371371Y-3943275D01*
X1394174Y-3956440D01*
X1419607Y-3963255D01*
X1445937D01*
X1471370Y-3956440D01*
X1494173Y-3943275D01*
X1512792Y-3924656D01*
X1525957Y-3901854D01*
X1532772Y-3876420D01*
Y-3850090D01*
X1525957Y-3824657D01*
X1512792Y-3801854D01*
X1494173Y-3783236D01*
X1471370Y-3770070D01*
X1445937Y-3763255D01*
D02*
G37*
G36*
X124482Y-3896000D02*
X95518D01*
X67542Y-3903497D01*
X42459Y-3917978D01*
X21978Y-3938459D01*
X7497Y-3963542D01*
X0Y-3991518D01*
Y-4020482D01*
X7497Y-4048459D01*
X21978Y-4073542D01*
X42459Y-4094022D01*
X67542Y-4108504D01*
X95518Y-4116000D01*
X124482D01*
X152458Y-4108504D01*
X177541Y-4094022D01*
X198022Y-4073542D01*
X212504Y-4048459D01*
X220000Y-4020482D01*
Y-3991518D01*
X212504Y-3963542D01*
X198022Y-3938459D01*
X177541Y-3917978D01*
X152458Y-3903497D01*
X124482Y-3896000D01*
D02*
G37*
G36*
X1445937Y-4017255D02*
X1419607D01*
X1394174Y-4024070D01*
X1371371Y-4037236D01*
X1352752Y-4055854D01*
X1339587Y-4078657D01*
X1332772Y-4104090D01*
Y-4130420D01*
X1339587Y-4155854D01*
X1352752Y-4178656D01*
X1371371Y-4197275D01*
X1394174Y-4210440D01*
X1419607Y-4217255D01*
X1445937D01*
X1471370Y-4210440D01*
X1494173Y-4197275D01*
X1512792Y-4178656D01*
X1525957Y-4155854D01*
X1532772Y-4130420D01*
Y-4104090D01*
X1525957Y-4078657D01*
X1512792Y-4055854D01*
X1494173Y-4037236D01*
X1471370Y-4024070D01*
X1445937Y-4017255D01*
D02*
G37*
G36*
X378482Y-4150000D02*
X349518D01*
X321542Y-4157497D01*
X296459Y-4171978D01*
X275978Y-4192459D01*
X261497Y-4217542D01*
X254000Y-4245518D01*
Y-4274482D01*
X261497Y-4302459D01*
X275978Y-4327542D01*
X296459Y-4348022D01*
X321542Y-4362504D01*
X349518Y-4370000D01*
X378482D01*
X406458Y-4362504D01*
X431541Y-4348022D01*
X452022Y-4327542D01*
X466504Y-4302459D01*
X474000Y-4274482D01*
Y-4245518D01*
X466504Y-4217542D01*
X452022Y-4192459D01*
X431541Y-4171978D01*
X406458Y-4157497D01*
X378482Y-4150000D01*
D02*
G37*
G36*
X124482D02*
X95518D01*
X67542Y-4157497D01*
X42459Y-4171978D01*
X21978Y-4192459D01*
X7497Y-4217542D01*
X0Y-4245518D01*
Y-4274482D01*
X7497Y-4302459D01*
X21978Y-4327542D01*
X42459Y-4348022D01*
X67542Y-4362504D01*
X95518Y-4370000D01*
X124482D01*
X152458Y-4362504D01*
X177541Y-4348022D01*
X198022Y-4327542D01*
X212504Y-4302459D01*
X220000Y-4274482D01*
Y-4245518D01*
X212504Y-4217542D01*
X198022Y-4192459D01*
X177541Y-4171978D01*
X152458Y-4157497D01*
X124482Y-4150000D01*
D02*
G37*
G36*
X9465798Y-4180000D02*
X9434202D01*
X9403681Y-4188178D01*
X9376318Y-4203976D01*
X9353976Y-4226318D01*
X9338178Y-4253682D01*
X9330000Y-4284202D01*
Y-4315798D01*
X9338178Y-4346318D01*
X9353976Y-4373682D01*
X9376318Y-4396024D01*
X9403681Y-4411822D01*
X9434202Y-4420000D01*
X9465798D01*
X9496318Y-4411822D01*
X9523682Y-4396024D01*
X9546024Y-4373682D01*
X9561822Y-4346318D01*
X9570000Y-4315798D01*
Y-4284202D01*
X9561822Y-4253682D01*
X9546024Y-4226318D01*
X9523682Y-4203976D01*
X9496318Y-4188178D01*
X9465798Y-4180000D01*
D02*
G37*
G36*
X1445937Y-4271255D02*
X1419607D01*
X1394174Y-4278070D01*
X1371371Y-4291236D01*
X1352752Y-4309854D01*
X1339587Y-4332657D01*
X1332772Y-4358090D01*
Y-4384420D01*
X1339587Y-4409854D01*
X1352752Y-4432656D01*
X1371371Y-4451275D01*
X1394174Y-4464440D01*
X1419607Y-4471255D01*
X1445937D01*
X1471370Y-4464440D01*
X1494173Y-4451275D01*
X1512792Y-4432656D01*
X1525957Y-4409854D01*
X1532772Y-4384420D01*
Y-4358090D01*
X1525957Y-4332657D01*
X1512792Y-4309854D01*
X1494173Y-4291236D01*
X1471370Y-4278070D01*
X1445937Y-4271255D01*
D02*
G37*
G36*
X1532772Y-4525255D02*
X1332772D01*
Y-4725255D01*
X1532772D01*
Y-4525255D01*
D02*
G37*
G36*
X-182271Y-4909000D02*
X-217728D01*
X-252504Y-4915917D01*
X-285262Y-4929486D01*
X-314743Y-4949185D01*
X-339815Y-4974257D01*
X-359514Y-5003738D01*
X-373083Y-5036496D01*
X-380000Y-5071272D01*
Y-5106728D01*
X-373083Y-5141504D01*
X-359514Y-5174262D01*
X-339815Y-5203743D01*
X-314743Y-5228815D01*
X-285262Y-5248514D01*
X-252504Y-5262083D01*
X-217728Y-5269000D01*
X-182271D01*
X-147496Y-5262083D01*
X-114738Y-5248514D01*
X-85257Y-5228815D01*
X-60185Y-5203743D01*
X-40486Y-5174262D01*
X-26917Y-5141504D01*
X-20000Y-5106728D01*
Y-5071272D01*
X-26917Y-5036496D01*
X-40486Y-5003738D01*
X-60185Y-4974257D01*
X-85257Y-4949185D01*
X-114738Y-4929486D01*
X-147496Y-4915917D01*
X-182271Y-4909000D01*
D02*
G37*
G36*
X2319016Y-5189684D02*
X2299124D01*
X2280747Y-5197296D01*
X2266682Y-5211361D01*
X2259070Y-5229738D01*
Y-5249630D01*
X2266682Y-5268007D01*
X2280747Y-5282072D01*
X2299124Y-5289684D01*
X2319016D01*
X2337393Y-5282072D01*
X2351458Y-5268007D01*
X2359070Y-5249630D01*
Y-5229738D01*
X2351458Y-5211361D01*
X2337393Y-5197296D01*
X2319016Y-5189684D01*
D02*
G37*
G36*
X8868018Y-5230535D02*
X8848126D01*
X8829749Y-5238146D01*
X8815684Y-5252212D01*
X8808072Y-5270589D01*
Y-5290480D01*
X8815684Y-5308857D01*
X8829749Y-5322923D01*
X8848126Y-5330534D01*
X8868018D01*
X8886395Y-5322923D01*
X8900460Y-5308857D01*
X8908072Y-5290480D01*
Y-5270589D01*
X8900460Y-5252212D01*
X8886395Y-5238146D01*
X8868018Y-5230535D01*
D02*
G37*
G36*
X7364029Y-5248020D02*
X7344137D01*
X7325760Y-5255632D01*
X7311695Y-5269698D01*
X7304083Y-5288075D01*
Y-5307966D01*
X7311695Y-5326343D01*
X7325760Y-5340408D01*
X7344137Y-5348020D01*
X7364029D01*
X7382406Y-5340408D01*
X7396471Y-5326343D01*
X7404083Y-5307966D01*
Y-5288075D01*
X7396471Y-5269698D01*
X7382406Y-5255632D01*
X7364029Y-5248020D01*
D02*
G37*
G36*
X7239722D02*
X7219831D01*
X7201454Y-5255632D01*
X7187388Y-5269698D01*
X7179777Y-5288075D01*
Y-5307966D01*
X7187388Y-5326343D01*
X7201454Y-5340408D01*
X7219831Y-5348020D01*
X7239722D01*
X7258099Y-5340408D01*
X7272165Y-5326343D01*
X7279776Y-5307966D01*
Y-5288075D01*
X7272165Y-5269698D01*
X7258099Y-5255632D01*
X7239722Y-5248020D01*
D02*
G37*
G36*
X7110485D02*
X7090594D01*
X7072216Y-5255632D01*
X7058151Y-5269698D01*
X7050539Y-5288075D01*
Y-5307966D01*
X7058151Y-5326343D01*
X7072216Y-5340408D01*
X7090594Y-5348020D01*
X7110485D01*
X7128862Y-5340408D01*
X7142927Y-5326343D01*
X7150539Y-5307966D01*
Y-5288075D01*
X7142927Y-5269698D01*
X7128862Y-5255632D01*
X7110485Y-5248020D01*
D02*
G37*
G36*
X6981029D02*
X6961138D01*
X6942761Y-5255632D01*
X6928696Y-5269698D01*
X6921084Y-5288075D01*
Y-5307966D01*
X6928696Y-5326343D01*
X6942761Y-5340408D01*
X6961138Y-5348020D01*
X6981029D01*
X6999406Y-5340408D01*
X7013472Y-5326343D01*
X7021083Y-5307966D01*
Y-5288075D01*
X7013472Y-5269698D01*
X6999406Y-5255632D01*
X6981029Y-5248020D01*
D02*
G37*
G36*
X1989010Y-5433631D02*
X1972103D01*
X1956482Y-5440102D01*
X1944527Y-5452057D01*
X1938057Y-5467678D01*
Y-5484585D01*
X1944527Y-5500205D01*
X1956482Y-5512161D01*
X1972103Y-5518631D01*
X1989010D01*
X2004631Y-5512161D01*
X2016586Y-5500205D01*
X2023056Y-5484585D01*
Y-5467678D01*
X2016586Y-5452057D01*
X2004631Y-5440102D01*
X1989010Y-5433631D01*
D02*
G37*
G36*
X8868018Y-5440506D02*
X8848126D01*
X8829749Y-5448118D01*
X8815684Y-5462183D01*
X8808072Y-5480561D01*
Y-5500452D01*
X8815684Y-5518829D01*
X8829749Y-5532894D01*
X8848126Y-5540506D01*
X8868018D01*
X8886395Y-5532894D01*
X8900460Y-5518829D01*
X8908072Y-5500452D01*
Y-5480561D01*
X8900460Y-5462183D01*
X8886395Y-5448118D01*
X8868018Y-5440506D01*
D02*
G37*
G36*
X5305133Y-5470923D02*
X5285242D01*
X5266864Y-5478534D01*
X5252799Y-5492600D01*
X5245187Y-5510977D01*
Y-5530868D01*
X5252799Y-5549245D01*
X5266864Y-5563310D01*
X5285242Y-5570922D01*
X5305133D01*
X5323510Y-5563310D01*
X5337575Y-5549245D01*
X5345187Y-5530868D01*
Y-5510977D01*
X5337575Y-5492600D01*
X5323510Y-5478534D01*
X5305133Y-5470923D01*
D02*
G37*
G36*
X7747952Y-5487856D02*
X7728060D01*
X7709683Y-5495468D01*
X7695618Y-5509533D01*
X7688006Y-5527910D01*
Y-5547801D01*
X7695618Y-5566179D01*
X7709683Y-5580244D01*
X7728060Y-5587856D01*
X7747952D01*
X7766329Y-5580244D01*
X7780394Y-5566179D01*
X7788006Y-5547801D01*
Y-5527910D01*
X7780394Y-5509533D01*
X7766329Y-5495468D01*
X7747952Y-5487856D01*
D02*
G37*
G36*
X7362147Y-5522158D02*
X7342256D01*
X7323879Y-5529769D01*
X7309813Y-5543835D01*
X7302202Y-5562212D01*
Y-5582103D01*
X7309813Y-5600480D01*
X7323879Y-5614546D01*
X7342256Y-5622157D01*
X7362147D01*
X7380524Y-5614546D01*
X7394589Y-5600480D01*
X7402201Y-5582103D01*
Y-5562212D01*
X7394589Y-5543835D01*
X7380524Y-5529769D01*
X7362147Y-5522158D01*
D02*
G37*
G36*
X7237840D02*
X7217949D01*
X7199572Y-5529769D01*
X7185507Y-5543835D01*
X7177895Y-5562212D01*
Y-5582103D01*
X7185507Y-5600480D01*
X7199572Y-5614546D01*
X7217949Y-5622157D01*
X7237840D01*
X7256218Y-5614546D01*
X7270283Y-5600480D01*
X7277895Y-5582103D01*
Y-5562212D01*
X7270283Y-5543835D01*
X7256218Y-5529769D01*
X7237840Y-5522158D01*
D02*
G37*
G36*
X7109633D02*
X7089742D01*
X7071365Y-5529769D01*
X7057300Y-5543835D01*
X7049688Y-5562212D01*
Y-5582103D01*
X7057300Y-5600480D01*
X7071365Y-5614546D01*
X7089742Y-5622157D01*
X7109633D01*
X7128011Y-5614546D01*
X7142076Y-5600480D01*
X7149688Y-5582103D01*
Y-5562212D01*
X7142076Y-5543835D01*
X7128011Y-5529769D01*
X7109633Y-5522158D01*
D02*
G37*
G36*
X6981881D02*
X6961989D01*
X6943612Y-5529769D01*
X6929547Y-5543835D01*
X6921935Y-5562212D01*
Y-5582103D01*
X6929547Y-5600480D01*
X6943612Y-5614546D01*
X6961989Y-5622157D01*
X6981881D01*
X7000258Y-5614546D01*
X7014323Y-5600480D01*
X7021935Y-5582103D01*
Y-5562212D01*
X7014323Y-5543835D01*
X7000258Y-5529769D01*
X6981881Y-5522158D01*
D02*
G37*
G36*
X5135133Y-5560923D02*
X5115242D01*
X5096865Y-5568534D01*
X5082799Y-5582600D01*
X5075187Y-5600977D01*
Y-5620868D01*
X5082799Y-5639245D01*
X5096865Y-5653311D01*
X5115242Y-5660922D01*
X5135133D01*
X5153510Y-5653311D01*
X5167575Y-5639245D01*
X5175187Y-5620868D01*
Y-5600977D01*
X5167575Y-5582600D01*
X5153510Y-5568534D01*
X5135133Y-5560923D01*
D02*
G37*
G36*
X696507Y-5498000D02*
X671493D01*
X647331Y-5504474D01*
X625669Y-5516981D01*
X607981Y-5534669D01*
X595474Y-5556332D01*
X589000Y-5580493D01*
Y-5605507D01*
X595474Y-5629668D01*
X607981Y-5651331D01*
X625669Y-5669019D01*
X647331Y-5681526D01*
X671493Y-5688000D01*
X696507D01*
X720668Y-5681526D01*
X742331Y-5669019D01*
X760019Y-5651331D01*
X772526Y-5629668D01*
X779000Y-5605507D01*
Y-5580493D01*
X772526Y-5556332D01*
X760019Y-5534669D01*
X742331Y-5516981D01*
X720668Y-5504474D01*
X696507Y-5498000D01*
D02*
G37*
G36*
X8868018Y-5647479D02*
X8848126D01*
X8829749Y-5655091D01*
X8815684Y-5669156D01*
X8808072Y-5687533D01*
Y-5707424D01*
X8815684Y-5725801D01*
X8829749Y-5739867D01*
X8848126Y-5747478D01*
X8868018D01*
X8886395Y-5739867D01*
X8900460Y-5725801D01*
X8908072Y-5707424D01*
Y-5687533D01*
X8900460Y-5669156D01*
X8886395Y-5655091D01*
X8868018Y-5647479D01*
D02*
G37*
G36*
X2145891Y-5687431D02*
X2128984D01*
X2113364Y-5693901D01*
X2101408Y-5705857D01*
X2094938Y-5721477D01*
Y-5738384D01*
X2101408Y-5754005D01*
X2113364Y-5765960D01*
X2128984Y-5772430D01*
X2145891D01*
X2161512Y-5765960D01*
X2173467Y-5754005D01*
X2179937Y-5738384D01*
Y-5721477D01*
X2173467Y-5705857D01*
X2161512Y-5693901D01*
X2145891Y-5687431D01*
D02*
G37*
G36*
X5304135Y-5685922D02*
X5284244D01*
X5265867Y-5693534D01*
X5251801Y-5707599D01*
X5244189Y-5725977D01*
Y-5745868D01*
X5251801Y-5764245D01*
X5265867Y-5778310D01*
X5284244Y-5785922D01*
X5304135D01*
X5322512Y-5778310D01*
X5336577Y-5764245D01*
X5344189Y-5745868D01*
Y-5725977D01*
X5336577Y-5707599D01*
X5322512Y-5693534D01*
X5304135Y-5685922D01*
D02*
G37*
G36*
X442507Y-5625000D02*
X417493D01*
X393331Y-5631474D01*
X371669Y-5643981D01*
X353981Y-5661669D01*
X341474Y-5683332D01*
X335000Y-5707493D01*
Y-5732507D01*
X341474Y-5756668D01*
X353981Y-5778331D01*
X371669Y-5796019D01*
X393331Y-5808526D01*
X417493Y-5815000D01*
X442507D01*
X466668Y-5808526D01*
X488331Y-5796019D01*
X506019Y-5778331D01*
X518526Y-5756668D01*
X525000Y-5732507D01*
Y-5707493D01*
X518526Y-5683332D01*
X506019Y-5661669D01*
X488331Y-5643981D01*
X466668Y-5631474D01*
X442507Y-5625000D01*
D02*
G37*
G36*
X8868018Y-5850636D02*
X8848126D01*
X8829749Y-5858248D01*
X8815684Y-5872313D01*
X8808072Y-5890690D01*
Y-5910582D01*
X8815684Y-5928959D01*
X8829749Y-5943024D01*
X8848126Y-5950636D01*
X8868018D01*
X8886395Y-5943024D01*
X8900460Y-5928959D01*
X8908072Y-5910582D01*
Y-5890690D01*
X8900460Y-5872313D01*
X8886395Y-5858248D01*
X8868018Y-5850636D01*
D02*
G37*
G36*
X9659690Y-5850649D02*
X9639799D01*
X9621421Y-5858261D01*
X9607356Y-5872326D01*
X9599744Y-5890703D01*
Y-5910595D01*
X9607356Y-5928972D01*
X9621421Y-5943037D01*
X9639799Y-5950649D01*
X9659690D01*
X9678067Y-5943037D01*
X9692132Y-5928972D01*
X9699744Y-5910595D01*
Y-5890703D01*
X9692132Y-5872326D01*
X9678067Y-5858261D01*
X9659690Y-5850649D01*
D02*
G37*
G36*
X2060709Y-5881972D02*
X2043802D01*
X2028182Y-5888442D01*
X2016226Y-5900398D01*
X2009756Y-5916018D01*
Y-5932925D01*
X2016226Y-5948546D01*
X2028182Y-5960501D01*
X2043802Y-5966972D01*
X2060709D01*
X2076330Y-5960501D01*
X2088285Y-5948546D01*
X2094756Y-5932925D01*
Y-5916018D01*
X2088285Y-5900398D01*
X2076330Y-5888442D01*
X2060709Y-5881972D01*
D02*
G37*
G36*
X1419510Y-5978039D02*
X1399619D01*
X1381242Y-5985651D01*
X1367177Y-5999716D01*
X1359565Y-6018093D01*
Y-6037984D01*
X1367177Y-6056362D01*
X1381242Y-6070427D01*
X1399619Y-6078039D01*
X1419510D01*
X1437887Y-6070427D01*
X1451953Y-6056362D01*
X1459565Y-6037984D01*
Y-6018093D01*
X1451953Y-5999716D01*
X1437887Y-5985651D01*
X1419510Y-5978039D01*
D02*
G37*
G36*
X2312240Y-6046787D02*
X2292349D01*
X2273972Y-6054399D01*
X2259907Y-6068465D01*
X2252295Y-6086842D01*
Y-6106733D01*
X2259907Y-6125110D01*
X2273972Y-6139175D01*
X2292349Y-6146787D01*
X2312240D01*
X2330618Y-6139175D01*
X2344683Y-6125110D01*
X2352295Y-6106733D01*
Y-6086842D01*
X2344683Y-6068465D01*
X2330618Y-6054399D01*
X2312240Y-6046787D01*
D02*
G37*
G36*
X8868018Y-6054877D02*
X8848126D01*
X8829749Y-6062489D01*
X8815684Y-6076554D01*
X8808072Y-6094931D01*
Y-6114822D01*
X8815684Y-6133200D01*
X8829749Y-6147265D01*
X8848126Y-6154877D01*
X8868018D01*
X8886395Y-6147265D01*
X8900460Y-6133200D01*
X8908072Y-6114822D01*
Y-6094931D01*
X8900460Y-6076554D01*
X8886395Y-6062489D01*
X8868018Y-6054877D01*
D02*
G37*
G36*
X9659690Y-6058067D02*
X9639799D01*
X9621421Y-6065679D01*
X9607356Y-6079744D01*
X9599744Y-6098121D01*
Y-6118013D01*
X9607356Y-6136390D01*
X9621421Y-6150455D01*
X9639799Y-6158067D01*
X9659690D01*
X9678067Y-6150455D01*
X9692132Y-6136390D01*
X9699744Y-6118013D01*
Y-6098121D01*
X9692132Y-6079744D01*
X9678067Y-6065679D01*
X9659690Y-6058067D01*
D02*
G37*
G36*
X4688000Y-6022000D02*
X4488000D01*
Y-6222000D01*
X4688000D01*
Y-6022000D01*
D02*
G37*
G36*
X4347165D02*
X4320835D01*
X4295402Y-6028815D01*
X4272599Y-6041980D01*
X4253980Y-6060599D01*
X4240815Y-6083402D01*
X4234000Y-6108835D01*
Y-6135165D01*
X4240815Y-6160598D01*
X4253980Y-6183401D01*
X4272599Y-6202020D01*
X4295402Y-6215185D01*
X4320835Y-6222000D01*
X4347165D01*
X4372598Y-6215185D01*
X4395401Y-6202020D01*
X4414020Y-6183401D01*
X4427185Y-6160598D01*
X4434000Y-6135165D01*
Y-6108835D01*
X4427185Y-6083402D01*
X4414020Y-6060599D01*
X4395401Y-6041980D01*
X4372598Y-6028815D01*
X4347165Y-6022000D01*
D02*
G37*
G36*
X4093165D02*
X4066835D01*
X4041402Y-6028815D01*
X4018599Y-6041980D01*
X3999980Y-6060599D01*
X3986815Y-6083402D01*
X3980000Y-6108835D01*
Y-6135165D01*
X3986815Y-6160598D01*
X3999980Y-6183401D01*
X4018599Y-6202020D01*
X4041402Y-6215185D01*
X4066835Y-6222000D01*
X4093165D01*
X4118598Y-6215185D01*
X4141401Y-6202020D01*
X4160020Y-6183401D01*
X4173185Y-6160598D01*
X4180000Y-6135165D01*
Y-6108835D01*
X4173185Y-6083402D01*
X4160020Y-6060599D01*
X4141401Y-6041980D01*
X4118598Y-6028815D01*
X4093165Y-6022000D01*
D02*
G37*
G36*
X8868018Y-6264192D02*
X8848126D01*
X8829749Y-6271804D01*
X8815684Y-6285869D01*
X8808072Y-6304246D01*
Y-6324138D01*
X8815684Y-6342515D01*
X8829749Y-6356580D01*
X8848126Y-6364192D01*
X8868018D01*
X8886395Y-6356580D01*
X8900460Y-6342515D01*
X8908072Y-6324138D01*
Y-6304246D01*
X8900460Y-6285869D01*
X8886395Y-6271804D01*
X8868018Y-6264192D01*
D02*
G37*
G36*
X-182271Y-6052000D02*
X-217728D01*
X-252504Y-6058917D01*
X-285262Y-6072486D01*
X-314743Y-6092185D01*
X-339815Y-6117257D01*
X-359514Y-6146738D01*
X-373083Y-6179496D01*
X-380000Y-6214272D01*
Y-6249728D01*
X-373083Y-6284504D01*
X-359514Y-6317262D01*
X-339815Y-6346743D01*
X-314743Y-6371815D01*
X-285262Y-6391514D01*
X-252504Y-6405083D01*
X-217728Y-6412000D01*
X-182271D01*
X-147496Y-6405083D01*
X-114738Y-6391514D01*
X-85257Y-6371815D01*
X-60185Y-6346743D01*
X-40486Y-6317262D01*
X-26917Y-6284504D01*
X-20000Y-6249728D01*
Y-6214272D01*
X-26917Y-6179496D01*
X-40486Y-6146738D01*
X-60185Y-6117257D01*
X-85257Y-6092185D01*
X-114738Y-6072486D01*
X-147496Y-6058917D01*
X-182271Y-6052000D01*
D02*
G37*
G36*
X5555079Y-6446502D02*
X5535187D01*
X5516810Y-6454114D01*
X5502745Y-6468180D01*
X5495133Y-6486557D01*
Y-6506448D01*
X5502745Y-6524825D01*
X5516810Y-6538890D01*
X5535187Y-6546502D01*
X5555079D01*
X5573456Y-6538890D01*
X5587521Y-6524825D01*
X5595133Y-6506448D01*
Y-6486557D01*
X5587521Y-6468180D01*
X5573456Y-6454114D01*
X5555079Y-6446502D01*
D02*
G37*
G36*
X5405079D02*
X5385187D01*
X5366810Y-6454114D01*
X5352745Y-6468180D01*
X5345133Y-6486557D01*
Y-6506448D01*
X5352745Y-6524825D01*
X5366810Y-6538890D01*
X5385187Y-6546502D01*
X5405079D01*
X5423456Y-6538890D01*
X5437521Y-6524825D01*
X5445133Y-6506448D01*
Y-6486557D01*
X5437521Y-6468180D01*
X5423456Y-6454114D01*
X5405079Y-6446502D01*
D02*
G37*
G36*
X5255079D02*
X5235187D01*
X5216810Y-6454114D01*
X5202745Y-6468180D01*
X5195133Y-6486557D01*
Y-6506448D01*
X5202745Y-6524825D01*
X5216810Y-6538890D01*
X5235187Y-6546502D01*
X5255079D01*
X5273456Y-6538890D01*
X5287521Y-6524825D01*
X5295133Y-6506448D01*
Y-6486557D01*
X5287521Y-6468180D01*
X5273456Y-6454114D01*
X5255079Y-6446502D01*
D02*
G37*
G36*
X8868018Y-6470970D02*
X8848126D01*
X8829749Y-6478582D01*
X8815684Y-6492647D01*
X8808072Y-6511024D01*
Y-6530916D01*
X8815684Y-6549293D01*
X8829749Y-6563358D01*
X8848126Y-6570970D01*
X8868018D01*
X8886395Y-6563358D01*
X8900460Y-6549293D01*
X8908072Y-6530916D01*
Y-6511024D01*
X8900460Y-6492647D01*
X8886395Y-6478582D01*
X8868018Y-6470970D01*
D02*
G37*
G36*
X584298Y-6734084D02*
X567391D01*
X551770Y-6740554D01*
X539815Y-6752510D01*
X533344Y-6768130D01*
Y-6785037D01*
X539815Y-6800658D01*
X551770Y-6812614D01*
X567391Y-6819084D01*
X584298D01*
X599918Y-6812614D01*
X611874Y-6800658D01*
X618344Y-6785037D01*
Y-6768130D01*
X611874Y-6752510D01*
X599918Y-6740554D01*
X584298Y-6734084D01*
D02*
G37*
G36*
X2316175Y-6777700D02*
X2299268D01*
X2283648Y-6784170D01*
X2271692Y-6796126D01*
X2265222Y-6811746D01*
Y-6828653D01*
X2271692Y-6844274D01*
X2283648Y-6856229D01*
X2299268Y-6862700D01*
X2316175D01*
X2331796Y-6856229D01*
X2343751Y-6844274D01*
X2350222Y-6828653D01*
Y-6811746D01*
X2343751Y-6796126D01*
X2331796Y-6784170D01*
X2316175Y-6777700D01*
D02*
G37*
G36*
X2483653Y-7017790D02*
X2466746D01*
X2451125Y-7024261D01*
X2439170Y-7036216D01*
X2432699Y-7051837D01*
Y-7068744D01*
X2439170Y-7084364D01*
X2451125Y-7096320D01*
X2466746Y-7102790D01*
X2483653D01*
X2499273Y-7096320D01*
X2511229Y-7084364D01*
X2517699Y-7068744D01*
Y-7051837D01*
X2511229Y-7036216D01*
X2499273Y-7024261D01*
X2483653Y-7017790D01*
D02*
G37*
G36*
X2656153Y-7018559D02*
X2639246D01*
X2623626Y-7025030D01*
X2611670Y-7036985D01*
X2605200Y-7052606D01*
Y-7069513D01*
X2611670Y-7085133D01*
X2623626Y-7097089D01*
X2639246Y-7103559D01*
X2656153D01*
X2671774Y-7097089D01*
X2683729Y-7085133D01*
X2690200Y-7069513D01*
Y-7052606D01*
X2683729Y-7036985D01*
X2671774Y-7025030D01*
X2656153Y-7018559D01*
D02*
G37*
G36*
X2295211Y-6975964D02*
X2278304D01*
X2262684Y-6982434D01*
X2250728Y-6994389D01*
X2244258Y-7010010D01*
Y-7013622D01*
X2238454Y-7017500D01*
X2221547D01*
X2205926Y-7023970D01*
X2193971Y-7035926D01*
X2187501Y-7051546D01*
Y-7068454D01*
X2193971Y-7084074D01*
X2205926Y-7096030D01*
X2221547Y-7102500D01*
X2238454D01*
X2254075Y-7096030D01*
X2266030Y-7084074D01*
X2272500Y-7068454D01*
Y-7064841D01*
X2278304Y-7060963D01*
X2295211D01*
X2305135Y-7056853D01*
X2317583Y-7063939D01*
X2317836Y-7064292D01*
Y-7071802D01*
X2324306Y-7087423D01*
X2336261Y-7099378D01*
X2351882Y-7105849D01*
X2368789D01*
X2384410Y-7099378D01*
X2396365Y-7087423D01*
X2402835Y-7071802D01*
Y-7054895D01*
X2396365Y-7039275D01*
X2384410Y-7027319D01*
X2368789Y-7020849D01*
X2351882D01*
X2341958Y-7024960D01*
X2329510Y-7017873D01*
X2329257Y-7017520D01*
Y-7010010D01*
X2322787Y-6994389D01*
X2310832Y-6982434D01*
X2295211Y-6975964D01*
D02*
G37*
G36*
X2129056Y-7023274D02*
X2112148D01*
X2096528Y-7029744D01*
X2084572Y-7041699D01*
X2078102Y-7057320D01*
Y-7074227D01*
X2084572Y-7089848D01*
X2096528Y-7101803D01*
X2112148Y-7108273D01*
X2129056D01*
X2144676Y-7101803D01*
X2156632Y-7089848D01*
X2163102Y-7074227D01*
Y-7057320D01*
X2156632Y-7041699D01*
X2144676Y-7029744D01*
X2129056Y-7023274D01*
D02*
G37*
G36*
X1895820Y-7024779D02*
X1878913D01*
X1863292Y-7031249D01*
X1851337Y-7043205D01*
X1844867Y-7058825D01*
Y-7075732D01*
X1851337Y-7091353D01*
X1863292Y-7103308D01*
X1878913Y-7109779D01*
X1895820D01*
X1911441Y-7103308D01*
X1923396Y-7091353D01*
X1929866Y-7075732D01*
Y-7058825D01*
X1923396Y-7043205D01*
X1911441Y-7031249D01*
X1895820Y-7024779D01*
D02*
G37*
G36*
X2009855Y-7025478D02*
X1992948D01*
X1977327Y-7031948D01*
X1965371Y-7043904D01*
X1958901Y-7059524D01*
Y-7076432D01*
X1965371Y-7092052D01*
X1977327Y-7104008D01*
X1992948Y-7110478D01*
X2009855D01*
X2025475Y-7104008D01*
X2037431Y-7092052D01*
X2043901Y-7076432D01*
Y-7059524D01*
X2037431Y-7043904D01*
X2025475Y-7031948D01*
X2009855Y-7025478D01*
D02*
G37*
G36*
X1771153Y-7027500D02*
X1754246D01*
X1738626Y-7033970D01*
X1726670Y-7045926D01*
X1720200Y-7061546D01*
Y-7078454D01*
X1726670Y-7094074D01*
X1738626Y-7106030D01*
X1754246Y-7112500D01*
X1771153D01*
X1786774Y-7106030D01*
X1798729Y-7094074D01*
X1805200Y-7078454D01*
Y-7061546D01*
X1798729Y-7045926D01*
X1786774Y-7033970D01*
X1771153Y-7027500D01*
D02*
G37*
G36*
X368482Y-6936000D02*
X339518D01*
X311542Y-6943496D01*
X286459Y-6957978D01*
X265978Y-6978458D01*
X251497Y-7003541D01*
X244000Y-7031518D01*
Y-7060482D01*
X251497Y-7088458D01*
X265978Y-7113541D01*
X286459Y-7134022D01*
X311542Y-7148503D01*
X339518Y-7156000D01*
X368482D01*
X396458Y-7148503D01*
X421541Y-7134022D01*
X442022Y-7113541D01*
X456504Y-7088458D01*
X464000Y-7060482D01*
Y-7031518D01*
X456504Y-7003541D01*
X442022Y-6978458D01*
X421541Y-6957978D01*
X396458Y-6943496D01*
X368482Y-6936000D01*
D02*
G37*
G36*
X114482D02*
X85518D01*
X57542Y-6943496D01*
X32459Y-6957978D01*
X11978Y-6978458D01*
X-2503Y-7003541D01*
X-10000Y-7031518D01*
Y-7060482D01*
X-2503Y-7088458D01*
X11978Y-7113541D01*
X32459Y-7134022D01*
X57542Y-7148503D01*
X85518Y-7156000D01*
X114482D01*
X142458Y-7148503D01*
X167541Y-7134022D01*
X188022Y-7113541D01*
X202504Y-7088458D01*
X210000Y-7060482D01*
Y-7031518D01*
X202504Y-7003541D01*
X188022Y-6978458D01*
X167541Y-6957978D01*
X142458Y-6943496D01*
X114482Y-6936000D01*
D02*
G37*
G36*
X3210746Y-7138387D02*
X3184415D01*
X3158982Y-7145201D01*
X3136179Y-7158367D01*
X3117561Y-7176985D01*
X3104395Y-7199788D01*
X3097581Y-7225221D01*
Y-7251552D01*
X3104395Y-7276985D01*
X3117561Y-7299788D01*
X3136179Y-7318406D01*
X3158982Y-7331571D01*
X3184415Y-7338386D01*
X3210746D01*
X3236179Y-7331571D01*
X3258982Y-7318406D01*
X3277600Y-7299788D01*
X3290765Y-7276985D01*
X3297580Y-7251552D01*
Y-7225221D01*
X3290765Y-7199788D01*
X3277600Y-7176985D01*
X3258982Y-7158367D01*
X3236179Y-7145201D01*
X3210746Y-7138387D01*
D02*
G37*
G36*
X2363854Y-7288926D02*
X2346946D01*
X2331326Y-7295396D01*
X2319370Y-7307352D01*
X2312900Y-7322972D01*
Y-7339880D01*
X2319370Y-7355500D01*
X2331326Y-7367456D01*
X2346946Y-7373926D01*
X2363854D01*
X2379474Y-7367456D01*
X2391430Y-7355500D01*
X2397900Y-7339880D01*
Y-7322972D01*
X2391430Y-7307352D01*
X2379474Y-7295396D01*
X2363854Y-7288926D01*
D02*
G37*
G36*
X2023692Y-7292643D02*
X2006785D01*
X1991164Y-7299113D01*
X1979209Y-7311068D01*
X1972739Y-7326689D01*
Y-7343596D01*
X1979209Y-7359217D01*
X1991164Y-7371172D01*
X2006785Y-7377642D01*
X2023692D01*
X2039313Y-7371172D01*
X2051268Y-7359217D01*
X2057738Y-7343596D01*
Y-7326689D01*
X2051268Y-7311068D01*
X2039313Y-7299113D01*
X2023692Y-7292643D01*
D02*
G37*
G36*
X1768654Y-7287500D02*
X1751746D01*
X1736126Y-7293970D01*
X1724170Y-7305926D01*
X1717700Y-7321546D01*
Y-7338454D01*
X1724170Y-7354074D01*
X1736126Y-7366030D01*
X1751746Y-7372500D01*
X1768654D01*
X1784274Y-7366030D01*
X1792600Y-7357704D01*
X1803426Y-7368530D01*
X1819046Y-7375000D01*
X1835954D01*
X1851574Y-7368530D01*
X1859941Y-7360162D01*
X1872210Y-7360424D01*
X1875025Y-7361672D01*
X1885766Y-7372414D01*
X1901386Y-7378884D01*
X1918294D01*
X1933914Y-7372414D01*
X1945870Y-7360458D01*
X1952340Y-7344837D01*
Y-7327930D01*
X1945870Y-7312310D01*
X1933914Y-7300354D01*
X1918294Y-7293884D01*
X1901386D01*
X1885766Y-7300354D01*
X1877399Y-7308721D01*
X1865130Y-7308460D01*
X1862315Y-7307211D01*
X1851574Y-7296470D01*
X1835954Y-7290000D01*
X1819046D01*
X1803426Y-7296470D01*
X1795100Y-7304796D01*
X1784274Y-7293970D01*
X1768654Y-7287500D01*
D02*
G37*
G36*
X2125041Y-7301066D02*
X2108134D01*
X2092514Y-7307536D01*
X2080558Y-7319492D01*
X2074088Y-7335112D01*
Y-7352019D01*
X2080558Y-7367640D01*
X2092514Y-7379595D01*
X2108134Y-7386065D01*
X2125041D01*
X2140662Y-7379595D01*
X2152617Y-7367640D01*
X2159088Y-7352019D01*
Y-7335112D01*
X2152617Y-7319492D01*
X2140662Y-7307536D01*
X2125041Y-7301066D01*
D02*
G37*
G36*
X114482Y-7190000D02*
X85518D01*
X57542Y-7197496D01*
X32459Y-7211978D01*
X11978Y-7232458D01*
X-2503Y-7257541D01*
X-10000Y-7285518D01*
Y-7314482D01*
X-2503Y-7342458D01*
X11978Y-7367541D01*
X32459Y-7388022D01*
X57542Y-7402503D01*
X85518Y-7410000D01*
X114482D01*
X142458Y-7402503D01*
X167541Y-7388022D01*
X188022Y-7367541D01*
X202504Y-7342458D01*
X210000Y-7314482D01*
Y-7285518D01*
X202504Y-7257541D01*
X188022Y-7232458D01*
X167541Y-7211978D01*
X142458Y-7197496D01*
X114482Y-7190000D01*
D02*
G37*
G36*
X2833453Y-7343520D02*
X2816545D01*
X2800925Y-7349990D01*
X2788969Y-7361946D01*
X2782499Y-7377566D01*
Y-7394473D01*
X2788969Y-7410094D01*
X2800925Y-7422049D01*
X2816545Y-7428520D01*
X2833453D01*
X2849073Y-7422049D01*
X2861029Y-7410094D01*
X2867499Y-7394473D01*
Y-7377566D01*
X2861029Y-7361946D01*
X2849073Y-7349990D01*
X2833453Y-7343520D01*
D02*
G37*
G36*
X910008Y-7430284D02*
X890116D01*
X871739Y-7437896D01*
X857674Y-7451961D01*
X850062Y-7470338D01*
Y-7490229D01*
X857674Y-7508607D01*
X871739Y-7522672D01*
X890116Y-7530284D01*
X910008D01*
X928385Y-7522672D01*
X942450Y-7508607D01*
X950062Y-7490229D01*
Y-7470338D01*
X942450Y-7451961D01*
X928385Y-7437896D01*
X910008Y-7430284D01*
D02*
G37*
G36*
X3210746Y-7392387D02*
X3184415D01*
X3158982Y-7399201D01*
X3136179Y-7412367D01*
X3117561Y-7430985D01*
X3104395Y-7453788D01*
X3097581Y-7479221D01*
Y-7505552D01*
X3104395Y-7530985D01*
X3117561Y-7553788D01*
X3136179Y-7572406D01*
X3158982Y-7585571D01*
X3184415Y-7592386D01*
X3210746D01*
X3236179Y-7585571D01*
X3258982Y-7572406D01*
X3277600Y-7553788D01*
X3290765Y-7530985D01*
X3297580Y-7505552D01*
Y-7479221D01*
X3290765Y-7453788D01*
X3277600Y-7430985D01*
X3258982Y-7412367D01*
X3236179Y-7399201D01*
X3210746Y-7392387D01*
D02*
G37*
G36*
X7461807Y-7514331D02*
X7444900D01*
X7429279Y-7520802D01*
X7417324Y-7532757D01*
X7410854Y-7548378D01*
Y-7565285D01*
X7417324Y-7580905D01*
X7429279Y-7592861D01*
X7444900Y-7599331D01*
X7461807D01*
X7477428Y-7592861D01*
X7489383Y-7580905D01*
X7495853Y-7565285D01*
Y-7548378D01*
X7489383Y-7532757D01*
X7477428Y-7520802D01*
X7461807Y-7514331D01*
D02*
G37*
G36*
X368482Y-7444000D02*
X339518D01*
X311542Y-7451496D01*
X286459Y-7465978D01*
X265978Y-7486458D01*
X251497Y-7511541D01*
X244000Y-7539518D01*
Y-7568482D01*
X251497Y-7596458D01*
X265978Y-7621541D01*
X286459Y-7642022D01*
X311542Y-7656503D01*
X339518Y-7664000D01*
X368482D01*
X396458Y-7656503D01*
X421541Y-7642022D01*
X442022Y-7621541D01*
X456504Y-7596458D01*
X464000Y-7568482D01*
Y-7539518D01*
X456504Y-7511541D01*
X442022Y-7486458D01*
X421541Y-7465978D01*
X396458Y-7451496D01*
X368482Y-7444000D01*
D02*
G37*
G36*
X114482D02*
X85518D01*
X57542Y-7451496D01*
X32459Y-7465978D01*
X11978Y-7486458D01*
X-2503Y-7511541D01*
X-10000Y-7539518D01*
Y-7568482D01*
X-2503Y-7596458D01*
X11978Y-7621541D01*
X32459Y-7642022D01*
X57542Y-7656503D01*
X85518Y-7664000D01*
X114482D01*
X142458Y-7656503D01*
X167541Y-7642022D01*
X188022Y-7621541D01*
X202504Y-7596458D01*
X210000Y-7568482D01*
Y-7539518D01*
X202504Y-7511541D01*
X188022Y-7486458D01*
X167541Y-7465978D01*
X142458Y-7451496D01*
X114482Y-7444000D01*
D02*
G37*
G36*
X2867986Y-7511534D02*
X2851079D01*
X2835459Y-7518004D01*
X2823503Y-7529960D01*
X2817033Y-7545580D01*
Y-7562487D01*
X2823503Y-7578108D01*
X2831101Y-7585705D01*
X2835458Y-7590063D01*
X2831309Y-7602091D01*
X2828919Y-7604480D01*
X2822449Y-7620101D01*
Y-7637008D01*
X2828919Y-7652628D01*
X2840875Y-7664584D01*
X2856495Y-7671054D01*
X2873403D01*
X2889023Y-7664584D01*
X2900979Y-7652628D01*
X2907449Y-7637008D01*
Y-7620101D01*
X2900979Y-7604480D01*
X2893381Y-7596883D01*
X2889023Y-7592525D01*
X2893173Y-7580497D01*
X2895562Y-7578108D01*
X2902033Y-7562487D01*
Y-7545580D01*
X2895562Y-7529960D01*
X2883607Y-7518004D01*
X2867986Y-7511534D01*
D02*
G37*
G36*
X2479644Y-7505147D02*
X2462737D01*
X2447117Y-7511617D01*
X2435161Y-7523572D01*
X2428691Y-7539193D01*
Y-7556100D01*
X2435161Y-7571721D01*
X2442979Y-7579539D01*
X2441353Y-7593734D01*
X2441072Y-7594225D01*
X2429370Y-7605926D01*
X2422900Y-7621546D01*
Y-7638454D01*
X2429370Y-7654074D01*
X2441326Y-7666030D01*
X2456946Y-7672500D01*
X2473854D01*
X2489474Y-7666030D01*
X2501430Y-7654074D01*
X2507900Y-7638454D01*
Y-7621546D01*
X2501430Y-7605926D01*
X2493611Y-7598107D01*
X2495238Y-7583913D01*
X2495519Y-7583422D01*
X2507220Y-7571721D01*
X2513690Y-7556100D01*
Y-7539193D01*
X2507220Y-7523572D01*
X2495265Y-7511617D01*
X2479644Y-7505147D01*
D02*
G37*
G36*
X1447219Y-7600603D02*
X1430311D01*
X1414691Y-7607073D01*
X1402735Y-7619028D01*
X1396265Y-7634649D01*
Y-7651556D01*
X1402735Y-7667176D01*
X1414691Y-7679132D01*
X1430311Y-7685602D01*
X1447219D01*
X1462839Y-7679132D01*
X1474795Y-7667176D01*
X1481265Y-7651556D01*
Y-7634649D01*
X1474795Y-7619028D01*
X1462839Y-7607073D01*
X1447219Y-7600603D01*
D02*
G37*
G36*
X1914725Y-7633821D02*
X1897818D01*
X1882198Y-7640291D01*
X1870242Y-7652247D01*
X1863772Y-7667867D01*
Y-7676025D01*
X1856036Y-7685838D01*
X1852038Y-7686387D01*
X1838696D01*
X1823076Y-7692858D01*
X1811120Y-7704813D01*
X1804650Y-7720434D01*
Y-7729673D01*
X1792359Y-7738329D01*
X1788793Y-7736851D01*
X1771885D01*
X1756265Y-7743322D01*
X1744309Y-7755277D01*
X1737839Y-7770898D01*
Y-7787805D01*
X1744309Y-7803425D01*
X1756265Y-7815381D01*
X1771885Y-7821851D01*
X1788793D01*
X1804413Y-7815381D01*
X1816369Y-7803425D01*
X1822839Y-7787805D01*
Y-7778565D01*
X1835130Y-7769910D01*
X1838696Y-7771387D01*
X1855603D01*
X1871224Y-7764917D01*
X1883179Y-7752961D01*
X1889650Y-7737341D01*
Y-7729184D01*
X1897385Y-7719370D01*
X1901383Y-7718821D01*
X1914725D01*
X1930346Y-7712351D01*
X1942301Y-7700395D01*
X1948772Y-7684775D01*
Y-7667867D01*
X1942301Y-7652247D01*
X1930346Y-7640291D01*
X1914725Y-7633821D01*
D02*
G37*
G36*
X2543703Y-7687878D02*
X2526795D01*
X2511175Y-7694348D01*
X2499219Y-7706304D01*
X2492749Y-7721924D01*
Y-7738831D01*
X2499219Y-7754452D01*
X2511175Y-7766407D01*
X2526795Y-7772878D01*
X2543703D01*
X2559323Y-7766407D01*
X2571279Y-7754452D01*
X2577749Y-7738831D01*
Y-7721924D01*
X2571279Y-7706304D01*
X2559323Y-7694348D01*
X2543703Y-7687878D01*
D02*
G37*
G36*
X3210746Y-7646387D02*
X3184415D01*
X3158982Y-7653201D01*
X3136179Y-7666367D01*
X3117561Y-7684985D01*
X3104395Y-7707788D01*
X3097581Y-7733221D01*
Y-7759552D01*
X3104395Y-7784985D01*
X3117561Y-7807788D01*
X3136179Y-7826406D01*
X3158982Y-7839571D01*
X3184415Y-7846386D01*
X3210746D01*
X3236179Y-7839571D01*
X3258982Y-7826406D01*
X3277600Y-7807788D01*
X3290765Y-7784985D01*
X3297580Y-7759552D01*
Y-7733221D01*
X3290765Y-7707788D01*
X3277600Y-7684985D01*
X3258982Y-7666367D01*
X3236179Y-7653201D01*
X3210746Y-7646387D01*
D02*
G37*
G36*
X879371Y-7761084D02*
X859480D01*
X841103Y-7768696D01*
X827037Y-7782761D01*
X819426Y-7801139D01*
Y-7821030D01*
X827037Y-7839407D01*
X841103Y-7853472D01*
X859480Y-7861084D01*
X879371D01*
X897748Y-7853472D01*
X911814Y-7839407D01*
X919425Y-7821030D01*
Y-7801139D01*
X911814Y-7782761D01*
X897748Y-7768696D01*
X879371Y-7761084D01*
D02*
G37*
G36*
X7289600Y-7738457D02*
X7271169D01*
X7253365Y-7743227D01*
X7237404Y-7752443D01*
X7224371Y-7765476D01*
X7215155Y-7781438D01*
X7210385Y-7799241D01*
Y-7817672D01*
X7215155Y-7835476D01*
X7224371Y-7851438D01*
X7237404Y-7864471D01*
X7253365Y-7873686D01*
X7271169Y-7878457D01*
X7289600D01*
X7307403Y-7873686D01*
X7323365Y-7864471D01*
X7336398Y-7851438D01*
X7345614Y-7835476D01*
X7350384Y-7817672D01*
Y-7799241D01*
X7345614Y-7781438D01*
X7336398Y-7765476D01*
X7323365Y-7752443D01*
X7307403Y-7743227D01*
X7289600Y-7738457D01*
D02*
G37*
G36*
X2912509Y-7820809D02*
X2895602D01*
X2879981Y-7827279D01*
X2868026Y-7839235D01*
X2861556Y-7854855D01*
Y-7871762D01*
X2868026Y-7887383D01*
X2879981Y-7899338D01*
X2895602Y-7905808D01*
X2912509D01*
X2928130Y-7899338D01*
X2940085Y-7887383D01*
X2946555Y-7871762D01*
Y-7854855D01*
X2940085Y-7839235D01*
X2928130Y-7827279D01*
X2912509Y-7820809D01*
D02*
G37*
G36*
X7918163Y-7830669D02*
X7901255D01*
X7885635Y-7837140D01*
X7873679Y-7849095D01*
X7867209Y-7864716D01*
Y-7881623D01*
X7873679Y-7897243D01*
X7885635Y-7909199D01*
X7901255Y-7915669D01*
X7918163D01*
X7933783Y-7909199D01*
X7945739Y-7897243D01*
X7952209Y-7881623D01*
Y-7864716D01*
X7945739Y-7849095D01*
X7933783Y-7837140D01*
X7918163Y-7830669D01*
D02*
G37*
G36*
X8465047Y-7583042D02*
X8440033D01*
X8415871Y-7589516D01*
X8394209Y-7602023D01*
X8376521Y-7619710D01*
X8364014Y-7641373D01*
X8357540Y-7665535D01*
Y-7690548D01*
X8364014Y-7714710D01*
X8376521Y-7736373D01*
X8394209Y-7754060D01*
X8415871Y-7766567D01*
X8434159Y-7771468D01*
Y-7784616D01*
X8415871Y-7789516D01*
X8394209Y-7802023D01*
X8376521Y-7819711D01*
X8364014Y-7841373D01*
X8357540Y-7865535D01*
Y-7890549D01*
X8364014Y-7914710D01*
X8376521Y-7936373D01*
X8394209Y-7954060D01*
X8415871Y-7966567D01*
X8440033Y-7973041D01*
X8465047D01*
X8489208Y-7966567D01*
X8510871Y-7954060D01*
X8528558Y-7936373D01*
X8541065Y-7914710D01*
X8547539Y-7890549D01*
Y-7865535D01*
X8541065Y-7841373D01*
X8528558Y-7819711D01*
X8510871Y-7802023D01*
X8489208Y-7789516D01*
X8470920Y-7784616D01*
Y-7771468D01*
X8489208Y-7766567D01*
X8510871Y-7754060D01*
X8528558Y-7736373D01*
X8541065Y-7714710D01*
X8547539Y-7690548D01*
Y-7665535D01*
X8541065Y-7641373D01*
X8528558Y-7619710D01*
X8510871Y-7602023D01*
X8489208Y-7589516D01*
X8465047Y-7583042D01*
D02*
G37*
G36*
X2603454Y-7907500D02*
X2586546D01*
X2570926Y-7913970D01*
X2558970Y-7925926D01*
X2552500Y-7941546D01*
Y-7958454D01*
X2558970Y-7974074D01*
X2570926Y-7986030D01*
X2586546Y-7992500D01*
X2603454D01*
X2619074Y-7986030D01*
X2631030Y-7974074D01*
X2637500Y-7958454D01*
Y-7941546D01*
X2631030Y-7925926D01*
X2619074Y-7913970D01*
X2603454Y-7907500D01*
D02*
G37*
G36*
X1775954Y-7930000D02*
X1759046D01*
X1743426Y-7936470D01*
X1731470Y-7948426D01*
X1725000Y-7964046D01*
Y-7980954D01*
X1731470Y-7996574D01*
X1736812Y-8001916D01*
X1729618Y-8012683D01*
X1728454Y-8012200D01*
X1711546D01*
X1695926Y-8018671D01*
X1683970Y-8030626D01*
X1677500Y-8046247D01*
Y-8063154D01*
X1683970Y-8078774D01*
X1695926Y-8090730D01*
X1711546Y-8097200D01*
X1724525D01*
Y-8112222D01*
X1730955Y-8127744D01*
X1719846Y-8132346D01*
X1707891Y-8144301D01*
X1701421Y-8159922D01*
Y-8176829D01*
X1707891Y-8192449D01*
X1719846Y-8204405D01*
X1735467Y-8210875D01*
X1752374D01*
X1767995Y-8204405D01*
X1779950Y-8192449D01*
X1786420Y-8176829D01*
Y-8159922D01*
X1779991Y-8144400D01*
X1791099Y-8139798D01*
X1803055Y-8127843D01*
X1809525Y-8112222D01*
Y-8095315D01*
X1803055Y-8079695D01*
X1791099Y-8067739D01*
X1775479Y-8061269D01*
X1762500D01*
Y-8046247D01*
X1756030Y-8030626D01*
X1750688Y-8025284D01*
X1757882Y-8014517D01*
X1759046Y-8015000D01*
X1775954D01*
X1791574Y-8008530D01*
X1803530Y-7996574D01*
X1810000Y-7980954D01*
Y-7964046D01*
X1803530Y-7948426D01*
X1791574Y-7936470D01*
X1775954Y-7930000D01*
D02*
G37*
G36*
X3210746Y-7900387D02*
X3184415D01*
X3158982Y-7907201D01*
X3136179Y-7920367D01*
X3117561Y-7938985D01*
X3104395Y-7961788D01*
X3097581Y-7987221D01*
Y-8013552D01*
X3104395Y-8038985D01*
X3117561Y-8061788D01*
X3136179Y-8080406D01*
X3158982Y-8093571D01*
X3184415Y-8100386D01*
X3210746D01*
X3236179Y-8093571D01*
X3258982Y-8080406D01*
X3277600Y-8061788D01*
X3290765Y-8038985D01*
X3297580Y-8013552D01*
Y-7987221D01*
X3290765Y-7961788D01*
X3277600Y-7938985D01*
X3258982Y-7920367D01*
X3236179Y-7907201D01*
X3210746Y-7900387D01*
D02*
G37*
G36*
X8465047Y-8033042D02*
X8440033D01*
X8415871Y-8039516D01*
X8394209Y-8052023D01*
X8376521Y-8069711D01*
X8364014Y-8091373D01*
X8357540Y-8115535D01*
Y-8140549D01*
X8364014Y-8164710D01*
X8376521Y-8186373D01*
X8394209Y-8204060D01*
X8415871Y-8216567D01*
X8440033Y-8223041D01*
X8465047D01*
X8489208Y-8216567D01*
X8510871Y-8204060D01*
X8528558Y-8186373D01*
X8541065Y-8164710D01*
X8547539Y-8140549D01*
Y-8115535D01*
X8541065Y-8091373D01*
X8528558Y-8069711D01*
X8510871Y-8052023D01*
X8489208Y-8039516D01*
X8465047Y-8033042D01*
D02*
G37*
G36*
X2873206Y-8095200D02*
X2856298D01*
X2840678Y-8101670D01*
X2828722Y-8113626D01*
X2822252Y-8129246D01*
Y-8146154D01*
X2823914Y-8150165D01*
X2815428Y-8162865D01*
X2810839D01*
X2795219Y-8169335D01*
X2783263Y-8181290D01*
X2776793Y-8196911D01*
Y-8213818D01*
X2783263Y-8229439D01*
X2795219Y-8241394D01*
X2810839Y-8247864D01*
X2827747D01*
X2843367Y-8241394D01*
X2855323Y-8229439D01*
X2861793Y-8213818D01*
Y-8196911D01*
X2860131Y-8192900D01*
X2868617Y-8180200D01*
X2873206D01*
X2888826Y-8173730D01*
X2900782Y-8161774D01*
X2907252Y-8146154D01*
Y-8129246D01*
X2900782Y-8113626D01*
X2888826Y-8101670D01*
X2873206Y-8095200D01*
D02*
G37*
G36*
X1925129Y-8100986D02*
X1908222D01*
X1892601Y-8107456D01*
X1880646Y-8119412D01*
X1874176Y-8135032D01*
Y-8151939D01*
X1880646Y-8167560D01*
X1892601Y-8179516D01*
X1907956Y-8185875D01*
X1902500Y-8199046D01*
Y-8215954D01*
X1908970Y-8231574D01*
X1920926Y-8243530D01*
X1936546Y-8250000D01*
X1953454D01*
X1969074Y-8243530D01*
X1981030Y-8231574D01*
X1987500Y-8215954D01*
Y-8199046D01*
X1981030Y-8183426D01*
X1969074Y-8171470D01*
X1953720Y-8165110D01*
X1959175Y-8151939D01*
Y-8135032D01*
X1952705Y-8119412D01*
X1940750Y-8107456D01*
X1925129Y-8100986D01*
D02*
G37*
G36*
X1398454Y-8167500D02*
X1381546D01*
X1365926Y-8173970D01*
X1353970Y-8185926D01*
X1347500Y-8201546D01*
Y-8218454D01*
X1353970Y-8234074D01*
X1365926Y-8246030D01*
X1381546Y-8252500D01*
X1398454D01*
X1414074Y-8246030D01*
X1426030Y-8234074D01*
X1432500Y-8218454D01*
Y-8201546D01*
X1426030Y-8185926D01*
X1414074Y-8173970D01*
X1398454Y-8167500D01*
D02*
G37*
G36*
X3297580Y-8154387D02*
X3097581D01*
Y-8354386D01*
X3297580D01*
Y-8154387D01*
D02*
G37*
G36*
X514298Y-8341584D02*
X497391D01*
X481770Y-8348054D01*
X469815Y-8360010D01*
X463345Y-8375630D01*
Y-8392538D01*
X469815Y-8408158D01*
X481770Y-8420114D01*
X497391Y-8426584D01*
X514298D01*
X529918Y-8420114D01*
X541874Y-8408158D01*
X548344Y-8392538D01*
Y-8375630D01*
X541874Y-8360010D01*
X529918Y-8348054D01*
X514298Y-8341584D01*
D02*
G37*
G36*
X2035754Y-8415634D02*
X2018847D01*
X2003226Y-8422104D01*
X1991271Y-8434060D01*
X1987774Y-8442502D01*
X1975318Y-8451089D01*
X1958411D01*
X1942790Y-8457559D01*
X1931595Y-8468754D01*
X1926110Y-8469050D01*
X1917626Y-8468216D01*
X1916576Y-8465681D01*
X1904620Y-8453726D01*
X1889000Y-8447255D01*
X1872093D01*
X1856472Y-8453726D01*
X1844517Y-8465681D01*
X1843941Y-8467070D01*
X1830194D01*
X1829097Y-8464420D01*
X1817141Y-8452464D01*
X1801521Y-8445994D01*
X1784613D01*
X1768993Y-8452464D01*
X1757037Y-8464420D01*
X1750567Y-8480040D01*
Y-8496948D01*
X1757037Y-8512568D01*
X1768993Y-8524524D01*
X1784613Y-8530994D01*
X1801521D01*
X1817141Y-8524524D01*
X1829097Y-8512568D01*
X1829672Y-8511179D01*
X1843419D01*
X1844517Y-8513829D01*
X1856472Y-8525785D01*
X1872093Y-8532255D01*
X1889000D01*
X1904620Y-8525785D01*
X1915816Y-8514590D01*
X1921300Y-8514294D01*
X1929785Y-8515127D01*
X1930835Y-8517662D01*
X1942790Y-8529618D01*
X1958411Y-8536088D01*
X1975318D01*
X1990939Y-8529618D01*
X2002894Y-8517662D01*
X2006391Y-8509220D01*
X2018847Y-8500633D01*
X2035402D01*
X2036360Y-8501646D01*
X2042347Y-8511649D01*
X2040960Y-8513036D01*
X2034490Y-8528657D01*
Y-8545564D01*
X2040960Y-8561184D01*
X2052916Y-8573140D01*
X2068536Y-8579610D01*
X2085443D01*
X2101064Y-8573140D01*
X2113019Y-8561184D01*
X2119490Y-8545564D01*
Y-8528657D01*
X2113019Y-8513036D01*
X2101064Y-8501081D01*
X2085443Y-8494610D01*
X2068888D01*
X2067930Y-8493598D01*
X2061943Y-8483595D01*
X2063330Y-8482208D01*
X2069800Y-8466587D01*
Y-8449680D01*
X2063330Y-8434060D01*
X2051375Y-8422104D01*
X2035754Y-8415634D01*
D02*
G37*
G36*
X5534414Y-8459202D02*
X5514523D01*
X5496146Y-8466814D01*
X5482080Y-8480879D01*
X5479539Y-8487015D01*
X5464785Y-8490221D01*
X5446408Y-8482609D01*
X5426516D01*
X5408139Y-8490221D01*
X5407914Y-8490447D01*
X5395458Y-8487969D01*
X5392521Y-8480879D01*
X5378456Y-8466814D01*
X5360079Y-8459202D01*
X5340187D01*
X5321810Y-8466814D01*
X5307745Y-8480879D01*
X5300133Y-8499257D01*
Y-8519148D01*
X5307745Y-8537525D01*
X5321810Y-8551590D01*
X5340187Y-8559202D01*
X5360079D01*
X5378456Y-8551590D01*
X5378681Y-8551365D01*
X5391138Y-8553842D01*
X5394074Y-8560932D01*
X5408139Y-8574997D01*
X5426516Y-8582609D01*
X5446408D01*
X5464785Y-8574997D01*
X5478850Y-8560932D01*
X5481391Y-8554796D01*
X5496146Y-8551590D01*
X5514523Y-8559202D01*
X5534414D01*
X5552791Y-8551590D01*
X5566857Y-8537525D01*
X5574468Y-8519148D01*
Y-8499257D01*
X5566857Y-8480879D01*
X5552791Y-8466814D01*
X5534414Y-8459202D01*
D02*
G37*
G36*
X2642539Y-8391962D02*
X2622647D01*
X2604270Y-8399574D01*
X2590205Y-8413640D01*
X2582593Y-8432017D01*
Y-8451908D01*
X2590205Y-8470285D01*
X2604270Y-8484350D01*
X2622647Y-8491962D01*
X2642539D01*
X2660916Y-8484350D01*
X2674981Y-8470285D01*
X2682593Y-8451908D01*
Y-8432017D01*
X2674981Y-8413640D01*
X2660916Y-8399574D01*
X2642539Y-8391962D01*
D02*
G37*
G36*
X329946Y-8650000D02*
X310054D01*
X291677Y-8657612D01*
X277612Y-8671677D01*
X270000Y-8690055D01*
Y-8709946D01*
X277612Y-8728323D01*
X291677Y-8742388D01*
X310054Y-8750000D01*
X329946D01*
X348323Y-8742388D01*
X362388Y-8728323D01*
X370000Y-8709946D01*
Y-8690055D01*
X362388Y-8671677D01*
X348323Y-8657612D01*
X329946Y-8650000D01*
D02*
G37*
G36*
X2134958Y-8691802D02*
X2103362D01*
X2072841Y-8699980D01*
X2045478Y-8715778D01*
X2023136Y-8738120D01*
X2007338Y-8765484D01*
X1999160Y-8796004D01*
Y-8827600D01*
X2007338Y-8858120D01*
X2023136Y-8885484D01*
X2045478Y-8907826D01*
X2072841Y-8923624D01*
X2103362Y-8931802D01*
X2134958D01*
X2165478Y-8923624D01*
X2192842Y-8907826D01*
X2215184Y-8885484D01*
X2230982Y-8858120D01*
X2239160Y-8827600D01*
Y-8796004D01*
X2230982Y-8765484D01*
X2215184Y-8738120D01*
X2192842Y-8715778D01*
X2165478Y-8699980D01*
X2134958Y-8691802D01*
D02*
G37*
G36*
X1874958Y-8694302D02*
X1843362D01*
X1812841Y-8702480D01*
X1785478Y-8718278D01*
X1763136Y-8740620D01*
X1747338Y-8767983D01*
X1739160Y-8798504D01*
Y-8830100D01*
X1747338Y-8860620D01*
X1763136Y-8887984D01*
X1785478Y-8910326D01*
X1812841Y-8926124D01*
X1843362Y-8934302D01*
X1874958D01*
X1905478Y-8926124D01*
X1932842Y-8910326D01*
X1955184Y-8887984D01*
X1970982Y-8860620D01*
X1979160Y-8830100D01*
Y-8798504D01*
X1970982Y-8767983D01*
X1955184Y-8740620D01*
X1932842Y-8718278D01*
X1905478Y-8702480D01*
X1874958Y-8694302D01*
D02*
G37*
G36*
X6661184Y-8853157D02*
X6644277D01*
X6628656Y-8859627D01*
X6616701Y-8871582D01*
X6610231Y-8887203D01*
Y-8904110D01*
X6616701Y-8919731D01*
X6628656Y-8931686D01*
X6644277Y-8938156D01*
X6661184D01*
X6676805Y-8931686D01*
X6688760Y-8919731D01*
X6695230Y-8904110D01*
Y-8887203D01*
X6688760Y-8871582D01*
X6676805Y-8859627D01*
X6661184Y-8853157D01*
D02*
G37*
G36*
X6207538Y-8853415D02*
X6190630D01*
X6175010Y-8859885D01*
X6163054Y-8871840D01*
X6156584Y-8887461D01*
Y-8904368D01*
X6163054Y-8919989D01*
X6175010Y-8931944D01*
X6190630Y-8938414D01*
X6207538D01*
X6223158Y-8931944D01*
X6235114Y-8919989D01*
X6241584Y-8904368D01*
Y-8887461D01*
X6235114Y-8871840D01*
X6223158Y-8859885D01*
X6207538Y-8853415D01*
D02*
G37*
G36*
X8344665Y-9197500D02*
X8318335D01*
X8292902Y-9204315D01*
X8270099Y-9217480D01*
X8251480Y-9236099D01*
X8238315Y-9258901D01*
X8231500Y-9284334D01*
Y-9310665D01*
X8238315Y-9336098D01*
X8251480Y-9358901D01*
X8270099Y-9377519D01*
X8292902Y-9390685D01*
X8318335Y-9397500D01*
X8344665D01*
X8370098Y-9390685D01*
X8392901Y-9377519D01*
X8411520Y-9358901D01*
X8424685Y-9336098D01*
X8431500Y-9310665D01*
Y-9284334D01*
X8424685Y-9258901D01*
X8411520Y-9236099D01*
X8392901Y-9217480D01*
X8370098Y-9204315D01*
X8344665Y-9197500D01*
D02*
G37*
G36*
X8090665D02*
X8064335D01*
X8038902Y-9204315D01*
X8016099Y-9217480D01*
X7997480Y-9236099D01*
X7984315Y-9258901D01*
X7977500Y-9284334D01*
Y-9310665D01*
X7984315Y-9336098D01*
X7997480Y-9358901D01*
X8016099Y-9377519D01*
X8038902Y-9390685D01*
X8064335Y-9397500D01*
X8090665D01*
X8116098Y-9390685D01*
X8138901Y-9377519D01*
X8157520Y-9358901D01*
X8170685Y-9336098D01*
X8177500Y-9310665D01*
Y-9284334D01*
X8170685Y-9258901D01*
X8157520Y-9236099D01*
X8138901Y-9217480D01*
X8116098Y-9204315D01*
X8090665Y-9197500D01*
D02*
G37*
G36*
X7836665D02*
X7810335D01*
X7784902Y-9204315D01*
X7762099Y-9217480D01*
X7743480Y-9236099D01*
X7730315Y-9258901D01*
X7723500Y-9284334D01*
Y-9310665D01*
X7730315Y-9336098D01*
X7743480Y-9358901D01*
X7762099Y-9377519D01*
X7784902Y-9390685D01*
X7810335Y-9397500D01*
X7836665D01*
X7862098Y-9390685D01*
X7884901Y-9377519D01*
X7903520Y-9358901D01*
X7916685Y-9336098D01*
X7923500Y-9310665D01*
Y-9284334D01*
X7916685Y-9258901D01*
X7903520Y-9236099D01*
X7884901Y-9217480D01*
X7862098Y-9204315D01*
X7836665Y-9197500D01*
D02*
G37*
G36*
X7582665D02*
X7556335D01*
X7530902Y-9204315D01*
X7508099Y-9217480D01*
X7489480Y-9236099D01*
X7476315Y-9258901D01*
X7469500Y-9284334D01*
Y-9310665D01*
X7476315Y-9336098D01*
X7489480Y-9358901D01*
X7508099Y-9377519D01*
X7530902Y-9390685D01*
X7556335Y-9397500D01*
X7582665D01*
X7608098Y-9390685D01*
X7630901Y-9377519D01*
X7649520Y-9358901D01*
X7662685Y-9336098D01*
X7669500Y-9310665D01*
Y-9284334D01*
X7662685Y-9258901D01*
X7649520Y-9236099D01*
X7630901Y-9217480D01*
X7608098Y-9204315D01*
X7582665Y-9197500D01*
D02*
G37*
G36*
X7328665D02*
X7302335D01*
X7276902Y-9204315D01*
X7254099Y-9217480D01*
X7235480Y-9236099D01*
X7222315Y-9258901D01*
X7215500Y-9284334D01*
Y-9310665D01*
X7222315Y-9336098D01*
X7235480Y-9358901D01*
X7254099Y-9377519D01*
X7276902Y-9390685D01*
X7302335Y-9397500D01*
X7328665D01*
X7354098Y-9390685D01*
X7376901Y-9377519D01*
X7395520Y-9358901D01*
X7408685Y-9336098D01*
X7415500Y-9310665D01*
Y-9284334D01*
X7408685Y-9258901D01*
X7395520Y-9236099D01*
X7376901Y-9217480D01*
X7354098Y-9204315D01*
X7328665Y-9197500D01*
D02*
G37*
G36*
X7074665D02*
X7048335D01*
X7022902Y-9204315D01*
X7000099Y-9217480D01*
X6981480Y-9236099D01*
X6968315Y-9258901D01*
X6961500Y-9284334D01*
Y-9310665D01*
X6968315Y-9336098D01*
X6981480Y-9358901D01*
X7000099Y-9377519D01*
X7022902Y-9390685D01*
X7048335Y-9397500D01*
X7074665D01*
X7100098Y-9390685D01*
X7122901Y-9377519D01*
X7141520Y-9358901D01*
X7154685Y-9336098D01*
X7161500Y-9310665D01*
Y-9284334D01*
X7154685Y-9258901D01*
X7141520Y-9236099D01*
X7122901Y-9217480D01*
X7100098Y-9204315D01*
X7074665Y-9197500D01*
D02*
G37*
G36*
X6820665D02*
X6794335D01*
X6768902Y-9204315D01*
X6746099Y-9217480D01*
X6727480Y-9236099D01*
X6714315Y-9258901D01*
X6707500Y-9284334D01*
Y-9310665D01*
X6714315Y-9336098D01*
X6727480Y-9358901D01*
X6746099Y-9377519D01*
X6768902Y-9390685D01*
X6794335Y-9397500D01*
X6820665D01*
X6846098Y-9390685D01*
X6868901Y-9377519D01*
X6887520Y-9358901D01*
X6900685Y-9336098D01*
X6907500Y-9310665D01*
Y-9284334D01*
X6900685Y-9258901D01*
X6887520Y-9236099D01*
X6868901Y-9217480D01*
X6846098Y-9204315D01*
X6820665Y-9197500D01*
D02*
G37*
G36*
X6566665D02*
X6540335D01*
X6514902Y-9204315D01*
X6492099Y-9217480D01*
X6473480Y-9236099D01*
X6460315Y-9258901D01*
X6453500Y-9284334D01*
Y-9310665D01*
X6460315Y-9336098D01*
X6473480Y-9358901D01*
X6492099Y-9377519D01*
X6514902Y-9390685D01*
X6540335Y-9397500D01*
X6566665D01*
X6592098Y-9390685D01*
X6614901Y-9377519D01*
X6633520Y-9358901D01*
X6646685Y-9336098D01*
X6653500Y-9310665D01*
Y-9284334D01*
X6646685Y-9258901D01*
X6633520Y-9236099D01*
X6614901Y-9217480D01*
X6592098Y-9204315D01*
X6566665Y-9197500D01*
D02*
G37*
G36*
X6312665D02*
X6286335D01*
X6260902Y-9204315D01*
X6238099Y-9217480D01*
X6219480Y-9236099D01*
X6206315Y-9258901D01*
X6199500Y-9284334D01*
Y-9310665D01*
X6206315Y-9336098D01*
X6219480Y-9358901D01*
X6238099Y-9377519D01*
X6260902Y-9390685D01*
X6286335Y-9397500D01*
X6312665D01*
X6338098Y-9390685D01*
X6360901Y-9377519D01*
X6379520Y-9358901D01*
X6392685Y-9336098D01*
X6399500Y-9310665D01*
Y-9284334D01*
X6392685Y-9258901D01*
X6379520Y-9236099D01*
X6360901Y-9217480D01*
X6338098Y-9204315D01*
X6312665Y-9197500D01*
D02*
G37*
G36*
X6058665D02*
X6032335D01*
X6006902Y-9204315D01*
X5984099Y-9217480D01*
X5965480Y-9236099D01*
X5952315Y-9258901D01*
X5945500Y-9284334D01*
Y-9310665D01*
X5952315Y-9336098D01*
X5965480Y-9358901D01*
X5984099Y-9377519D01*
X6006902Y-9390685D01*
X6032335Y-9397500D01*
X6058665D01*
X6084098Y-9390685D01*
X6106901Y-9377519D01*
X6125520Y-9358901D01*
X6138685Y-9336098D01*
X6145500Y-9310665D01*
Y-9284334D01*
X6138685Y-9258901D01*
X6125520Y-9236099D01*
X6106901Y-9217480D01*
X6084098Y-9204315D01*
X6058665Y-9197500D01*
D02*
G37*
G36*
X5804665D02*
X5778335D01*
X5752902Y-9204315D01*
X5730099Y-9217480D01*
X5711480Y-9236099D01*
X5698315Y-9258901D01*
X5691500Y-9284334D01*
Y-9310665D01*
X5698315Y-9336098D01*
X5711480Y-9358901D01*
X5730099Y-9377519D01*
X5752902Y-9390685D01*
X5778335Y-9397500D01*
X5804665D01*
X5830098Y-9390685D01*
X5852901Y-9377519D01*
X5871520Y-9358901D01*
X5884685Y-9336098D01*
X5891500Y-9310665D01*
Y-9284334D01*
X5884685Y-9258901D01*
X5871520Y-9236099D01*
X5852901Y-9217480D01*
X5830098Y-9204315D01*
X5804665Y-9197500D01*
D02*
G37*
G36*
X5550665D02*
X5524335D01*
X5498902Y-9204315D01*
X5476099Y-9217480D01*
X5457480Y-9236099D01*
X5444315Y-9258901D01*
X5437500Y-9284334D01*
Y-9310665D01*
X5444315Y-9336098D01*
X5457480Y-9358901D01*
X5476099Y-9377519D01*
X5498902Y-9390685D01*
X5524335Y-9397500D01*
X5550665D01*
X5576098Y-9390685D01*
X5598901Y-9377519D01*
X5617520Y-9358901D01*
X5630685Y-9336098D01*
X5637500Y-9310665D01*
Y-9284334D01*
X5630685Y-9258901D01*
X5617520Y-9236099D01*
X5598901Y-9217480D01*
X5576098Y-9204315D01*
X5550665Y-9197500D01*
D02*
G37*
G36*
X5296665D02*
X5270335D01*
X5244902Y-9204315D01*
X5222099Y-9217480D01*
X5203480Y-9236099D01*
X5190315Y-9258901D01*
X5183500Y-9284334D01*
Y-9310665D01*
X5190315Y-9336098D01*
X5203480Y-9358901D01*
X5222099Y-9377519D01*
X5244902Y-9390685D01*
X5270335Y-9397500D01*
X5296665D01*
X5322098Y-9390685D01*
X5344901Y-9377519D01*
X5363520Y-9358901D01*
X5376685Y-9336098D01*
X5383500Y-9310665D01*
Y-9284334D01*
X5376685Y-9258901D01*
X5363520Y-9236099D01*
X5344901Y-9217480D01*
X5322098Y-9204315D01*
X5296665Y-9197500D01*
D02*
G37*
G36*
X5042665D02*
X5016335D01*
X4990902Y-9204315D01*
X4968099Y-9217480D01*
X4949480Y-9236099D01*
X4936315Y-9258901D01*
X4929500Y-9284334D01*
Y-9310665D01*
X4936315Y-9336098D01*
X4949480Y-9358901D01*
X4968099Y-9377519D01*
X4990902Y-9390685D01*
X5016335Y-9397500D01*
X5042665D01*
X5068098Y-9390685D01*
X5090901Y-9377519D01*
X5109520Y-9358901D01*
X5122685Y-9336098D01*
X5129500Y-9310665D01*
Y-9284334D01*
X5122685Y-9258901D01*
X5109520Y-9236099D01*
X5090901Y-9217480D01*
X5068098Y-9204315D01*
X5042665Y-9197500D01*
D02*
G37*
G36*
X4788665D02*
X4762335D01*
X4736902Y-9204315D01*
X4714099Y-9217480D01*
X4695480Y-9236099D01*
X4682315Y-9258901D01*
X4675500Y-9284334D01*
Y-9310665D01*
X4682315Y-9336098D01*
X4695480Y-9358901D01*
X4714099Y-9377519D01*
X4736902Y-9390685D01*
X4762335Y-9397500D01*
X4788665D01*
X4814098Y-9390685D01*
X4836901Y-9377519D01*
X4855520Y-9358901D01*
X4868685Y-9336098D01*
X4875500Y-9310665D01*
Y-9284334D01*
X4868685Y-9258901D01*
X4855520Y-9236099D01*
X4836901Y-9217480D01*
X4814098Y-9204315D01*
X4788665Y-9197500D01*
D02*
G37*
G36*
X4534665D02*
X4508335D01*
X4482902Y-9204315D01*
X4460099Y-9217480D01*
X4441480Y-9236099D01*
X4428315Y-9258901D01*
X4421500Y-9284334D01*
Y-9310665D01*
X4428315Y-9336098D01*
X4441480Y-9358901D01*
X4460099Y-9377519D01*
X4482902Y-9390685D01*
X4508335Y-9397500D01*
X4534665D01*
X4560098Y-9390685D01*
X4582901Y-9377519D01*
X4601520Y-9358901D01*
X4614685Y-9336098D01*
X4621500Y-9310665D01*
Y-9284334D01*
X4614685Y-9258901D01*
X4601520Y-9236099D01*
X4582901Y-9217480D01*
X4560098Y-9204315D01*
X4534665Y-9197500D01*
D02*
G37*
G36*
X4280665D02*
X4254335D01*
X4228902Y-9204315D01*
X4206099Y-9217480D01*
X4187480Y-9236099D01*
X4174315Y-9258901D01*
X4167500Y-9284334D01*
Y-9310665D01*
X4174315Y-9336098D01*
X4187480Y-9358901D01*
X4206099Y-9377519D01*
X4228902Y-9390685D01*
X4254335Y-9397500D01*
X4280665D01*
X4306098Y-9390685D01*
X4328901Y-9377519D01*
X4347520Y-9358901D01*
X4360685Y-9336098D01*
X4367500Y-9310665D01*
Y-9284334D01*
X4360685Y-9258901D01*
X4347520Y-9236099D01*
X4328901Y-9217480D01*
X4306098Y-9204315D01*
X4280665Y-9197500D01*
D02*
G37*
G36*
X4026665D02*
X4000335D01*
X3974902Y-9204315D01*
X3952099Y-9217480D01*
X3933480Y-9236099D01*
X3920315Y-9258901D01*
X3913500Y-9284334D01*
Y-9310665D01*
X3920315Y-9336098D01*
X3933480Y-9358901D01*
X3952099Y-9377519D01*
X3974902Y-9390685D01*
X4000335Y-9397500D01*
X4026665D01*
X4052098Y-9390685D01*
X4074901Y-9377519D01*
X4093520Y-9358901D01*
X4106685Y-9336098D01*
X4113500Y-9310665D01*
Y-9284334D01*
X4106685Y-9258901D01*
X4093520Y-9236099D01*
X4074901Y-9217480D01*
X4052098Y-9204315D01*
X4026665Y-9197500D01*
D02*
G37*
G36*
X3772665D02*
X3746335D01*
X3720902Y-9204315D01*
X3698099Y-9217480D01*
X3679480Y-9236099D01*
X3666315Y-9258901D01*
X3659500Y-9284334D01*
Y-9310665D01*
X3666315Y-9336098D01*
X3679480Y-9358901D01*
X3698099Y-9377519D01*
X3720902Y-9390685D01*
X3746335Y-9397500D01*
X3772665D01*
X3798098Y-9390685D01*
X3820901Y-9377519D01*
X3839520Y-9358901D01*
X3852685Y-9336098D01*
X3859500Y-9310665D01*
Y-9284334D01*
X3852685Y-9258901D01*
X3839520Y-9236099D01*
X3820901Y-9217480D01*
X3798098Y-9204315D01*
X3772665Y-9197500D01*
D02*
G37*
G36*
X3518665D02*
X3492335D01*
X3466902Y-9204315D01*
X3444099Y-9217480D01*
X3425480Y-9236099D01*
X3412315Y-9258901D01*
X3405500Y-9284334D01*
Y-9310665D01*
X3412315Y-9336098D01*
X3425480Y-9358901D01*
X3444099Y-9377519D01*
X3466902Y-9390685D01*
X3492335Y-9397500D01*
X3518665D01*
X3544098Y-9390685D01*
X3566901Y-9377519D01*
X3585520Y-9358901D01*
X3598685Y-9336098D01*
X3605500Y-9310665D01*
Y-9284334D01*
X3598685Y-9258901D01*
X3585520Y-9236099D01*
X3566901Y-9217480D01*
X3544098Y-9204315D01*
X3518665Y-9197500D01*
D02*
G37*
G36*
X3264665D02*
X3238335D01*
X3212902Y-9204315D01*
X3190099Y-9217480D01*
X3171480Y-9236099D01*
X3158315Y-9258901D01*
X3151500Y-9284334D01*
Y-9310665D01*
X3158315Y-9336098D01*
X3171480Y-9358901D01*
X3190099Y-9377519D01*
X3212902Y-9390685D01*
X3238335Y-9397500D01*
X3264665D01*
X3290098Y-9390685D01*
X3312901Y-9377519D01*
X3331520Y-9358901D01*
X3344685Y-9336098D01*
X3351500Y-9310665D01*
Y-9284334D01*
X3344685Y-9258901D01*
X3331520Y-9236099D01*
X3312901Y-9217480D01*
X3290098Y-9204315D01*
X3264665Y-9197500D01*
D02*
G37*
G36*
X3010665D02*
X2984335D01*
X2958902Y-9204315D01*
X2936099Y-9217480D01*
X2917480Y-9236099D01*
X2904315Y-9258901D01*
X2897500Y-9284334D01*
Y-9310665D01*
X2904315Y-9336098D01*
X2917480Y-9358901D01*
X2936099Y-9377519D01*
X2958902Y-9390685D01*
X2984335Y-9397500D01*
X3010665D01*
X3036098Y-9390685D01*
X3058901Y-9377519D01*
X3077520Y-9358901D01*
X3090685Y-9336098D01*
X3097500Y-9310665D01*
Y-9284334D01*
X3090685Y-9258901D01*
X3077520Y-9236099D01*
X3058901Y-9217480D01*
X3036098Y-9204315D01*
X3010665Y-9197500D01*
D02*
G37*
G36*
X2756665D02*
X2730335D01*
X2704902Y-9204315D01*
X2682099Y-9217480D01*
X2663480Y-9236099D01*
X2650315Y-9258901D01*
X2643500Y-9284334D01*
Y-9310665D01*
X2650315Y-9336098D01*
X2663480Y-9358901D01*
X2682099Y-9377519D01*
X2704902Y-9390685D01*
X2730335Y-9397500D01*
X2756665D01*
X2782098Y-9390685D01*
X2804901Y-9377519D01*
X2823520Y-9358901D01*
X2836685Y-9336098D01*
X2843500Y-9310665D01*
Y-9284334D01*
X2836685Y-9258901D01*
X2823520Y-9236099D01*
X2804901Y-9217480D01*
X2782098Y-9204315D01*
X2756665Y-9197500D01*
D02*
G37*
G36*
X2502665D02*
X2476335D01*
X2450902Y-9204315D01*
X2428099Y-9217480D01*
X2409480Y-9236099D01*
X2396315Y-9258901D01*
X2389500Y-9284334D01*
Y-9310665D01*
X2396315Y-9336098D01*
X2409480Y-9358901D01*
X2428099Y-9377519D01*
X2450902Y-9390685D01*
X2476335Y-9397500D01*
X2502665D01*
X2528098Y-9390685D01*
X2550901Y-9377519D01*
X2569520Y-9358901D01*
X2582685Y-9336098D01*
X2589500Y-9310665D01*
Y-9284334D01*
X2582685Y-9258901D01*
X2569520Y-9236099D01*
X2550901Y-9217480D01*
X2528098Y-9204315D01*
X2502665Y-9197500D01*
D02*
G37*
G36*
X2248665D02*
X2222335D01*
X2196902Y-9204315D01*
X2174099Y-9217480D01*
X2155480Y-9236099D01*
X2142315Y-9258901D01*
X2135500Y-9284334D01*
Y-9310665D01*
X2142315Y-9336098D01*
X2155480Y-9358901D01*
X2174099Y-9377519D01*
X2196902Y-9390685D01*
X2222335Y-9397500D01*
X2248665D01*
X2274098Y-9390685D01*
X2296901Y-9377519D01*
X2315520Y-9358901D01*
X2328685Y-9336098D01*
X2335500Y-9310665D01*
Y-9284334D01*
X2328685Y-9258901D01*
X2315520Y-9236099D01*
X2296901Y-9217480D01*
X2274098Y-9204315D01*
X2248665Y-9197500D01*
D02*
G37*
G36*
X1994665D02*
X1968335D01*
X1942902Y-9204315D01*
X1920099Y-9217480D01*
X1901480Y-9236099D01*
X1888315Y-9258901D01*
X1881500Y-9284334D01*
Y-9310665D01*
X1888315Y-9336098D01*
X1901480Y-9358901D01*
X1920099Y-9377519D01*
X1942902Y-9390685D01*
X1968335Y-9397500D01*
X1994665D01*
X2020098Y-9390685D01*
X2042901Y-9377519D01*
X2061520Y-9358901D01*
X2074685Y-9336098D01*
X2081500Y-9310665D01*
Y-9284334D01*
X2074685Y-9258901D01*
X2061520Y-9236099D01*
X2042901Y-9217480D01*
X2020098Y-9204315D01*
X1994665Y-9197500D01*
D02*
G37*
G36*
X1740665D02*
X1714335D01*
X1688902Y-9204315D01*
X1666099Y-9217480D01*
X1647480Y-9236099D01*
X1634315Y-9258901D01*
X1627500Y-9284334D01*
Y-9310665D01*
X1634315Y-9336098D01*
X1647480Y-9358901D01*
X1666099Y-9377519D01*
X1688902Y-9390685D01*
X1714335Y-9397500D01*
X1740665D01*
X1766098Y-9390685D01*
X1788901Y-9377519D01*
X1807520Y-9358901D01*
X1820685Y-9336098D01*
X1827500Y-9310665D01*
Y-9284334D01*
X1820685Y-9258901D01*
X1807520Y-9236099D01*
X1788901Y-9217480D01*
X1766098Y-9204315D01*
X1740665Y-9197500D01*
D02*
G37*
G36*
X1065500D02*
X865500D01*
Y-9397500D01*
X1065500D01*
Y-9197500D01*
D02*
G37*
%LPD*%
D53*
X9300000Y-9300000D02*
D03*
Y0D02*
D03*
X0D02*
D03*
Y-9300000D02*
D03*
D54*
X4080000Y-6122000D02*
D03*
X4334000D02*
D03*
X3197580Y-8000386D02*
D03*
Y-7746386D02*
D03*
Y-7492386D02*
D03*
Y-7238386D02*
D03*
Y-6984386D02*
D03*
X2235500Y-9297500D02*
D03*
X8331500D02*
D03*
X8077500D02*
D03*
X7823500D02*
D03*
X7569500D02*
D03*
X7315500D02*
D03*
X7061500D02*
D03*
X6807500D02*
D03*
X6553500D02*
D03*
X6299500D02*
D03*
X6045500D02*
D03*
X5791500D02*
D03*
X5537500D02*
D03*
X5283500D02*
D03*
X5029500D02*
D03*
X4775500D02*
D03*
X4521500D02*
D03*
X4267500D02*
D03*
X4013500D02*
D03*
X3759500D02*
D03*
X3505500D02*
D03*
X3251500D02*
D03*
X2997500D02*
D03*
X2743500D02*
D03*
X2489500D02*
D03*
X1981500D02*
D03*
X1727500D02*
D03*
X1473500D02*
D03*
X1219500D02*
D03*
X2236500Y5000D02*
D03*
X8332500D02*
D03*
X8078500D02*
D03*
X7824500D02*
D03*
X7570500D02*
D03*
X7316500D02*
D03*
X7062500D02*
D03*
X6808500D02*
D03*
X6554500D02*
D03*
X6300500D02*
D03*
X6046500D02*
D03*
X5792500D02*
D03*
X5538500D02*
D03*
X5284500D02*
D03*
X5030500D02*
D03*
X4776500D02*
D03*
X4522500D02*
D03*
X4268500D02*
D03*
X4014500D02*
D03*
X3760500D02*
D03*
X3506500D02*
D03*
X3252500D02*
D03*
X2998500D02*
D03*
X2744500D02*
D03*
X2490500D02*
D03*
X1982500D02*
D03*
X1728500D02*
D03*
X1474500D02*
D03*
X1220500D02*
D03*
X1432772Y-4371255D02*
D03*
Y-4117255D02*
D03*
Y-3863255D02*
D03*
Y-3609255D02*
D03*
Y-3355255D02*
D03*
D55*
X4588000Y-6122000D02*
D03*
X965500Y-9297500D02*
D03*
X966500Y5000D02*
D03*
D56*
X1859160Y-8814302D02*
D03*
X2119160Y-8811802D02*
D03*
X1996660Y-6124302D02*
D03*
X9450000Y-4800000D02*
D03*
Y-4300000D02*
D03*
D57*
X3197580Y-8254386D02*
D03*
X1432772Y-4625255D02*
D03*
D58*
X-200000Y-6232000D02*
D03*
Y-5089000D02*
D03*
D59*
X684000Y-5339000D02*
D03*
Y-6101000D02*
D03*
Y-5847000D02*
D03*
Y-5593000D02*
D03*
X420000Y-5974000D02*
D03*
X430000Y-5720000D02*
D03*
Y-5466000D02*
D03*
X8452540Y-7428042D02*
D03*
Y-7678042D02*
D03*
Y-7878042D02*
D03*
Y-8128042D02*
D03*
D60*
X430000Y-5212000D02*
D03*
D61*
X6577500Y-875000D02*
D03*
X5817500Y-621000D02*
D03*
X5192500Y-875000D02*
D03*
X4432500Y-621000D02*
D03*
X3822500Y-870000D02*
D03*
X3062500Y-616000D02*
D03*
D62*
X6577500Y-2145000D02*
D03*
X5817500D02*
D03*
X5192500D02*
D03*
X4432500D02*
D03*
X3822500Y-2140000D02*
D03*
X3062500D02*
D03*
D63*
X8723540Y-7121042D02*
D03*
Y-8435042D02*
D03*
D64*
X364000Y-4260000D02*
D03*
X110000D02*
D03*
Y-4006000D02*
D03*
Y-3752000D02*
D03*
X364000D02*
D03*
Y-4006000D02*
D03*
X354000Y-7300000D02*
D03*
Y-7046000D02*
D03*
X100000D02*
D03*
Y-7300000D02*
D03*
Y-7554000D02*
D03*
X354000D02*
D03*
D65*
X7834020Y-2343474D02*
D03*
D66*
X8088020D02*
D03*
X8342020D02*
D03*
X8596020D02*
D03*
X8850020D02*
D03*
X9104020D02*
D03*
X9358020D02*
D03*
X9612020D02*
D03*
X7834020Y-540074D02*
D03*
X8088020D02*
D03*
X8342020D02*
D03*
X8596020D02*
D03*
X8850020D02*
D03*
X9104020D02*
D03*
X9358020D02*
D03*
X9612020D02*
D03*
D67*
X9123824Y-3275977D02*
D03*
D68*
X8623824Y-3775977D02*
D03*
Y-3525977D02*
D03*
Y-3025977D02*
D03*
Y-2775977D02*
D03*
D69*
Y-3275977D02*
D03*
X9123824Y-3775977D02*
D03*
Y-2775977D02*
D03*
X9373824D02*
D03*
Y-3775977D02*
D03*
D70*
X6199084Y-8895914D02*
D03*
X602199Y-666734D02*
D03*
X2535249Y-7730378D02*
D03*
X2137438Y-5729931D02*
D03*
X1655124Y-967248D02*
D03*
X505844Y-8384084D02*
D03*
X575844Y-6776584D02*
D03*
X2116588Y-7343566D02*
D03*
X2647700Y-7061059D02*
D03*
X1760200Y-7330000D02*
D03*
X1887367Y-7067279D02*
D03*
X2355400Y-7331426D02*
D03*
X2360335Y-7063349D02*
D03*
X2475199Y-7060290D02*
D03*
X1909840Y-7336384D02*
D03*
X2015239Y-7335143D02*
D03*
X2286758Y-7018463D02*
D03*
X1762700Y-7070000D02*
D03*
X1827500Y-7332500D02*
D03*
X2001401Y-7067978D02*
D03*
X2120602Y-7065774D02*
D03*
X2230001Y-7060000D02*
D03*
X1438765Y-7643102D02*
D03*
X1847150Y-7728887D02*
D03*
X2471191Y-7547647D02*
D03*
X2904055Y-7863309D02*
D03*
X2819293Y-8205365D02*
D03*
X2076990Y-8537110D02*
D03*
X1916676Y-8143486D02*
D03*
X1743921Y-8168375D02*
D03*
X1767025Y-8103769D02*
D03*
X7489399Y-5904786D02*
D03*
X2307722Y-6820200D02*
D03*
X1073755Y-1345347D02*
D03*
X713440Y-1276698D02*
D03*
X839929Y-1005141D02*
D03*
X1018445Y-3080454D02*
D03*
X1906272Y-7676321D02*
D03*
X1980557Y-5476131D02*
D03*
X1626807Y-514244D02*
D03*
X2084525Y-516101D02*
D03*
X1793067Y-8488494D02*
D03*
X7909709Y-7873169D02*
D03*
X2052256Y-5924472D02*
D03*
X3165849Y-3416740D02*
D03*
X1880546Y-8489755D02*
D03*
X8090129Y-2838733D02*
D03*
X3223010Y-3489518D02*
D03*
X2824999Y-7386020D02*
D03*
X2859533Y-7554034D02*
D03*
X2864949Y-7628554D02*
D03*
X1966864Y-8493588D02*
D03*
X2027300Y-8458134D02*
D03*
X1945000Y-8207500D02*
D03*
X2864752Y-8137700D02*
D03*
X1780339Y-7779351D02*
D03*
X1390000Y-8210000D02*
D03*
X6652730Y-8895657D02*
D03*
X7453353Y-7556831D02*
D03*
X3175783Y-2835389D02*
D03*
X4369415Y-2838247D02*
D03*
X2465400Y-7630000D02*
D03*
X3344421Y-2921250D02*
D03*
X3156708Y-3301329D02*
D03*
X3132490Y-3214217D02*
D03*
X1767500Y-7972500D02*
D03*
X1539824Y-911493D02*
D03*
X3407862Y-175397D02*
D03*
X6100000Y-2920000D02*
D03*
X5777500Y-2837500D02*
D03*
X4700000Y-2920000D02*
D03*
X1720000Y-8054700D02*
D03*
X2595000Y-7950000D02*
D03*
D71*
X1409565Y-6028039D02*
D03*
X7352201Y-5572158D02*
D03*
X7227895D02*
D03*
X6971935D02*
D03*
X7099688D02*
D03*
X909240Y-6927907D02*
D03*
X1192175Y-8065503D02*
D03*
X869425Y-7811084D02*
D03*
X467927Y-3391255D02*
D03*
X5634231Y-4074962D02*
D03*
X8858072Y-5697479D02*
D03*
Y-5900636D02*
D03*
Y-6104877D02*
D03*
Y-6314192D02*
D03*
Y-6520970D02*
D03*
X1192621Y-7403739D02*
D03*
X2632593Y-8441962D02*
D03*
X2780856Y-8440753D02*
D03*
X7738006Y-5537856D02*
D03*
X2271082Y-2566163D02*
D03*
X2309070Y-5239684D02*
D03*
X3957633Y-6599003D02*
D03*
X3930828Y-6978308D02*
D03*
X3750828Y-6798308D02*
D03*
X7100539Y-5298020D02*
D03*
X6971084D02*
D03*
X6789242Y-5829829D02*
D03*
X6989214Y-6035939D02*
D03*
X7354083Y-5298020D02*
D03*
X7229776D02*
D03*
X8858072Y-5490506D02*
D03*
X2302295Y-6096787D02*
D03*
X1592554Y-5476474D02*
D03*
X5890188Y-3485288D02*
D03*
X8858072Y-5280535D02*
D03*
X6890188Y-4165922D02*
D03*
X1430208Y-8450302D02*
D03*
X5436462Y-8532609D02*
D03*
X5350133Y-8509202D02*
D03*
X5524469D02*
D03*
X1395000Y-8740000D02*
D03*
X5880133Y-8489202D02*
D03*
X6270133Y-7323802D02*
D03*
X5725133D02*
D03*
X6570133D02*
D03*
X6870133D02*
D03*
X6050133Y-8356502D02*
D03*
X9647233Y-5697313D02*
D03*
X9649744Y-5900649D02*
D03*
Y-6108067D02*
D03*
X9645000Y-5490000D02*
D03*
X9645000Y-5280000D02*
D03*
X6300000Y-2920000D02*
D03*
X5000000Y-3040000D02*
D03*
X6570188Y-4605922D02*
D03*
Y-4165922D02*
D03*
X6890188Y-5065922D02*
D03*
Y-4605922D02*
D03*
X5390187Y-3730922D02*
D03*
X5540187D02*
D03*
X5720188Y-4605922D02*
D03*
X5890188Y-3745922D02*
D03*
X5895187Y-5760922D02*
D03*
Y-5460923D02*
D03*
X6065187Y-5620922D02*
D03*
X6120188Y-3605922D02*
D03*
X6220188Y-5065922D02*
D03*
Y-4165922D02*
D03*
Y-4605922D02*
D03*
X6570188Y-5065922D02*
D03*
X5294189Y-5735922D02*
D03*
X3770188Y-4025922D02*
D03*
X3950188Y-3855922D02*
D03*
Y-4195923D02*
D03*
X5295187Y-5520922D02*
D03*
X5125187Y-5610922D02*
D03*
X5135187Y-5030923D02*
D03*
X5240187Y-3730922D02*
D03*
X3635000Y-3035000D02*
D03*
X930000Y-8440000D02*
D03*
X900062Y-7480284D02*
D03*
X5622633Y-6839002D02*
D03*
X6870133Y-6946502D02*
D03*
X6570133D02*
D03*
X6270133D02*
D03*
X5140133Y-7789202D02*
D03*
X5880133Y-8256502D02*
D03*
X5545133Y-6496502D02*
D03*
X5395133D02*
D03*
X5245133D02*
D03*
X6870133Y-7796502D02*
D03*
X6270133D02*
D03*
X7742451Y-2787164D02*
D03*
X180000Y-3270000D02*
D03*
X1440000Y-6930000D02*
D03*
X6120133Y-6356502D02*
D03*
X5890133Y-6216502D02*
D03*
Y-6486502D02*
D03*
X6570133Y-7796502D02*
D03*
X317926Y-885000D02*
D03*
X767500Y-3642500D02*
D03*
X-225000Y-667500D02*
D03*
X512205Y-889999D02*
D03*
X985000Y-8092500D02*
D03*
X930000Y-8570000D02*
D03*
X500000Y-8700000D02*
D03*
X320000D02*
D03*
X-200000Y-8430000D02*
D03*
X904100Y-2277633D02*
D03*
Y-1917633D02*
D03*
X334100Y-1287633D02*
D03*
X904100Y-2097633D02*
D03*
X334100Y-2707633D02*
D03*
X1264100Y-2277633D02*
D03*
Y-2097633D02*
D03*
Y-1917633D02*
D03*
X1084100D02*
D03*
Y-2277633D02*
D03*
Y-2097633D02*
D03*
D72*
X7280384Y-7808457D02*
D03*
X7936742Y-4852877D02*
D03*
X7677192Y-4665332D02*
D03*
X7678507Y-5025739D02*
D03*
%TF.MD5,9c8eb3de984cf5201de7b414aaa07bf8*%
M02*
