%TF.GenerationSoftware,Altium Limited,Altium Designer,21.8.1 (53)*%
G04 Layer_Color=0*
%FSLAX45Y45*%
%MOMM*%
%TF.SameCoordinates,BA403207-4E74-424F-88DB-B819054AD5B4*%
%TF.FilePolarity,Positive*%
%TF.FileFunction,Plated,1,4,PTH,Drill*%
%TF.Part,Single*%
G01*
G75*
%TA.AperFunction,OtherDrill,Free Pad (93mm,-93mm)*%
%ADD131C,3.50000*%
%TA.AperFunction,OtherDrill,Free Pad (93mm,0mm)*%
%ADD132C,3.50000*%
%TA.AperFunction,OtherDrill,Free Pad (0mm,0mm)*%
%ADD133C,3.50000*%
%TA.AperFunction,OtherDrill,Free Pad (0mm,-93mm)*%
%ADD134C,3.50000*%
%TA.AperFunction,ComponentDrill*%
%ADD135C,1.10000*%
%ADD136C,1.10000*%
%ADD137C,3.20000*%
%ADD138C,0.76200*%
%ADD139O,2.00000X1.20000*%
%ADD140C,0.95000*%
%ADD141C,2.30000*%
%ADD142C,1.00000*%
%ADD143R,0.80000X0.80000*%
%ADD144C,0.80000*%
%ADD145O,1.00000X2.00000*%
%ADD146O,2.00000X1.00000*%
%ADD147C,1.40000*%
%TA.AperFunction,ViaDrill,NotFilled*%
%ADD148C,0.20000*%
%ADD149C,0.30000*%
%ADD150C,0.50000*%
D131*
X9300000Y-9300000D02*
D03*
D132*
Y0D02*
D03*
D133*
X0D02*
D03*
D134*
Y-9300000D02*
D03*
D135*
X4080000Y-6122000D02*
D03*
X4334000D02*
D03*
X4588000D02*
D03*
X1859160Y-8814302D02*
D03*
X2119160Y-8811802D02*
D03*
X1996660Y-6124302D02*
D03*
X2235500Y-9297500D02*
D03*
X1981500D02*
D03*
X1727500D02*
D03*
X1473500D02*
D03*
X1219500D02*
D03*
X965500D02*
D03*
X2236500Y5000D02*
D03*
X1982500D02*
D03*
X1728500D02*
D03*
X1474500D02*
D03*
X1220500D02*
D03*
X966500D02*
D03*
X6577500Y-2145000D02*
D03*
X5817500D02*
D03*
X5192500D02*
D03*
X4432500D02*
D03*
X3822500Y-2140000D02*
D03*
X3062500D02*
D03*
X9450000Y-4800000D02*
D03*
Y-4300000D02*
D03*
D136*
X3197580Y-8254386D02*
D03*
Y-8000386D02*
D03*
Y-7746386D02*
D03*
Y-7492386D02*
D03*
Y-7238386D02*
D03*
Y-6984386D02*
D03*
X8331500Y-9297500D02*
D03*
X8077500D02*
D03*
X7823500D02*
D03*
X7569500D02*
D03*
X7315500D02*
D03*
X7061500D02*
D03*
X6807500D02*
D03*
X6553500D02*
D03*
X6299500D02*
D03*
X6045500D02*
D03*
X5791500D02*
D03*
X5537500D02*
D03*
X5283500D02*
D03*
X5029500D02*
D03*
X4775500D02*
D03*
X4521500D02*
D03*
X4267500D02*
D03*
X4013500D02*
D03*
X3759500D02*
D03*
X3505500D02*
D03*
X3251500D02*
D03*
X2997500D02*
D03*
X2743500D02*
D03*
X2489500D02*
D03*
X8332500Y5000D02*
D03*
X8078500D02*
D03*
X7824500D02*
D03*
X7570500D02*
D03*
X7316500D02*
D03*
X7062500D02*
D03*
X6808500D02*
D03*
X6554500D02*
D03*
X6300500D02*
D03*
X6046500D02*
D03*
X5792500D02*
D03*
X5538500D02*
D03*
X5284500D02*
D03*
X5030500D02*
D03*
X4776500D02*
D03*
X4522500D02*
D03*
X4268500D02*
D03*
X4014500D02*
D03*
X3760500D02*
D03*
X3506500D02*
D03*
X3252500D02*
D03*
X2998500D02*
D03*
X2744500D02*
D03*
X2490500D02*
D03*
X1432772Y-4625255D02*
D03*
Y-4371255D02*
D03*
Y-4117255D02*
D03*
Y-3863255D02*
D03*
Y-3609255D02*
D03*
Y-3355255D02*
D03*
D137*
X-200000Y-6232000D02*
D03*
Y-5089000D02*
D03*
D138*
X684000Y-5339000D02*
D03*
Y-6101000D02*
D03*
Y-5847000D02*
D03*
Y-5593000D02*
D03*
X420000Y-5974000D02*
D03*
X430000Y-5720000D02*
D03*
Y-5466000D02*
D03*
Y-5212000D02*
D03*
D139*
X6577500Y-875000D02*
D03*
X5817500Y-621000D02*
D03*
X5192500Y-875000D02*
D03*
X4432500Y-621000D02*
D03*
X3822500Y-870000D02*
D03*
X3062500Y-616000D02*
D03*
D140*
X8452540Y-7428042D02*
D03*
Y-7678042D02*
D03*
Y-7878042D02*
D03*
Y-8128042D02*
D03*
D141*
X8723540Y-7121042D02*
D03*
Y-8435042D02*
D03*
D142*
X364000Y-4260000D02*
D03*
X110000D02*
D03*
Y-4006000D02*
D03*
Y-3752000D02*
D03*
X364000D02*
D03*
Y-4006000D02*
D03*
X354000Y-7300000D02*
D03*
Y-7046000D02*
D03*
X100000D02*
D03*
Y-7300000D02*
D03*
Y-7554000D02*
D03*
X354000D02*
D03*
D143*
X7834020Y-2343474D02*
D03*
D144*
X8088020D02*
D03*
X8342020D02*
D03*
X8596020D02*
D03*
X8850020D02*
D03*
X9104020D02*
D03*
X9358020D02*
D03*
X9612020D02*
D03*
X7834020Y-540074D02*
D03*
X8088020D02*
D03*
X8342020D02*
D03*
X8596020D02*
D03*
X8850020D02*
D03*
X9104020D02*
D03*
X9358020D02*
D03*
X9612020D02*
D03*
D145*
X9123824Y-3275977D02*
D03*
D146*
X8623824Y-3775977D02*
D03*
Y-3525977D02*
D03*
Y-3025977D02*
D03*
Y-2775977D02*
D03*
D147*
Y-3275977D02*
D03*
X9123824Y-3775977D02*
D03*
Y-2775977D02*
D03*
X9373824D02*
D03*
Y-3775977D02*
D03*
D148*
X6199084Y-8895914D02*
D03*
X602199Y-666734D02*
D03*
X2535249Y-7730378D02*
D03*
X2137438Y-5729931D02*
D03*
X1655124Y-967248D02*
D03*
X505844Y-8384084D02*
D03*
X575844Y-6776584D02*
D03*
X2116588Y-7343566D02*
D03*
X2647700Y-7061059D02*
D03*
X1760200Y-7330000D02*
D03*
X1887367Y-7067279D02*
D03*
X2355400Y-7331426D02*
D03*
X2360335Y-7063349D02*
D03*
X2475199Y-7060290D02*
D03*
X1909840Y-7336384D02*
D03*
X2015239Y-7335143D02*
D03*
X2286758Y-7018463D02*
D03*
X1762700Y-7070000D02*
D03*
X1827500Y-7332500D02*
D03*
X2001401Y-7067978D02*
D03*
X2120602Y-7065774D02*
D03*
X2230001Y-7060000D02*
D03*
X1438765Y-7643102D02*
D03*
X1847150Y-7728887D02*
D03*
X2471191Y-7547647D02*
D03*
X2904055Y-7863309D02*
D03*
X2819293Y-8205365D02*
D03*
X2076990Y-8537110D02*
D03*
X1916676Y-8143486D02*
D03*
X1743921Y-8168375D02*
D03*
X1767025Y-8103769D02*
D03*
X7489399Y-5904786D02*
D03*
X2307722Y-6820200D02*
D03*
X1073755Y-1345347D02*
D03*
X713440Y-1276698D02*
D03*
X839929Y-1005141D02*
D03*
X1018445Y-3080454D02*
D03*
X1906272Y-7676321D02*
D03*
X1980557Y-5476131D02*
D03*
X1626807Y-514244D02*
D03*
X2084525Y-516101D02*
D03*
X1793067Y-8488494D02*
D03*
X7909709Y-7873169D02*
D03*
X2052256Y-5924472D02*
D03*
X3165849Y-3416740D02*
D03*
X1880546Y-8489755D02*
D03*
X8090129Y-2838733D02*
D03*
X3223010Y-3489518D02*
D03*
X2824999Y-7386020D02*
D03*
X2859533Y-7554034D02*
D03*
X2864949Y-7628554D02*
D03*
X1966864Y-8493588D02*
D03*
X2027300Y-8458134D02*
D03*
X1945000Y-8207500D02*
D03*
X2864752Y-8137700D02*
D03*
X1780339Y-7779351D02*
D03*
X1390000Y-8210000D02*
D03*
X6652730Y-8895657D02*
D03*
X7453353Y-7556831D02*
D03*
X3175783Y-2835389D02*
D03*
X4369415Y-2838247D02*
D03*
X2465400Y-7630000D02*
D03*
X3344421Y-2921250D02*
D03*
X3156708Y-3301329D02*
D03*
X3132490Y-3214217D02*
D03*
X1767500Y-7972500D02*
D03*
X1539824Y-911493D02*
D03*
X3407862Y-175397D02*
D03*
X6100000Y-2920000D02*
D03*
X5777500Y-2837500D02*
D03*
X4700000Y-2920000D02*
D03*
X1720000Y-8054700D02*
D03*
X2595000Y-7950000D02*
D03*
D149*
X1409565Y-6028039D02*
D03*
X7352201Y-5572158D02*
D03*
X7227895D02*
D03*
X6971935D02*
D03*
X7099688D02*
D03*
X909240Y-6927907D02*
D03*
X1192175Y-8065503D02*
D03*
X869425Y-7811084D02*
D03*
X467927Y-3391255D02*
D03*
X5634231Y-4074962D02*
D03*
X8858072Y-5697479D02*
D03*
Y-5900636D02*
D03*
Y-6104877D02*
D03*
Y-6314192D02*
D03*
Y-6520970D02*
D03*
X1192621Y-7403739D02*
D03*
X2632593Y-8441962D02*
D03*
X2780856Y-8440753D02*
D03*
X7738006Y-5537856D02*
D03*
X2271082Y-2566163D02*
D03*
X2309070Y-5239684D02*
D03*
X3957633Y-6599003D02*
D03*
X3930828Y-6978308D02*
D03*
X3750828Y-6798308D02*
D03*
X7100539Y-5298020D02*
D03*
X6971084D02*
D03*
X6789242Y-5829829D02*
D03*
X6989214Y-6035939D02*
D03*
X7354083Y-5298020D02*
D03*
X7229776D02*
D03*
X8858072Y-5490506D02*
D03*
X2302295Y-6096787D02*
D03*
X1592554Y-5476474D02*
D03*
X5890188Y-3485288D02*
D03*
X8858072Y-5280535D02*
D03*
X6890188Y-4165922D02*
D03*
X1430208Y-8450302D02*
D03*
X5436462Y-8532609D02*
D03*
X5350133Y-8509202D02*
D03*
X5524469D02*
D03*
X1395000Y-8740000D02*
D03*
X5880133Y-8489202D02*
D03*
X6270133Y-7323802D02*
D03*
X5725133D02*
D03*
X6570133D02*
D03*
X6870133D02*
D03*
X6050133Y-8356502D02*
D03*
X9647233Y-5697313D02*
D03*
X9649744Y-5900649D02*
D03*
Y-6108067D02*
D03*
X9645000Y-5490000D02*
D03*
X9645000Y-5280000D02*
D03*
X6300000Y-2920000D02*
D03*
X5000000Y-3040000D02*
D03*
X6570188Y-4605922D02*
D03*
Y-4165922D02*
D03*
X6890188Y-5065922D02*
D03*
Y-4605922D02*
D03*
X5390187Y-3730922D02*
D03*
X5540187D02*
D03*
X5720188Y-4605922D02*
D03*
X5890188Y-3745922D02*
D03*
X5895187Y-5760922D02*
D03*
Y-5460923D02*
D03*
X6065187Y-5620922D02*
D03*
X6120188Y-3605922D02*
D03*
X6220188Y-5065922D02*
D03*
Y-4165922D02*
D03*
Y-4605922D02*
D03*
X6570188Y-5065922D02*
D03*
X5294189Y-5735922D02*
D03*
X3770188Y-4025922D02*
D03*
X3950188Y-3855922D02*
D03*
Y-4195923D02*
D03*
X5295187Y-5520922D02*
D03*
X5125187Y-5610922D02*
D03*
X5135187Y-5030923D02*
D03*
X5240187Y-3730922D02*
D03*
X3635000Y-3035000D02*
D03*
X930000Y-8440000D02*
D03*
X900062Y-7480284D02*
D03*
X5622633Y-6839002D02*
D03*
X6870133Y-6946502D02*
D03*
X6570133D02*
D03*
X6270133D02*
D03*
X5140133Y-7789202D02*
D03*
X5880133Y-8256502D02*
D03*
X5545133Y-6496502D02*
D03*
X5395133D02*
D03*
X5245133D02*
D03*
X6870133Y-7796502D02*
D03*
X6270133D02*
D03*
X7742451Y-2787164D02*
D03*
X180000Y-3270000D02*
D03*
X1440000Y-6930000D02*
D03*
X6120133Y-6356502D02*
D03*
X5890133Y-6216502D02*
D03*
Y-6486502D02*
D03*
X6570133Y-7796502D02*
D03*
X317926Y-885000D02*
D03*
X767500Y-3642500D02*
D03*
X-225000Y-667500D02*
D03*
X512205Y-889999D02*
D03*
X985000Y-8092500D02*
D03*
X930000Y-8570000D02*
D03*
X500000Y-8700000D02*
D03*
X320000D02*
D03*
X-200000Y-8430000D02*
D03*
X904100Y-2277633D02*
D03*
Y-1917633D02*
D03*
X334100Y-1287633D02*
D03*
X904100Y-2097633D02*
D03*
X334100Y-2707633D02*
D03*
X1264100Y-2277633D02*
D03*
Y-2097633D02*
D03*
Y-1917633D02*
D03*
X1084100D02*
D03*
Y-2277633D02*
D03*
Y-2097633D02*
D03*
D150*
X7280384Y-7808457D02*
D03*
X7936742Y-4852877D02*
D03*
X7677192Y-4665332D02*
D03*
X7678507Y-5025739D02*
D03*
%TF.MD5,c0d1de680a02e1a6220ae78de2c783fb*%
M02*
