%TF.GenerationSoftware,Altium Limited,Altium Designer,21.8.1 (53)*%
G04 Layer_Color=255*
%FSLAX45Y45*%
%MOMM*%
%TF.SameCoordinates,BA403207-4E74-424F-88DB-B819054AD5B4*%
%TF.FilePolarity,Positive*%
%TF.FileFunction,Pads,Top*%
%TF.Part,Single*%
G01*
G75*
%TA.AperFunction,SMDPad,CuDef*%
%ADD10R,3.50000X1.60000*%
%ADD11R,0.80000X0.80000*%
%ADD12R,0.72000X1.78000*%
%ADD13R,0.90000X0.60000*%
%ADD14R,0.60000X0.60000*%
G04:AMPARAMS|DCode=15|XSize=1.47mm|YSize=0.28mm|CornerRadius=0.035mm|HoleSize=0mm|Usage=FLASHONLY|Rotation=90.000|XOffset=0mm|YOffset=0mm|HoleType=Round|Shape=RoundedRectangle|*
%AMROUNDEDRECTD15*
21,1,1.47000,0.21000,0,0,90.0*
21,1,1.40000,0.28000,0,0,90.0*
1,1,0.07000,0.10500,0.70000*
1,1,0.07000,0.10500,-0.70000*
1,1,0.07000,-0.10500,-0.70000*
1,1,0.07000,-0.10500,0.70000*
%
%ADD15ROUNDEDRECTD15*%
G04:AMPARAMS|DCode=16|XSize=1.47mm|YSize=0.28mm|CornerRadius=0.035mm|HoleSize=0mm|Usage=FLASHONLY|Rotation=0.000|XOffset=0mm|YOffset=0mm|HoleType=Round|Shape=RoundedRectangle|*
%AMROUNDEDRECTD16*
21,1,1.47000,0.21000,0,0,0.0*
21,1,1.40000,0.28000,0,0,0.0*
1,1,0.07000,0.70000,-0.10500*
1,1,0.07000,-0.70000,-0.10500*
1,1,0.07000,-0.70000,0.10500*
1,1,0.07000,0.70000,0.10500*
%
%ADD16ROUNDEDRECTD16*%
%ADD17R,0.90000X2.00000*%
%ADD18R,2.00000X0.90000*%
%ADD19R,5.00000X5.00000*%
%ADD20R,1.30000X0.70000*%
%ADD21R,0.60000X0.60000*%
%ADD22R,0.80000X0.80000*%
%ADD23R,0.90000X0.50000*%
%ADD24R,2.50000X2.30000*%
%ADD25R,5.40000X2.90000*%
%ADD26R,8.60000X10.70000*%
%ADD27R,3.40000X1.00000*%
%ADD28R,0.70000X1.30000*%
%ADD29R,1.20000X1.20000*%
%ADD30R,1.20000X0.80000*%
%ADD31R,0.60000X0.90000*%
%TA.AperFunction,ConnectorPad*%
%ADD32R,0.60000X0.90000*%
%TA.AperFunction,SMDPad,CuDef*%
%ADD33R,2.50000X1.80000*%
%ADD34R,0.50000X0.90000*%
%ADD35R,0.80000X1.40000*%
%ADD36R,1.00000X0.70000*%
%ADD37R,1.40000X1.20000*%
%ADD38R,1.30000X0.90000*%
%ADD39R,1.10000X1.90000*%
%ADD40R,0.90000X1.30000*%
%TA.AperFunction,ViaPad*%
%ADD53C,6.00000*%
%TA.AperFunction,ComponentPad*%
%ADD54C,1.60000*%
%ADD55R,1.60000X1.60000*%
%ADD56C,2.00000*%
%ADD57R,1.60000X1.60000*%
%ADD58C,1.52400*%
%ADD59C,1.50000*%
%ADD60R,1.50000X1.50000*%
%ADD61O,3.50000X2.60000*%
%ADD62C,2.20000*%
%ADD63C,3.00000*%
%ADD64C,1.80000*%
%ADD65R,1.30800X1.30800*%
%ADD66C,1.30800*%
%ADD67O,2.00000X4.00000*%
%ADD68O,4.00000X2.00000*%
%ADD69C,1.40000*%
D10*
X5380189Y-5615922D02*
D03*
X5888189D02*
D03*
X5890133Y-6356502D02*
D03*
X5382133D02*
D03*
X5380189Y-3605922D02*
D03*
X5888189D02*
D03*
X5382133Y-8356502D02*
D03*
X5890133D02*
D03*
D11*
X2781716Y-8512099D02*
D03*
X2631716D02*
D03*
X7087364Y-6128094D02*
D03*
X7237364D02*
D03*
X5540189Y-4075922D02*
D03*
X5390189D02*
D03*
X5395133Y-6839002D02*
D03*
X5545133D02*
D03*
X1649211Y-6027013D02*
D03*
X1499211D02*
D03*
X1081843Y-8353884D02*
D03*
X931843D02*
D03*
X1291843D02*
D03*
X1441843D02*
D03*
X1291843Y-7013884D02*
D03*
X1441843D02*
D03*
X911843D02*
D03*
X1061843D02*
D03*
X317500Y-3075000D02*
D03*
X467500D02*
D03*
D12*
X7352901Y-5909292D02*
D03*
X7225901D02*
D03*
X7098901D02*
D03*
X6971901D02*
D03*
Y-5441292D02*
D03*
X7098901D02*
D03*
X7225901D02*
D03*
X7352901D02*
D03*
D13*
X7571939Y-5610583D02*
D03*
Y-5460583D02*
D03*
X7571536Y-5903947D02*
D03*
Y-5753947D02*
D03*
X1000000Y-7630000D02*
D03*
Y-7480000D02*
D03*
D14*
X2560886Y-7002574D02*
D03*
Y-6922574D02*
D03*
X1108000Y-3305000D02*
D03*
Y-3225000D02*
D03*
X7528516Y-7634371D02*
D03*
Y-7554371D02*
D03*
X961290Y-9529885D02*
D03*
Y-9609885D02*
D03*
X7909882Y-8032963D02*
D03*
Y-7952963D02*
D03*
D15*
X1780001Y-8344000D02*
D03*
X1830000D02*
D03*
X1880001D02*
D03*
X1930000D02*
D03*
X1980001D02*
D03*
X2030001D02*
D03*
X2080000D02*
D03*
X2130001D02*
D03*
X2180000D02*
D03*
X2230001D02*
D03*
X2280001D02*
D03*
X2330000D02*
D03*
X2380001D02*
D03*
X2430000D02*
D03*
X2480001D02*
D03*
X2530001D02*
D03*
Y-7210000D02*
D03*
X2480001D02*
D03*
X2430000D02*
D03*
X2380001D02*
D03*
X2330000D02*
D03*
X2280001D02*
D03*
X2230001D02*
D03*
X2180000D02*
D03*
X2130001D02*
D03*
X2080000D02*
D03*
X2030001D02*
D03*
X1980001D02*
D03*
X1930000D02*
D03*
X1880001D02*
D03*
X1830000D02*
D03*
X1780001D02*
D03*
D16*
X1588001Y-7402000D02*
D03*
Y-7452000D02*
D03*
Y-7502000D02*
D03*
Y-7552000D02*
D03*
Y-7602000D02*
D03*
Y-7652000D02*
D03*
Y-7702000D02*
D03*
Y-7752000D02*
D03*
Y-7802000D02*
D03*
Y-7852000D02*
D03*
Y-7902000D02*
D03*
Y-7952000D02*
D03*
Y-8002000D02*
D03*
Y-8052000D02*
D03*
Y-8102000D02*
D03*
Y-8152000D02*
D03*
X2722000D02*
D03*
Y-8102000D02*
D03*
Y-8052000D02*
D03*
Y-8002000D02*
D03*
Y-7952000D02*
D03*
Y-7902000D02*
D03*
Y-7852000D02*
D03*
Y-7802000D02*
D03*
Y-7752000D02*
D03*
Y-7702000D02*
D03*
Y-7652000D02*
D03*
Y-7602000D02*
D03*
Y-7552000D02*
D03*
Y-7502000D02*
D03*
Y-7452000D02*
D03*
Y-7402000D02*
D03*
D17*
X334000Y-1147332D02*
D03*
X461000D02*
D03*
X588000D02*
D03*
X715000D02*
D03*
X842000D02*
D03*
X969000D02*
D03*
X1096000D02*
D03*
X1223000D02*
D03*
X1350000D02*
D03*
X1477000D02*
D03*
X1604000D02*
D03*
X1731000D02*
D03*
X1858000D02*
D03*
X1985000D02*
D03*
Y-2847332D02*
D03*
X1858000D02*
D03*
X1731000D02*
D03*
X1604000D02*
D03*
X1477000D02*
D03*
X1350000D02*
D03*
X1223000D02*
D03*
X1096000D02*
D03*
X969000D02*
D03*
X842000D02*
D03*
X715000D02*
D03*
X588000D02*
D03*
X461000D02*
D03*
X334000D02*
D03*
D18*
X2085000Y-1425832D02*
D03*
Y-1552832D02*
D03*
Y-1679832D02*
D03*
Y-1806832D02*
D03*
Y-1933832D02*
D03*
Y-2060832D02*
D03*
Y-2187832D02*
D03*
Y-2314832D02*
D03*
Y-2441832D02*
D03*
Y-2568832D02*
D03*
D19*
X1084100Y-2097633D02*
D03*
D20*
X1100000Y-5758000D02*
D03*
Y-5568000D02*
D03*
X6299500Y-9085325D02*
D03*
Y-8895325D02*
D03*
X6553500Y-9085325D02*
D03*
Y-8895325D02*
D03*
X1728488Y-514094D02*
D03*
Y-324095D02*
D03*
X1984073Y-514094D02*
D03*
Y-324095D02*
D03*
X5900000Y-2840000D02*
D03*
Y-3030000D02*
D03*
X3077500Y-2837500D02*
D03*
Y-3027500D02*
D03*
X4472447Y-3027501D02*
D03*
Y-2837501D02*
D03*
D21*
X7528516Y-7554371D02*
D03*
X7608516D02*
D03*
X7989882Y-7952963D02*
D03*
X7909882D02*
D03*
D22*
X6787786Y-5583733D02*
D03*
Y-5733733D02*
D03*
X7832450Y-2637164D02*
D03*
Y-2787164D02*
D03*
X1192500Y-7980000D02*
D03*
Y-7830000D02*
D03*
Y-7630000D02*
D03*
Y-7480000D02*
D03*
X514705Y-665000D02*
D03*
Y-815000D02*
D03*
X500000Y-8620000D02*
D03*
Y-8470000D02*
D03*
D23*
X4960133Y-7546502D02*
D03*
Y-7696502D02*
D03*
X5140133D02*
D03*
Y-7546502D02*
D03*
X5140189Y-4945922D02*
D03*
Y-4795922D02*
D03*
X4970189Y-4945922D02*
D03*
Y-4795922D02*
D03*
X8087629Y-2773733D02*
D03*
Y-2623733D02*
D03*
X317500Y-815000D02*
D03*
Y-665000D02*
D03*
X320000Y-8470000D02*
D03*
Y-8620000D02*
D03*
D24*
X3950189Y-4025922D02*
D03*
X4380189D02*
D03*
X3957633Y-6774002D02*
D03*
X4387633D02*
D03*
D25*
X4180133Y-7416502D02*
D03*
Y-8386502D02*
D03*
X4180190Y-5655922D02*
D03*
Y-4685922D02*
D03*
D26*
X6550189Y-4605922D02*
D03*
X6558130Y-7356818D02*
D03*
D27*
X5490189Y-4945923D02*
D03*
Y-4775922D02*
D03*
Y-4605922D02*
D03*
Y-4435923D02*
D03*
Y-4265922D02*
D03*
X5498130Y-7016818D02*
D03*
Y-7186818D02*
D03*
Y-7356818D02*
D03*
Y-7526818D02*
D03*
Y-7696818D02*
D03*
D28*
X2583155Y-6097502D02*
D03*
X2393155D02*
D03*
X2588155Y-5237502D02*
D03*
X2398155D02*
D03*
D29*
X2588511Y-5855002D02*
D03*
X2378511D02*
D03*
X2588511Y-5473480D02*
D03*
X2378511D02*
D03*
X3475210Y-281088D02*
D03*
X3265210D02*
D03*
X4843339Y-282439D02*
D03*
X4633339D02*
D03*
X6227542Y-278741D02*
D03*
X6017542D02*
D03*
X9550000Y-6520930D02*
D03*
X9340000D02*
D03*
Y-6105443D02*
D03*
X9550000D02*
D03*
X9340000Y-5696042D02*
D03*
X9550000D02*
D03*
X9340000Y-5490000D02*
D03*
X9550000D02*
D03*
Y-5280000D02*
D03*
X9340000D02*
D03*
Y-5900000D02*
D03*
X9550000D02*
D03*
X9340000Y-6313844D02*
D03*
X9550000D02*
D03*
D30*
X2050368Y-5853636D02*
D03*
Y-5726636D02*
D03*
Y-5599636D02*
D03*
Y-5472636D02*
D03*
X1500368Y-5853636D02*
D03*
Y-5726636D02*
D03*
Y-5599636D02*
D03*
Y-5472636D02*
D03*
D31*
X2917272Y-281996D02*
D03*
X3067272D02*
D03*
X4285726Y-284134D02*
D03*
X4435726D02*
D03*
X9103680Y-5280000D02*
D03*
X8953680D02*
D03*
D32*
X5670000Y-280000D02*
D03*
X5820000D02*
D03*
D33*
X6014542Y-2512500D02*
D03*
X6414542D02*
D03*
X3642500Y-2512500D02*
D03*
X3242500D02*
D03*
X4622702Y-2512500D02*
D03*
X5022702D02*
D03*
D34*
X9103461Y-5696364D02*
D03*
X8953461D02*
D03*
X9103680Y-6106794D02*
D03*
X8953680D02*
D03*
X767500Y-3752500D02*
D03*
X617500D02*
D03*
X515000Y-6775000D02*
D03*
X365000D02*
D03*
X8953680Y-5901036D02*
D03*
X9103680D02*
D03*
Y-6520697D02*
D03*
X8953680D02*
D03*
Y-5490000D02*
D03*
X9103680D02*
D03*
X9104390Y-6313388D02*
D03*
X8954390D02*
D03*
D35*
X6100000Y-3040000D02*
D03*
X6300000D02*
D03*
X6200000Y-2800000D02*
D03*
X3436250Y-2795000D02*
D03*
X3536250Y-3035000D02*
D03*
X3336250D02*
D03*
X4801961Y-2795000D02*
D03*
X4901961Y-3035000D02*
D03*
X4701961D02*
D03*
D36*
X-300000Y-8430000D02*
D03*
D03*
Y-8655000D02*
D03*
X160000D02*
D03*
Y-8430000D02*
D03*
X137500Y-665000D02*
D03*
Y-890000D02*
D03*
X-322500D02*
D03*
Y-665000D02*
D03*
D03*
D37*
X1271843Y-8573884D02*
D03*
X1051843D02*
D03*
Y-8733884D02*
D03*
X1271843D02*
D03*
D38*
X988951Y-7997316D02*
D03*
Y-7807316D02*
D03*
D39*
X1301843Y-6783884D02*
D03*
X1051843D02*
D03*
D40*
X467500Y-3275000D02*
D03*
X277500D02*
D03*
D53*
X9300000Y-9300000D02*
D03*
Y0D02*
D03*
X0D02*
D03*
Y-9300000D02*
D03*
D54*
X4080000Y-6122000D02*
D03*
X4334000D02*
D03*
X3197580Y-8000386D02*
D03*
Y-7746386D02*
D03*
Y-7492386D02*
D03*
Y-7238386D02*
D03*
Y-6984386D02*
D03*
X2235500Y-9297500D02*
D03*
X8331500D02*
D03*
X8077500D02*
D03*
X7823500D02*
D03*
X7569500D02*
D03*
X7315500D02*
D03*
X7061500D02*
D03*
X6807500D02*
D03*
X6553500D02*
D03*
X6299500D02*
D03*
X6045500D02*
D03*
X5791500D02*
D03*
X5537500D02*
D03*
X5283500D02*
D03*
X5029500D02*
D03*
X4775500D02*
D03*
X4521500D02*
D03*
X4267500D02*
D03*
X4013500D02*
D03*
X3759500D02*
D03*
X3505500D02*
D03*
X3251500D02*
D03*
X2997500D02*
D03*
X2743500D02*
D03*
X2489500D02*
D03*
X1981500D02*
D03*
X1727500D02*
D03*
X1473500D02*
D03*
X1219500D02*
D03*
X2236500Y5000D02*
D03*
X8332500D02*
D03*
X8078500D02*
D03*
X7824500D02*
D03*
X7570500D02*
D03*
X7316500D02*
D03*
X7062500D02*
D03*
X6808500D02*
D03*
X6554500D02*
D03*
X6300500D02*
D03*
X6046500D02*
D03*
X5792500D02*
D03*
X5538500D02*
D03*
X5284500D02*
D03*
X5030500D02*
D03*
X4776500D02*
D03*
X4522500D02*
D03*
X4268500D02*
D03*
X4014500D02*
D03*
X3760500D02*
D03*
X3506500D02*
D03*
X3252500D02*
D03*
X2998500D02*
D03*
X2744500D02*
D03*
X2490500D02*
D03*
X1982500D02*
D03*
X1728500D02*
D03*
X1474500D02*
D03*
X1220500D02*
D03*
X1432772Y-4371255D02*
D03*
Y-4117255D02*
D03*
Y-3863255D02*
D03*
Y-3609255D02*
D03*
Y-3355255D02*
D03*
D55*
X4588000Y-6122000D02*
D03*
X965500Y-9297500D02*
D03*
X966500Y5000D02*
D03*
D56*
X1859160Y-8814302D02*
D03*
X2119160Y-8811802D02*
D03*
X1996660Y-6124302D02*
D03*
X9450000Y-4800000D02*
D03*
Y-4300000D02*
D03*
D57*
X3197580Y-8254386D02*
D03*
X1432772Y-4625255D02*
D03*
D58*
X-200000Y-6232000D02*
D03*
Y-5089000D02*
D03*
D59*
X684000Y-5339000D02*
D03*
Y-6101000D02*
D03*
Y-5847000D02*
D03*
Y-5593000D02*
D03*
X420000Y-5974000D02*
D03*
X430000Y-5720000D02*
D03*
Y-5466000D02*
D03*
X8452540Y-7428042D02*
D03*
Y-7678042D02*
D03*
Y-7878042D02*
D03*
Y-8128042D02*
D03*
D60*
X430000Y-5212000D02*
D03*
D61*
X6577500Y-875000D02*
D03*
X5817500Y-621000D02*
D03*
X5192500Y-875000D02*
D03*
X4432500Y-621000D02*
D03*
X3822500Y-870000D02*
D03*
X3062500Y-616000D02*
D03*
D62*
X6577500Y-2145000D02*
D03*
X5817500D02*
D03*
X5192500D02*
D03*
X4432500D02*
D03*
X3822500Y-2140000D02*
D03*
X3062500D02*
D03*
D63*
X8723540Y-7121042D02*
D03*
Y-8435042D02*
D03*
D64*
X364000Y-4260000D02*
D03*
X110000D02*
D03*
Y-4006000D02*
D03*
Y-3752000D02*
D03*
X364000D02*
D03*
Y-4006000D02*
D03*
X354000Y-7300000D02*
D03*
Y-7046000D02*
D03*
X100000D02*
D03*
Y-7300000D02*
D03*
Y-7554000D02*
D03*
X354000D02*
D03*
D65*
X7834020Y-2343474D02*
D03*
D66*
X8088020D02*
D03*
X8342020D02*
D03*
X8596020D02*
D03*
X8850020D02*
D03*
X9104020D02*
D03*
X9358020D02*
D03*
X9612020D02*
D03*
X7834020Y-540074D02*
D03*
X8088020D02*
D03*
X8342020D02*
D03*
X8596020D02*
D03*
X8850020D02*
D03*
X9104020D02*
D03*
X9358020D02*
D03*
X9612020D02*
D03*
D67*
X9123824Y-3275977D02*
D03*
D68*
X8623824Y-3775977D02*
D03*
Y-3525977D02*
D03*
Y-3025977D02*
D03*
Y-2775977D02*
D03*
D69*
Y-3275977D02*
D03*
X9123824Y-3775977D02*
D03*
Y-2775977D02*
D03*
X9373824D02*
D03*
Y-3775977D02*
D03*
%TF.MD5,3f85ca09d2bcd656e421c32d02a3e378*%
M02*
