%TF.GenerationSoftware,Altium Limited,Altium Designer,21.8.1 (53)*%
G04 Layer_Physical_Order=4*
G04 Layer_Color=16711680*
%FSLAX45Y45*%
%MOMM*%
%TF.SameCoordinates,BA403207-4E74-424F-88DB-B819054AD5B4*%
%TF.FilePolarity,Positive*%
%TF.FileFunction,Copper,L4,Bot,Signal*%
%TF.Part,Single*%
G01*
G75*
%TA.AperFunction,Conductor*%
%ADD41C,0.20000*%
%ADD42C,0.25400*%
%ADD43C,0.50000*%
%ADD44C,0.30000*%
%ADD51C,0.80000*%
%TA.AperFunction,ViaPad*%
%ADD53C,6.00000*%
%TA.AperFunction,ComponentPad*%
%ADD54C,1.60000*%
%ADD55R,1.60000X1.60000*%
%ADD56C,2.00000*%
%ADD57R,1.60000X1.60000*%
%ADD58C,1.52400*%
%ADD59C,1.50000*%
%ADD60R,1.50000X1.50000*%
%ADD61O,3.50000X2.60000*%
%ADD62C,2.20000*%
%ADD63C,3.00000*%
%ADD64C,1.80000*%
%ADD65R,1.30800X1.30800*%
%ADD66C,1.30800*%
%ADD67O,2.00000X4.00000*%
%ADD68O,4.00000X2.00000*%
%ADD69C,1.40000*%
%TA.AperFunction,ViaPad*%
%ADD70C,0.45000*%
%ADD71C,0.60000*%
%ADD72C,1.00000*%
%TA.AperFunction,SMDPad,CuDef*%
%ADD75R,3.81000X2.08000*%
%ADD76R,8.89000X11.43000*%
%ADD77R,1.20000X1.20000*%
%TA.AperFunction,Conductor*%
%ADD78C,1.00000*%
G36*
X9268304Y-4031773D02*
X9743242D01*
Y-4581679D01*
X9318071D01*
X9303878Y-4595872D01*
Y-5162291D01*
X9290314Y-5175854D01*
X8382412D01*
X8357545Y-5150986D01*
Y-4056138D01*
X8382898Y-4030784D01*
X9267316D01*
X9268304Y-4031773D01*
D02*
G37*
G36*
X7905504Y-4232134D02*
Y-4451689D01*
X7881460Y-4475733D01*
X7565775D01*
X7443727Y-4597781D01*
Y-5557590D01*
X7408138Y-5593179D01*
X7407352D01*
X7386936Y-5613595D01*
X7208295D01*
X7158336Y-5563637D01*
Y-4311319D01*
X7309242Y-4160414D01*
X7833784D01*
X7905504Y-4232134D01*
D02*
G37*
G36*
X5479224Y-5537043D02*
Y-6666007D01*
X5597203Y-6783986D01*
X5594725Y-6796442D01*
X5594310Y-6796614D01*
X5580245Y-6810680D01*
X5572633Y-6829057D01*
Y-6848948D01*
X5580245Y-6867325D01*
X5594310Y-6881390D01*
X5612688Y-6889002D01*
X5632579D01*
X5650956Y-6881390D01*
X5665021Y-6867325D01*
X5665193Y-6866910D01*
X5677649Y-6864432D01*
X6551774Y-7738558D01*
X6549297Y-7751013D01*
X6541810Y-7754114D01*
X6527745Y-7768180D01*
X6520133Y-7786557D01*
Y-7806448D01*
X6527745Y-7824825D01*
X6541810Y-7838890D01*
X6560188Y-7846502D01*
X6580079D01*
X6598456Y-7838890D01*
X6612521Y-7824825D01*
X6615622Y-7817339D01*
X6628078Y-7814861D01*
X6813301Y-8000085D01*
X8323041D01*
X8499678Y-7999586D01*
X8555616Y-8055524D01*
Y-8189609D01*
X8457726Y-8287499D01*
X8381454Y-8367178D01*
X6430561D01*
X5049724Y-6986341D01*
Y-5530058D01*
X5150957Y-5428825D01*
X5371007D01*
X5479224Y-5537043D01*
D02*
G37*
%LPC*%
G36*
X5405079Y-6446502D02*
X5385187D01*
X5366810Y-6454114D01*
X5352745Y-6468180D01*
X5345133Y-6486557D01*
Y-6506448D01*
X5352745Y-6524825D01*
X5366810Y-6538890D01*
X5385187Y-6546502D01*
X5405079D01*
X5423456Y-6538890D01*
X5437521Y-6524825D01*
X5445133Y-6506448D01*
Y-6486557D01*
X5437521Y-6468180D01*
X5423456Y-6454114D01*
X5405079Y-6446502D01*
D02*
G37*
G36*
X5255079D02*
X5235187D01*
X5216810Y-6454114D01*
X5202745Y-6468180D01*
X5195133Y-6486557D01*
Y-6506448D01*
X5202745Y-6524825D01*
X5216810Y-6538890D01*
X5235187Y-6546502D01*
X5255079D01*
X5273456Y-6538890D01*
X5287521Y-6524825D01*
X5295133Y-6506448D01*
Y-6486557D01*
X5287521Y-6468180D01*
X5273456Y-6454114D01*
X5255079Y-6446502D01*
D02*
G37*
G36*
X5735079Y-7273803D02*
X5715188D01*
X5696811Y-7281414D01*
X5682745Y-7295480D01*
X5675133Y-7313857D01*
Y-7333748D01*
X5682745Y-7352125D01*
X5696811Y-7366190D01*
X5715188Y-7373802D01*
X5735079D01*
X5753456Y-7366190D01*
X5767521Y-7352125D01*
X5775133Y-7333748D01*
Y-7313857D01*
X5767521Y-7295480D01*
X5753456Y-7281414D01*
X5735079Y-7273803D01*
D02*
G37*
G36*
X6280079Y-7746502D02*
X6260188D01*
X6241810Y-7754114D01*
X6227745Y-7768180D01*
X6220133Y-7786557D01*
Y-7806448D01*
X6227745Y-7824825D01*
X6241810Y-7838890D01*
X6260188Y-7846502D01*
X6280079D01*
X6298456Y-7838890D01*
X6312521Y-7824825D01*
X6320133Y-7806448D01*
Y-7786557D01*
X6312521Y-7768180D01*
X6298456Y-7754114D01*
X6280079Y-7746502D01*
D02*
G37*
%LPD*%
D41*
X7808674Y-3120188D02*
X8090129Y-2838733D01*
X3462402Y-3120188D02*
X7808674D01*
X7976145Y-3172924D02*
X8342020Y-2807049D01*
X3539604Y-3172924D02*
X7976145D01*
X2819293Y-8205365D02*
X3246537Y-8632609D01*
X6142609D01*
X2900170Y-8223291D02*
X3269488Y-8592609D01*
X6433751D01*
X2900170Y-8223291D02*
Y-8173118D01*
X2864752Y-8137700D02*
X2900170Y-8173118D01*
X3181055Y-7979474D02*
X3197580Y-7996000D01*
X2587855Y-7465055D02*
X3102274Y-7979474D01*
X999880Y-7465055D02*
X2587855D01*
X3102274Y-7979474D02*
X3181055D01*
X627485Y-7242618D02*
X802167Y-7417300D01*
X627485Y-7242618D02*
Y-6828225D01*
X802167Y-7417300D02*
X952124D01*
X999880Y-7465055D01*
X945319Y-7587902D02*
X2351840D01*
X2393938Y-7630000D02*
X2465400D01*
X2351840Y-7587902D02*
X2393938Y-7630000D01*
X1965983Y-5290531D02*
X2239899Y-5564447D01*
X1965983Y-265517D02*
X2236500Y5000D01*
X1965983Y-5290531D02*
Y-265517D01*
X1915148Y-5313919D02*
X2189938Y-5588709D01*
X1915148Y-134102D02*
X1960593Y-88657D01*
X1915148Y-5313919D02*
Y-134102D01*
X1827500Y-7332500D02*
Y-7325735D01*
X1815980Y-7314215D02*
Y-336480D01*
X1474500Y5000D02*
X1815980Y-336480D01*
Y-7314215D02*
X1827500Y-7325735D01*
X1939867Y-7114013D02*
Y-6679307D01*
X2189938Y-6429236D01*
X2452187Y-7542502D02*
X2453581Y-7543896D01*
X2467440D01*
X2471191Y-7547647D01*
X926514Y-7542502D02*
X2452187D01*
X854804Y-7587902D02*
X855286Y-7588384D01*
X510000Y-7720000D02*
X642098Y-7587902D01*
X944838Y-7588384D02*
X945319Y-7587902D01*
X642098D02*
X854804D01*
X855286Y-7588384D02*
X944838D01*
X245520Y-7720000D02*
X510000D01*
X100000Y-7574480D02*
X245520Y-7720000D01*
X100000Y-7574480D02*
Y-7554000D01*
X776328Y-7542502D02*
X873610D01*
X874091Y-7542984D02*
X926033D01*
X550000Y-7316175D02*
X776328Y-7542502D01*
X926033Y-7542984D02*
X926514Y-7542502D01*
X873610D02*
X874091Y-7542984D01*
X575844Y-6776584D02*
X627485Y-6828225D01*
X550000Y-7316175D02*
Y-6990000D01*
X100000Y-7046000D02*
Y-7017514D01*
X434842Y-6874842D02*
X550000Y-6990000D01*
X100000Y-7017514D02*
X242672Y-6874842D01*
X434842D01*
X1727553Y-7675580D02*
X1905531D01*
X1906272Y-7676321D01*
X1490208Y-7912925D02*
X1727553Y-7675580D01*
X1867370Y-5437867D02*
Y-125332D01*
X1866148Y-7044341D02*
Y-5439089D01*
X1867370Y-5437867D01*
X1866148Y-7044341D02*
X1887367Y-7065560D01*
Y-7067279D02*
Y-7065560D01*
X1737037Y5000D02*
X1867370Y-125332D01*
X3165849Y-3416740D02*
X3462402Y-3120188D01*
X3223010Y-3489518D02*
X3539604Y-3172924D01*
X2843728Y-8537110D02*
X2985981Y-8679364D01*
X3903364D01*
X2076990Y-8537110D02*
X2843728D01*
X2189938Y-6429236D02*
Y-5588709D01*
X966500Y5000D02*
X1710000Y-738500D01*
Y-7279800D02*
X1760200Y-7330000D01*
X1710000Y-7279800D02*
Y-738500D01*
X2116588Y-7337486D02*
X2173102Y-7280972D01*
X2116588Y-7343566D02*
Y-7337486D01*
X1909840Y-7144040D02*
X1939867Y-7114013D01*
X1909840Y-7336384D02*
Y-7144040D01*
X2173102Y-7280972D02*
Y-6772735D01*
X2493726Y-6452111D01*
X1842947Y-7724685D02*
X1847150Y-7728887D01*
X1748771Y-7724685D02*
X1842947D01*
X2024490Y-8460944D02*
X2027300Y-8458134D01*
X2024490Y-8560144D02*
Y-8460944D01*
X2820715Y-8589610D02*
X2950476Y-8719371D01*
X2053956Y-8589610D02*
X2820715D01*
X2020592Y-8629610D02*
X2804147D01*
X1966864Y-8575883D02*
X2020592Y-8629610D01*
X2024490Y-8560144D02*
X2053956Y-8589610D01*
X2804147Y-8629610D02*
X2933908Y-8759371D01*
X1740567Y-8520369D02*
Y-8466748D01*
Y-8520369D02*
X1894721Y-8674522D01*
X2776505D01*
X1743921Y-8463394D02*
Y-8168375D01*
X1740567Y-8466748D02*
X1743921Y-8463394D01*
X1611421Y-8044881D02*
X1683801Y-7972500D01*
X1611421Y-8902156D02*
X1744637Y-9035373D01*
X1571421Y-8921160D02*
X1725633Y-9075373D01*
X1571421Y-8921160D02*
Y-7988270D01*
X1651421Y-8881382D02*
X1765411Y-8995373D01*
X1651421Y-8102320D02*
X1695214Y-8058527D01*
X1651421Y-8881382D02*
Y-8102320D01*
X1611421Y-8902156D02*
Y-8044881D01*
X1691421Y-8146337D02*
X1730557Y-8107200D01*
X1691421Y-8864739D02*
Y-8146337D01*
Y-8864739D02*
X1782055Y-8955373D01*
X1571421Y-7988270D02*
X1780339Y-7779351D01*
X1730557Y-8107200D02*
X1763593D01*
X1530208Y-8936000D02*
Y-7943248D01*
X1532688Y-8938995D02*
Y-8938480D01*
X1530208Y-7943248D02*
X1748771Y-7724685D01*
X1490208Y-8958544D02*
Y-7912925D01*
X1530208Y-8936000D02*
X1532688Y-8938480D01*
X1763593Y-8107200D02*
X1767025Y-8103769D01*
X2950476Y-8719371D02*
X3689372D01*
X2933908Y-8759371D02*
X3475372D01*
X2903055Y-8801072D02*
X3263072D01*
X2776505Y-8674522D02*
X2903055Y-8801072D01*
X2475199Y-7060290D02*
Y-6773837D01*
X2753340Y-6495696D01*
X3475372Y-8759371D02*
X4013500Y-9297500D01*
X3689372Y-8719371D02*
X4267500Y-9297500D01*
X3903364Y-8679364D02*
X4521500Y-9297500D01*
X3263072Y-8801072D02*
X3759500Y-9297500D01*
X561377Y-3554623D02*
Y-1609086D01*
X825116Y-1345347D02*
X1073755D01*
X561377Y-1609086D02*
X825116Y-1345347D01*
X364000Y-3752000D02*
X561377Y-3554623D01*
X441461Y-3197214D02*
Y-1403610D01*
X-41104Y-3679779D02*
X441461Y-3197214D01*
X504326Y-3213202D02*
Y-1485812D01*
X110000Y-3607527D02*
X504326Y-3213202D01*
X-41104Y-4108896D02*
X110000Y-4260000D01*
X-41104Y-4108896D02*
Y-3679779D01*
X110000Y-3752000D02*
Y-3607527D01*
X504326Y-1485812D02*
X713440Y-1276698D01*
X441461Y-1403610D02*
X839929Y-1005141D01*
X1782055Y-8955373D02*
X3163373D01*
X1765411Y-8995373D02*
X2949373D01*
X1744637Y-9035373D02*
X2735373D01*
X1709065Y-9115372D02*
X2307373D01*
X1725633Y-9075373D02*
X2521373D01*
X1532688Y-8938995D02*
X1709065Y-9115372D01*
X1687036Y-9155372D02*
X2147758D01*
X1490208Y-8958544D02*
X1687036Y-9155372D01*
X1716173Y-8058527D02*
X1720000Y-8054700D01*
X1695214Y-8058527D02*
X1716173D01*
X2650463Y-6671829D02*
X2813800Y-6508492D01*
X2650463Y-7058296D02*
Y-6671829D01*
X2813800Y-6508492D02*
Y-1449700D01*
X2933074Y-2579237D02*
X4142427Y-1369884D01*
X2881261Y-6586019D02*
X2933074Y-6534206D01*
Y-2579237D01*
X2824999Y-6570510D02*
X2873892Y-6521616D01*
Y-2566685D02*
X4079666Y-1360911D01*
X2873892Y-6521616D02*
Y-2566685D01*
X2813800Y-1449700D02*
X4268500Y5000D01*
X1960593Y-16906D02*
X1982500Y5000D01*
X1960593Y-88657D02*
Y-16906D01*
X2239899Y-6467845D02*
Y-5564447D01*
X2859533Y-7553791D02*
X2881261Y-7532062D01*
Y-6586019D01*
X2859533Y-7554034D02*
Y-7553791D01*
X2824999Y-7386020D02*
Y-6570510D01*
X2753340Y-6495696D02*
Y-1419217D01*
X2420443Y-6752427D02*
X2689989Y-6482881D01*
X2420443Y-7266383D02*
Y-6752427D01*
X2689989Y-6482881D02*
Y-1392211D01*
X2627881Y-6466626D02*
Y-1366289D01*
X2360335Y-7063349D02*
Y-6734171D01*
X2627881Y-6466626D01*
X2560803Y-6459735D02*
Y-686696D01*
X2230001Y-7060000D02*
Y-6790537D01*
X2560803Y-6459735D01*
X2493726Y-6452111D02*
Y-499774D01*
X2117547Y-7062719D02*
Y-6746997D01*
X2432784Y-6431761D01*
Y-306715D01*
X2369070Y-6414915D02*
Y-116430D01*
X2060000Y-7288493D02*
Y-6723985D01*
X2369070Y-6414915D01*
X2000000Y-6707744D02*
X2239899Y-6467845D01*
X2000000Y-7066577D02*
Y-6707744D01*
X4142427Y-1369884D02*
Y-635981D01*
X4079666Y-437833D02*
X4522500Y5000D01*
X4079666Y-1360911D02*
Y-437833D01*
X4776500Y-1908D02*
Y5000D01*
X4142427Y-635981D02*
X4776500Y-1908D01*
X2753340Y-1419217D02*
X4014500Y-158057D01*
Y5000D01*
X3760500Y-321700D02*
Y5000D01*
X2689989Y-1392211D02*
X3760500Y-321700D01*
X2627881Y-1366289D02*
X3506500Y-487670D01*
X2560803Y-686696D02*
X3252500Y5000D01*
X2493726Y-499774D02*
X2998500Y5000D01*
X1765493Y-7067207D02*
Y-539993D01*
X1220500Y5000D02*
X1765493Y-539993D01*
X1728500Y5000D02*
X1737037D01*
X2432784Y-306715D02*
X2744500Y5000D01*
X2369070Y-116430D02*
X2490500Y5000D01*
X7042289Y-9278289D02*
Y-9201147D01*
Y-9278289D02*
X7061500Y-9297500D01*
X6433751Y-8592609D02*
X7042289Y-9201147D01*
X6142609Y-8632609D02*
X6806567Y-9296566D01*
X2000000Y-7066577D02*
X2001401Y-7067978D01*
X2521373Y-9075373D02*
X2743500Y-9297500D01*
X3163373Y-8955373D02*
X3505500Y-9297500D01*
X2735373Y-9035373D02*
X2997500Y-9297500D01*
X2147758Y-9155372D02*
X2208712Y-9216326D01*
X2307373Y-9115372D02*
X2489500Y-9297500D01*
X2949373Y-8995373D02*
X3251500Y-9297500D01*
X1966864Y-8575883D02*
Y-8493588D01*
X2208712Y-9270712D02*
X2235500Y-9297500D01*
X2208712Y-9270712D02*
Y-9216326D01*
X2117547Y-7062719D02*
X2120602Y-7065774D01*
X8342020Y-2807049D02*
Y-2343474D01*
X2015239Y-7335143D02*
Y-7333254D01*
X2060000Y-7288493D01*
X1762700Y-7070000D02*
X1765493Y-7067207D01*
X1683801Y-7972500D02*
X1767500D01*
X2355400Y-7331426D02*
X2420443Y-7266383D01*
X2647700Y-7061059D02*
X2650463Y-7058296D01*
X3506500Y-487670D02*
Y5000D01*
D42*
X602199Y-666734D02*
X603933Y-665000D01*
X974445D01*
X1432772Y-4117255D02*
X1655124Y-3894904D01*
Y-967248D01*
X591048Y-8291453D02*
X672500Y-8210000D01*
X591048Y-8298881D02*
Y-8291453D01*
X505844Y-8384084D02*
X591048Y-8298881D01*
X974445Y-665000D02*
X1159537Y-850091D01*
X237033Y-3878968D02*
X644047D01*
X1159537Y-2939362D02*
Y-850091D01*
X1018445Y-3080454D02*
X1159537Y-2939362D01*
X644047Y-3878968D02*
X860500Y-3662514D01*
X110000Y-4006000D02*
X237033Y-3878968D01*
X860500Y-3662514D02*
Y-3238398D01*
X1018445Y-3080454D01*
X1242932Y-4181415D02*
Y-3287200D01*
X1539824Y-2990308D02*
Y-911493D01*
X1242932Y-3287200D02*
X1539824Y-2990308D01*
X672500Y-8210000D02*
X1390000D01*
X3345046Y-2920625D02*
X4699375D01*
X4700000Y-2920000D02*
X6100000D01*
X4699375Y-2920625D02*
X4700000Y-2920000D01*
X3344421Y-2921250D02*
X3345046Y-2920625D01*
X1242932Y-4181415D02*
X1432772Y-4371255D01*
D43*
X8795387Y-5490506D02*
X8858072D01*
X8286900Y-5998993D02*
X8795387Y-5490506D01*
X8935470Y-4494428D02*
X9129898Y-4300000D01*
X8827319Y-4602580D02*
X8935470Y-4494428D01*
X9364659Y-4459073D02*
Y-4391436D01*
X9329304Y-4494428D02*
X9364659Y-4459073D01*
X9450000Y-4306095D02*
Y-4300000D01*
X9364659Y-4391436D02*
X9450000Y-4306095D01*
X8935470Y-4494428D02*
X9329304D01*
X9129898Y-4300000D02*
X9450000D01*
X7737955Y-5537907D02*
X7738006Y-5537856D01*
X7609116Y-5537959D02*
X7609168Y-5537907D01*
X7737955D01*
X7684319Y-4856580D02*
X7688021Y-4852877D01*
X7936742D01*
X7678507Y-5025739D02*
Y-4862391D01*
X7684319Y-4856580D01*
X7677192Y-4849453D02*
X7684319Y-4856580D01*
X7677192Y-4849453D02*
Y-4665332D01*
X8286900Y-7962391D02*
Y-5998993D01*
Y-7962391D02*
X8452540Y-8128031D01*
D44*
X6045500Y-9297500D02*
X6046384Y-9298383D01*
X5790289Y-9298711D02*
X5791500Y-9297500D01*
D51*
X7609116Y-6291890D02*
Y-5817959D01*
X7329523Y-6571483D02*
X7609116Y-6291890D01*
X7329523Y-7759318D02*
Y-6571483D01*
X7280384Y-7808457D02*
X7329523Y-7759318D01*
D53*
X9300000Y-9300000D02*
D03*
Y0D02*
D03*
X0D02*
D03*
Y-9300000D02*
D03*
D54*
X4080000Y-6122000D02*
D03*
X4334000D02*
D03*
X3197580Y-8000386D02*
D03*
Y-7746386D02*
D03*
Y-7492386D02*
D03*
Y-7238386D02*
D03*
Y-6984386D02*
D03*
X2235500Y-9297500D02*
D03*
X8331500D02*
D03*
X8077500D02*
D03*
X7823500D02*
D03*
X7569500D02*
D03*
X7315500D02*
D03*
X7061500D02*
D03*
X6807500D02*
D03*
X6553500D02*
D03*
X6299500D02*
D03*
X6045500D02*
D03*
X5791500D02*
D03*
X5537500D02*
D03*
X5283500D02*
D03*
X5029500D02*
D03*
X4775500D02*
D03*
X4521500D02*
D03*
X4267500D02*
D03*
X4013500D02*
D03*
X3759500D02*
D03*
X3505500D02*
D03*
X3251500D02*
D03*
X2997500D02*
D03*
X2743500D02*
D03*
X2489500D02*
D03*
X1981500D02*
D03*
X1727500D02*
D03*
X1473500D02*
D03*
X1219500D02*
D03*
X2236500Y5000D02*
D03*
X8332500D02*
D03*
X8078500D02*
D03*
X7824500D02*
D03*
X7570500D02*
D03*
X7316500D02*
D03*
X7062500D02*
D03*
X6808500D02*
D03*
X6554500D02*
D03*
X6300500D02*
D03*
X6046500D02*
D03*
X5792500D02*
D03*
X5538500D02*
D03*
X5284500D02*
D03*
X5030500D02*
D03*
X4776500D02*
D03*
X4522500D02*
D03*
X4268500D02*
D03*
X4014500D02*
D03*
X3760500D02*
D03*
X3506500D02*
D03*
X3252500D02*
D03*
X2998500D02*
D03*
X2744500D02*
D03*
X2490500D02*
D03*
X1982500D02*
D03*
X1728500D02*
D03*
X1474500D02*
D03*
X1220500D02*
D03*
X1432772Y-4371255D02*
D03*
Y-4117255D02*
D03*
Y-3863255D02*
D03*
Y-3609255D02*
D03*
Y-3355255D02*
D03*
D55*
X4588000Y-6122000D02*
D03*
X965500Y-9297500D02*
D03*
X966500Y5000D02*
D03*
D56*
X1859160Y-8814302D02*
D03*
X2119160Y-8811802D02*
D03*
X1996660Y-6124302D02*
D03*
X9450000Y-4800000D02*
D03*
Y-4300000D02*
D03*
D57*
X3197580Y-8254386D02*
D03*
X1432772Y-4625255D02*
D03*
D58*
X-200000Y-6232000D02*
D03*
Y-5089000D02*
D03*
D59*
X684000Y-5339000D02*
D03*
Y-6101000D02*
D03*
Y-5847000D02*
D03*
Y-5593000D02*
D03*
X420000Y-5974000D02*
D03*
X430000Y-5720000D02*
D03*
Y-5466000D02*
D03*
X8452540Y-7428042D02*
D03*
Y-7678042D02*
D03*
Y-7878042D02*
D03*
Y-8128042D02*
D03*
D60*
X430000Y-5212000D02*
D03*
D61*
X6577500Y-875000D02*
D03*
X5817500Y-621000D02*
D03*
X5192500Y-875000D02*
D03*
X4432500Y-621000D02*
D03*
X3822500Y-870000D02*
D03*
X3062500Y-616000D02*
D03*
D62*
X6577500Y-2145000D02*
D03*
X5817500D02*
D03*
X5192500D02*
D03*
X4432500D02*
D03*
X3822500Y-2140000D02*
D03*
X3062500D02*
D03*
D63*
X8723540Y-7121042D02*
D03*
Y-8435042D02*
D03*
D64*
X364000Y-4260000D02*
D03*
X110000D02*
D03*
Y-4006000D02*
D03*
Y-3752000D02*
D03*
X364000D02*
D03*
Y-4006000D02*
D03*
X354000Y-7300000D02*
D03*
Y-7046000D02*
D03*
X100000D02*
D03*
Y-7300000D02*
D03*
Y-7554000D02*
D03*
X354000D02*
D03*
D65*
X7834020Y-2343474D02*
D03*
D66*
X8088020D02*
D03*
X8342020D02*
D03*
X8596020D02*
D03*
X8850020D02*
D03*
X9104020D02*
D03*
X9358020D02*
D03*
X9612020D02*
D03*
X7834020Y-540074D02*
D03*
X8088020D02*
D03*
X8342020D02*
D03*
X8596020D02*
D03*
X8850020D02*
D03*
X9104020D02*
D03*
X9358020D02*
D03*
X9612020D02*
D03*
D67*
X9123824Y-3275977D02*
D03*
D68*
X8623824Y-3775977D02*
D03*
Y-3525977D02*
D03*
Y-3025977D02*
D03*
Y-2775977D02*
D03*
D69*
Y-3275977D02*
D03*
X9123824Y-3775977D02*
D03*
Y-2775977D02*
D03*
X9373824D02*
D03*
Y-3775977D02*
D03*
D70*
X6199084Y-8895914D02*
D03*
X602199Y-666734D02*
D03*
X2535249Y-7730378D02*
D03*
X2137438Y-5729931D02*
D03*
X1655124Y-967248D02*
D03*
X505844Y-8384084D02*
D03*
X575844Y-6776584D02*
D03*
X2116588Y-7343566D02*
D03*
X2647700Y-7061059D02*
D03*
X1760200Y-7330000D02*
D03*
X1887367Y-7067279D02*
D03*
X2355400Y-7331426D02*
D03*
X2360335Y-7063349D02*
D03*
X2475199Y-7060290D02*
D03*
X1909840Y-7336384D02*
D03*
X2015239Y-7335143D02*
D03*
X2286758Y-7018463D02*
D03*
X1762700Y-7070000D02*
D03*
X1827500Y-7332500D02*
D03*
X2001401Y-7067978D02*
D03*
X2120602Y-7065774D02*
D03*
X2230001Y-7060000D02*
D03*
X1438765Y-7643102D02*
D03*
X1847150Y-7728887D02*
D03*
X2471191Y-7547647D02*
D03*
X2904055Y-7863309D02*
D03*
X2819293Y-8205365D02*
D03*
X2076990Y-8537110D02*
D03*
X1916676Y-8143486D02*
D03*
X1743921Y-8168375D02*
D03*
X1767025Y-8103769D02*
D03*
X7489399Y-5904786D02*
D03*
X2307722Y-6820200D02*
D03*
X1073755Y-1345347D02*
D03*
X713440Y-1276698D02*
D03*
X839929Y-1005141D02*
D03*
X1018445Y-3080454D02*
D03*
X1906272Y-7676321D02*
D03*
X1980557Y-5476131D02*
D03*
X1626807Y-514244D02*
D03*
X2084525Y-516101D02*
D03*
X1793067Y-8488494D02*
D03*
X7909709Y-7873169D02*
D03*
X2052256Y-5924472D02*
D03*
X3165849Y-3416740D02*
D03*
X1880546Y-8489755D02*
D03*
X8090129Y-2838733D02*
D03*
X3223010Y-3489518D02*
D03*
X2824999Y-7386020D02*
D03*
X2859533Y-7554034D02*
D03*
X2864949Y-7628554D02*
D03*
X1966864Y-8493588D02*
D03*
X2027300Y-8458134D02*
D03*
X1945000Y-8207500D02*
D03*
X2864752Y-8137700D02*
D03*
X1780339Y-7779351D02*
D03*
X1390000Y-8210000D02*
D03*
X6652730Y-8895657D02*
D03*
X7453353Y-7556831D02*
D03*
X3175783Y-2835389D02*
D03*
X4369415Y-2838247D02*
D03*
X2465400Y-7630000D02*
D03*
X3344421Y-2921250D02*
D03*
X3156708Y-3301329D02*
D03*
X3132490Y-3214217D02*
D03*
X1767500Y-7972500D02*
D03*
X1539824Y-911493D02*
D03*
X3407862Y-175397D02*
D03*
X6100000Y-2920000D02*
D03*
X5777500Y-2837500D02*
D03*
X4700000Y-2920000D02*
D03*
X1720000Y-8054700D02*
D03*
X2595000Y-7950000D02*
D03*
D71*
X1409565Y-6028039D02*
D03*
X7352201Y-5572158D02*
D03*
X7227895D02*
D03*
X6971935D02*
D03*
X7099688D02*
D03*
X909240Y-6927907D02*
D03*
X1192175Y-8065503D02*
D03*
X869425Y-7811084D02*
D03*
X467927Y-3391255D02*
D03*
X5634231Y-4074962D02*
D03*
X8858072Y-5697479D02*
D03*
Y-5900636D02*
D03*
Y-6104877D02*
D03*
Y-6314192D02*
D03*
Y-6520970D02*
D03*
X1192621Y-7403739D02*
D03*
X2632593Y-8441962D02*
D03*
X2780856Y-8440753D02*
D03*
X7738006Y-5537856D02*
D03*
X2271082Y-2566163D02*
D03*
X2309070Y-5239684D02*
D03*
X3957633Y-6599003D02*
D03*
X3930828Y-6978308D02*
D03*
X3750828Y-6798308D02*
D03*
X7100539Y-5298020D02*
D03*
X6971084D02*
D03*
X6789242Y-5829829D02*
D03*
X6989214Y-6035939D02*
D03*
X7354083Y-5298020D02*
D03*
X7229776D02*
D03*
X8858072Y-5490506D02*
D03*
X2302295Y-6096787D02*
D03*
X1592554Y-5476474D02*
D03*
X5890188Y-3485288D02*
D03*
X8858072Y-5280535D02*
D03*
X6890188Y-4165922D02*
D03*
X1430208Y-8450302D02*
D03*
X5436462Y-8532609D02*
D03*
X5350133Y-8509202D02*
D03*
X5524469D02*
D03*
X1395000Y-8740000D02*
D03*
X5880133Y-8489202D02*
D03*
X6270133Y-7323802D02*
D03*
X5725133D02*
D03*
X6570133D02*
D03*
X6870133D02*
D03*
X6050133Y-8356502D02*
D03*
X9647233Y-5697313D02*
D03*
X9649744Y-5900649D02*
D03*
Y-6108067D02*
D03*
X9645000Y-5490000D02*
D03*
X9645000Y-5280000D02*
D03*
X6300000Y-2920000D02*
D03*
X5000000Y-3040000D02*
D03*
X6570188Y-4605922D02*
D03*
Y-4165922D02*
D03*
X6890188Y-5065922D02*
D03*
Y-4605922D02*
D03*
X5390187Y-3730922D02*
D03*
X5540187D02*
D03*
X5720188Y-4605922D02*
D03*
X5890188Y-3745922D02*
D03*
X5895187Y-5760922D02*
D03*
Y-5460923D02*
D03*
X6065187Y-5620922D02*
D03*
X6120188Y-3605922D02*
D03*
X6220188Y-5065922D02*
D03*
Y-4165922D02*
D03*
Y-4605922D02*
D03*
X6570188Y-5065922D02*
D03*
X5294189Y-5735922D02*
D03*
X3770188Y-4025922D02*
D03*
X3950188Y-3855922D02*
D03*
Y-4195923D02*
D03*
X5295187Y-5520922D02*
D03*
X5125187Y-5610922D02*
D03*
X5135187Y-5030923D02*
D03*
X5240187Y-3730922D02*
D03*
X3635000Y-3035000D02*
D03*
X930000Y-8440000D02*
D03*
X900062Y-7480284D02*
D03*
X5622633Y-6839002D02*
D03*
X6870133Y-6946502D02*
D03*
X6570133D02*
D03*
X6270133D02*
D03*
X5140133Y-7789202D02*
D03*
X5880133Y-8256502D02*
D03*
X5545133Y-6496502D02*
D03*
X5395133D02*
D03*
X5245133D02*
D03*
X6870133Y-7796502D02*
D03*
X6270133D02*
D03*
X7742451Y-2787164D02*
D03*
X180000Y-3270000D02*
D03*
X1440000Y-6930000D02*
D03*
X6120133Y-6356502D02*
D03*
X5890133Y-6216502D02*
D03*
Y-6486502D02*
D03*
X6570133Y-7796502D02*
D03*
X317926Y-885000D02*
D03*
X767500Y-3642500D02*
D03*
X-225000Y-667500D02*
D03*
X512205Y-889999D02*
D03*
X985000Y-8092500D02*
D03*
X930000Y-8570000D02*
D03*
X500000Y-8700000D02*
D03*
X320000D02*
D03*
X-200000Y-8430000D02*
D03*
X904100Y-2277633D02*
D03*
Y-1917633D02*
D03*
X334100Y-1287633D02*
D03*
X904100Y-2097633D02*
D03*
X334100Y-2707633D02*
D03*
X1264100Y-2277633D02*
D03*
Y-2097633D02*
D03*
Y-1917633D02*
D03*
X1084100D02*
D03*
Y-2277633D02*
D03*
Y-2097633D02*
D03*
D72*
X7280384Y-7808457D02*
D03*
X7936742Y-4852877D02*
D03*
X7677192Y-4665332D02*
D03*
X7678507Y-5025739D02*
D03*
D75*
X7684319Y-4348580D02*
D03*
Y-4856580D02*
D03*
D76*
X8827319Y-4602580D02*
D03*
D77*
X7609116Y-5537959D02*
D03*
Y-5817959D02*
D03*
D78*
X1859160Y-8814302D02*
X1860410Y-8813052D01*
X2117910D02*
X2119160Y-8811802D01*
%TF.MD5,602e129ebcaca14d8982467f43549a3a*%
M02*
